<?xml version="1.0" encoding="utf-8"?>
<!-- Generator: Adobe Illustrator 16.0.0, SVG Export Plug-In . SVG Version: 6.00 Build 0)  -->
<!DOCTYPE svg PUBLIC "-//W3C//DTD SVG 1.1//EN" "http://www.w3.org/Graphics/SVG/1.1/DTD/svg11.dtd">
<svg version="1.1" id="Layer_1" xmlns="http://www.w3.org/2000/svg" xmlns:xlink="http://www.w3.org/1999/xlink" x="0px" y="0px"
	 width="419.53px" height="595.28px" viewBox="0 0 419.53 595.28" enable-background="new 0 0 419.53 595.28" xml:space="preserve">
<rect x="8" y="9" width="230.772" height="18.655"/>
<rect x="-315" y="12" fill="none" width="273" height="604"/>
<text transform="matrix(1 0 0 1 -315 20.5356)"><tspan x="0" y="0" font-family="'Ubuntu-Light'" font-size="11">### One flowchart of all the three &quot;flows&quot;: Traditio</tspan><tspan x="267.955" y="0" font-family="'Ubuntu-Light'" font-size="11">-</tspan><tspan x="0" y="22" font-family="'Ubuntu-Light'" font-size="11">al, XML, Markdown &lt;!-- Loes &amp; Kimmy --&gt;</tspan><tspan x="0" y="66" font-family="'Ubuntu-Light'" font-size="11">TR: The current workflow of desktop publishing, from </tspan><tspan x="0" y="88" font-family="'Ubuntu-Light'" font-size="11">Word to inDesign, has certain advantages.</tspan><tspan x="0" y="132" font-family="'Ubuntu-Light'" font-size="11">XML: The original XML document is your fundament, </tspan><tspan x="0" y="154" font-family="'Ubuntu-Light'" font-size="11">your manuscript, and from there you can create </tspan><tspan x="0" y="176" font-family="'Ubuntu-Light'" font-size="11">translations for every medium. Thus, if there is a </tspan><tspan x="0" y="198" font-family="'Ubuntu-Light'" font-size="11">misspelling or another error - you change this in your </tspan><tspan x="0" y="220" font-family="'Ubuntu-Light'" font-size="11">XML document and you make new translation to the </tspan><tspan x="0" y="242" font-family="'Ubuntu-Light'" font-size="11">different media that you have produced. For forma</tspan><tspan x="263.905" y="242" font-family="'Ubuntu-Light'" font-size="11">-</tspan><tspan x="0" y="264" font-family="'Ubuntu-Light'" font-size="11">ting you would need to add a second step, like for </tspan><tspan x="0" y="286" font-family="'Ubuntu-Light'" font-size="11">instance CSS stylesheets. However, because XML is so </tspan><tspan x="0" y="308" font-family="'Ubuntu-Light'" font-size="11">detailed it becomes too difficult to work with as the </tspan><tspan x="0" y="330" font-family="'Ubuntu-Light'" font-size="11">tagging systems become very complex.</tspan><tspan x="0" y="374" font-family="'Ubuntu-Light'" font-size="11">MD: &lt;!-- not perfect, but the most easy to work with </tspan><tspan x="0" y="396" font-family="'Ubuntu-Light'" font-size="11">and creates structured texts hat allow for hybrid </tspan><tspan x="0" y="418" font-family="'Ubuntu-Light'" font-size="11">publishing--&gt;</tspan></text>
<rect x="10" y="11" fill="none" width="362" height="43"/>
<text transform="matrix(1 0 0 1 10 24.9678)"><tspan x="0" y="0" fill="#FFFFFF" font-family="'Ubuntu-Medium'" font-size="18">WORKFLOW TRADITIONAL </tspan><tspan x="0" y="20" font-family="'Ubuntu-Medium'" font-size="18">word      indesign      ebook</tspan></text>
<g>
	<path fill="#020202" d="M136.365,144.16H86.493V79.639h49.872V144.16L136.365,144.16z M88.493,142.16h45.872V81.639H88.493V142.16
		L88.493,142.16z"/>
	<g>
		<path fill="#010101" d="M92.162,137.748c0-0.222,0.149-0.378,0.359-0.378s0.354,0.156,0.354,0.378c0,0.216-0.139,0.378-0.36,0.378
			C92.307,138.125,92.162,137.963,92.162,137.748z"/>
		<path fill="#010101" d="M96.036,133.802v3.508c0,0.258,0.007,0.553,0.024,0.75h-0.474l-0.024-0.504h-0.012
			c-0.162,0.323-0.517,0.569-0.989,0.569c-0.702,0-1.242-0.594-1.242-1.475c-0.006-0.967,0.595-1.562,1.301-1.562
			c0.444,0,0.744,0.212,0.877,0.444h0.012v-1.732L96.036,133.802L96.036,133.802z M95.51,136.338c0-0.065-0.006-0.155-0.024-0.223
			c-0.078-0.336-0.365-0.611-0.761-0.611c-0.545,0-0.87,0.48-0.87,1.121c0,0.588,0.288,1.074,0.857,1.074
			c0.354,0,0.678-0.233,0.772-0.63c0.02-0.071,0.024-0.144,0.024-0.228L95.51,136.338L95.51,136.338z"/>
		<path fill="#010101" d="M99.541,136.584c0,1.072-0.743,1.541-1.445,1.541c-0.786,0-1.392-0.575-1.392-1.494
			c0-0.971,0.637-1.54,1.439-1.54C98.978,135.09,99.541,135.696,99.541,136.584z M97.237,136.614c0,0.637,0.366,1.115,0.882,1.115
			c0.505,0,0.883-0.474,0.883-1.127c0-0.492-0.246-1.115-0.87-1.115C97.509,135.487,97.237,136.063,97.237,136.614z"/>
		<path fill="#010101" d="M102.277,137.952c-0.138,0.072-0.442,0.168-0.833,0.168c-0.876,0-1.444-0.594-1.444-1.48
			c0-0.895,0.61-1.542,1.559-1.542c0.312,0,0.587,0.078,0.731,0.149l-0.12,0.408c-0.126-0.072-0.324-0.139-0.612-0.139
			c-0.666,0-1.026,0.492-1.026,1.098c0,0.672,0.433,1.086,1.009,1.086c0.3,0,0.497-0.078,0.646-0.145L102.277,137.952z"/>
		<path fill="#010101" d="M103.143,135.157l0.414,0.623c0.107,0.162,0.197,0.312,0.294,0.475h0.018
			c0.097-0.174,0.192-0.323,0.288-0.479l0.407-0.617h0.57l-0.99,1.403l1.021,1.499h-0.601l-0.426-0.653
			c-0.113-0.168-0.209-0.329-0.312-0.504h-0.012c-0.096,0.175-0.198,0.329-0.306,0.504l-0.419,0.653h-0.582l1.031-1.48l-0.983-1.422
			L103.143,135.157L103.143,135.157z"/>
	</g>
</g>
<g>
	<path fill="#020202" d="M249.013,325.92h-49.872v-64.521h49.872V325.92L249.013,325.92z M201.141,323.92h45.872v-60.521h-45.872
		V323.92L201.141,323.92z"/>
	<g>
		<path fill="#010101" d="M204.81,319.508c0-0.222,0.149-0.378,0.359-0.378s0.354,0.156,0.354,0.378c0,0.216-0.139,0.378-0.36,0.378
			C204.954,319.886,204.81,319.724,204.81,319.508z"/>
		<path fill="#010101" d="M208.684,315.562v3.508c0,0.258,0.007,0.553,0.024,0.75h-0.474l-0.024-0.504h-0.012
			c-0.162,0.323-0.517,0.569-0.989,0.569c-0.702,0-1.242-0.594-1.242-1.475c-0.006-0.967,0.595-1.562,1.301-1.562
			c0.444,0,0.744,0.212,0.877,0.444h0.012v-1.732L208.684,315.562L208.684,315.562z M208.157,318.099
			c0-0.065-0.006-0.155-0.024-0.223c-0.078-0.336-0.365-0.611-0.761-0.611c-0.545,0-0.87,0.48-0.87,1.121
			c0,0.588,0.288,1.074,0.857,1.074c0.354,0,0.678-0.233,0.772-0.63c0.02-0.071,0.024-0.144,0.024-0.228L208.157,318.099
			L208.157,318.099z"/>
		<path fill="#010101" d="M212.188,318.345c0,1.072-0.743,1.541-1.445,1.541c-0.786,0-1.392-0.575-1.392-1.494
			c0-0.971,0.637-1.54,1.439-1.54C211.625,316.851,212.188,317.456,212.188,318.345z M209.885,318.374
			c0,0.637,0.366,1.115,0.882,1.115c0.505,0,0.883-0.474,0.883-1.127c0-0.492-0.246-1.115-0.87-1.115
			C210.156,317.247,209.885,317.823,209.885,318.374z"/>
		<path fill="#010101" d="M214.925,319.712c-0.138,0.072-0.442,0.168-0.833,0.168c-0.876,0-1.444-0.594-1.444-1.48
			c0-0.895,0.61-1.542,1.559-1.542c0.312,0,0.587,0.078,0.731,0.149l-0.12,0.408c-0.126-0.072-0.324-0.139-0.612-0.139
			c-0.666,0-1.026,0.492-1.026,1.098c0,0.672,0.433,1.086,1.009,1.086c0.3,0,0.497-0.078,0.646-0.145L214.925,319.712z"/>
		<path fill="#010101" d="M215.79,316.917l0.414,0.623c0.107,0.162,0.197,0.312,0.294,0.475h0.018
			c0.097-0.174,0.192-0.323,0.288-0.479l0.407-0.617h0.57l-0.99,1.403l1.021,1.499h-0.601l-0.426-0.653
			c-0.113-0.168-0.209-0.329-0.312-0.504h-0.012c-0.096,0.175-0.198,0.329-0.306,0.504l-0.419,0.653h-0.582l1.031-1.48l-0.983-1.422
			L215.79,316.917L215.79,316.917z"/>
	</g>
</g>
<rect x="75.456" y="95.91" fill="none" width="102.857" height="31.978"/>
<text transform="matrix(1 0 0 1 75.4556 102.894)"><tspan x="0" y="0" fill="#1B181C" font-family="'Ubuntu-Light'" font-size="9">Source document</tspan><tspan x="0" y="11" fill="#1B181C" font-family="'Ubuntu-Light'" font-size="9">Corrections</tspan></text>
<rect x="72.546" y="178.432" fill="none" width="102.857" height="31.978"/>
<text transform="matrix(1 0 0 1 72.5459 185.4155)"><tspan x="0" y="0" fill="#1B181C" font-family="'Ubuntu-Light'" font-size="9">Final Corrections</tspan><tspan x="0" y="11" fill="#1B181C" font-family="'Ubuntu-Light'" font-size="9">Design</tspan></text>
<rect x="162.011" y="175.924" fill="none" width="102.857" height="31.978"/>
<text transform="matrix(1 0 0 1 162.0107 182.9082)"><tspan x="0" y="0" fill="#1B181C" font-family="'Ubuntu-Light'" font-size="9">Optimize </tspan><tspan x="0" y="11" fill="#1B181C" font-family="'Ubuntu-Light'" font-size="9">Indd for epub</tspan></text>
<rect x="204.749" y="268.073" fill="none" width="102.857" height="31.978"/>
<text transform="matrix(1 0 0 1 204.749 275.0571)"><tspan x="0" y="0" fill="#1B181C" font-family="'Ubuntu-Light'" font-size="9">Copy paste</tspan><tspan x="0" y="11" fill="#1B181C" font-family="'Ubuntu-Light'" font-size="9">Definitive text</tspan></text>
<rect x="201.584" y="362.727" fill="none" width="64.916" height="34.084"/>
<text transform="matrix(1 0 0 1 201.584 369.7109)"><tspan x="0" y="0" fill="#1B181C" font-family="'Ubuntu-Light'" font-size="9">Ebook Specific </tspan><tspan x="0" y="11" fill="#1B181C" font-family="'Ubuntu-Light'" font-size="9">Design</tspan></text>
<g>
	<line fill="none" stroke="#1B181C" stroke-width="3.3579" x1="111.429" y1="151.956" x2="111.429" y2="160.187"/>
	<polygon fill="#1B181C" points="111.429,164.092 117.429,157.639 105.429,157.639 	"/>
</g>
<g>
	<line fill="none" stroke="#1B181C" stroke-width="3.3579" x1="219.076" y1="335.983" x2="219.076" y2="344.215"/>
	<polygon fill="#1B181C" points="219.076,348.119 225.076,341.666 213.076,341.666 	"/>
</g>
<g>
	<line fill="none" stroke="#1B181C" stroke-width="3.3579" x1="329.205" y1="421.896" x2="329.205" y2="430.127"/>
	<polygon fill="#1B181C" points="329.205,434.031 335.205,427.578 323.205,427.578 	"/>
</g>
<g>
	<line fill="none" stroke="#1B181C" stroke-width="3.3579" x1="292.064" y1="422.28" x2="292.064" y2="430.512"/>
	<polygon fill="#1B181C" points="292.064,434.416 298.064,427.963 286.064,427.963 	"/>
</g>
<g>
	<line fill="none" stroke="#1B181C" stroke-width="3.3579" x1="179.599" y1="298.66" x2="187.83" y2="298.66"/>
	<polygon fill="#1B181C" points="191.735,298.66 185.282,292.66 185.282,304.66 	"/>
</g>
<g>
	<line fill="none" stroke="#1B181C" stroke-width="3.3579" x1="265.637" y1="380.186" x2="273.867" y2="380.186"/>
	<polygon fill="#1B181C" points="277.772,380.186 271.319,374.186 271.319,386.186 	"/>
</g>
<g>
	<line fill="none" stroke="#1B181C" stroke-width="3.3579" x1="144.806" y1="216.41" x2="153.037" y2="216.41"/>
	<polygon fill="#1B181C" points="156.942,216.41 150.489,210.41 150.489,222.41 	"/>
</g>
<g>
	<line fill="none" stroke="#1B181C" stroke-width="3.3579" x1="222" y1="216.41" x2="230.23" y2="216.41"/>
	<polygon fill="#1B181C" points="234.137,216.41 227.684,210.41 227.684,222.41 	"/>
</g>
<g>
	<line fill="none" stroke="#1B181C" stroke-width="3.3579" x1="296.702" y1="216.41" x2="304.934" y2="216.41"/>
	<polygon fill="#1B181C" points="308.838,216.41 302.385,210.41 302.385,222.41 	"/>
</g>
<g>
	<line fill="none" stroke="#1B181C" stroke-width="3.3579" x1="147.253" y1="335.936" x2="147.253" y2="344.167"/>
	<polygon fill="#1B181C" points="147.253,348.072 153.253,341.619 141.253,341.619 	"/>
</g>
<g>
	<g>
		<path fill="#010101" d="M90.756,229.399c0-0.223,0.149-0.379,0.359-0.379s0.354,0.156,0.354,0.379
			c0,0.216-0.139,0.378-0.359,0.378C90.899,229.777,90.756,229.615,90.756,229.399z"/>
		<path fill="#010101" d="M92.711,225.992c0.006,0.18-0.126,0.324-0.336,0.324c-0.187,0-0.317-0.146-0.317-0.324
			c0-0.187,0.138-0.33,0.33-0.33C92.585,225.662,92.711,225.806,92.711,225.992z M92.122,229.709v-2.902h0.528v2.902H92.122z"/>
		<path fill="#010101" d="M93.527,227.593c0-0.3-0.006-0.545-0.023-0.786h0.468l0.03,0.48h0.012
			c0.144-0.276,0.479-0.545,0.959-0.545c0.4,0,1.024,0.239,1.024,1.234v1.733H95.47v-1.673c0-0.468-0.174-0.857-0.671-0.857
			c-0.349,0-0.618,0.246-0.708,0.54c-0.023,0.066-0.036,0.156-0.036,0.246v1.745h-0.528L93.527,227.593L93.527,227.593z"/>
		<path fill="#010101" d="M99.363,225.453v3.508c0,0.258,0.006,0.551,0.024,0.749h-0.475l-0.023-0.503h-0.012
			c-0.162,0.324-0.517,0.57-0.989,0.57c-0.702,0-1.241-0.595-1.241-1.477c-0.006-0.965,0.594-1.559,1.301-1.559
			c0.444,0,0.744,0.209,0.876,0.442h0.013v-1.731H99.363z M98.836,227.99c0-0.066-0.007-0.156-0.024-0.223
			c-0.078-0.336-0.366-0.611-0.761-0.611c-0.546,0-0.87,0.479-0.87,1.122c0,0.587,0.288,1.072,0.857,1.072
			c0.354,0,0.678-0.233,0.773-0.63c0.018-0.071,0.024-0.144,0.024-0.228V227.99z"/>
		<path fill="#010101" d="M102.747,225.453v3.508c0,0.258,0.007,0.551,0.023,0.749h-0.474l-0.023-0.503h-0.012
			c-0.162,0.324-0.517,0.57-0.99,0.57c-0.701,0-1.241-0.595-1.241-1.477c-0.006-0.965,0.595-1.559,1.301-1.559
			c0.444,0,0.744,0.209,0.875,0.442h0.013v-1.731H102.747z M102.22,227.99c0-0.066-0.006-0.156-0.024-0.223
			c-0.078-0.336-0.366-0.611-0.762-0.611c-0.546,0-0.87,0.479-0.87,1.122c0,0.587,0.288,1.072,0.858,1.072
			c0.354,0,0.677-0.233,0.772-0.63c0.019-0.071,0.024-0.144,0.024-0.228L102.22,227.99L102.22,227.99z"/>
	</g>
	<g>
		<path fill="#020202" d="M136.365,234.698H86.493v-64.521h49.872V234.698L136.365,234.698z M88.493,232.698h45.872v-60.521H88.493
			V232.698L88.493,232.698z"/>
		<g>
			<path fill="#020202" d="M130.604,231.481c-0.369,0-0.67-0.302-0.67-0.67c0-0.37,0.301-0.671,0.67-0.671
				c0.37,0,0.67,0.301,0.67,0.671C131.273,231.179,130.974,231.481,130.604,231.481L130.604,231.481z"/>
			<path fill="#020202" d="M130.604,229.544c-0.369,0-0.67-0.3-0.67-0.67c0-0.369,0.301-0.67,0.67-0.67c0.37,0,0.67,0.301,0.67,0.67
				C131.273,229.245,130.974,229.544,130.604,229.544L130.604,229.544z"/>
			<path fill="#020202" d="M130.604,227.615c-0.369,0-0.67-0.3-0.67-0.67s0.301-0.67,0.67-0.67c0.37,0,0.67,0.3,0.67,0.67
				S130.974,227.615,130.604,227.615L130.604,227.615z"/>
			<path fill="#020202" d="M130.604,225.68c-0.369,0-0.67-0.301-0.67-0.67c0-0.37,0.301-0.671,0.67-0.671
				c0.37,0,0.67,0.301,0.67,0.671C131.273,225.379,130.974,225.68,130.604,225.68L130.604,225.68z"/>
			<path fill="#020202" d="M132.386,231.481c-0.37,0-0.669-0.302-0.669-0.67c0-0.37,0.299-0.671,0.669-0.671s0.67,0.301,0.67,0.671
				C133.056,231.179,132.757,231.481,132.386,231.481L132.386,231.481z"/>
			<path fill="#020202" d="M132.386,229.544c-0.37,0-0.669-0.3-0.669-0.67c0-0.369,0.299-0.67,0.669-0.67s0.67,0.301,0.67,0.67
				C133.056,229.245,132.757,229.544,132.386,229.544L132.386,229.544z"/>
			<path fill="#020202" d="M132.386,227.615c-0.37,0-0.669-0.3-0.669-0.67s0.299-0.67,0.669-0.67s0.67,0.3,0.67,0.67
				S132.757,227.615,132.386,227.615L132.386,227.615z"/>
			<path fill="#020202" d="M132.386,225.68c-0.37,0-0.669-0.301-0.669-0.67c0-0.37,0.299-0.671,0.669-0.671s0.67,0.301,0.67,0.671
				C133.056,225.379,132.757,225.68,132.386,225.68L132.386,225.68z"/>
			<path fill="#020202" d="M132.386,223.745c-0.37,0-0.669-0.3-0.669-0.67c0-0.364,0.299-0.665,0.669-0.665s0.67,0.301,0.67,0.665
				C133.056,223.446,132.757,223.745,132.386,223.745L132.386,223.745z"/>
			<path fill="#020202" d="M128.822,231.481c-0.37,0-0.67-0.302-0.67-0.67c0-0.37,0.3-0.671,0.67-0.671s0.669,0.301,0.669,0.671
				C129.491,231.179,129.192,231.481,128.822,231.481L128.822,231.481z"/>
			<path fill="#020202" d="M128.822,229.544c-0.37,0-0.67-0.3-0.67-0.67c0-0.369,0.3-0.67,0.67-0.67s0.669,0.301,0.669,0.67
				C129.491,229.245,129.192,229.544,128.822,229.544L128.822,229.544z"/>
			<path fill="#020202" d="M128.822,227.615c-0.37,0-0.67-0.3-0.67-0.67s0.3-0.67,0.67-0.67s0.669,0.3,0.669,0.67
				S129.192,227.615,128.822,227.615L128.822,227.615z"/>
			<path fill="#020202" d="M127.041,231.481c-0.369,0-0.671-0.302-0.671-0.67c0-0.37,0.302-0.671,0.671-0.671s0.67,0.301,0.67,0.671
				C127.711,231.179,127.41,231.481,127.041,231.481L127.041,231.481z"/>
			<path fill="#020202" d="M127.041,229.544c-0.369,0-0.671-0.3-0.671-0.67c0-0.369,0.302-0.67,0.671-0.67s0.67,0.301,0.67,0.67
				C127.711,229.245,127.41,229.544,127.041,229.544L127.041,229.544z"/>
			<path fill="#020202" d="M125.26,231.481c-0.37,0-0.67-0.302-0.67-0.67c0-0.37,0.3-0.671,0.67-0.671s0.67,0.301,0.67,0.671
				C125.93,231.179,125.631,231.481,125.26,231.481L125.26,231.481z"/>
		</g>
	</g>
</g>
<g>
	<g>
		<path fill="#010101" d="M170.467,229.399c0-0.223,0.149-0.379,0.359-0.379s0.354,0.156,0.354,0.379
			c0,0.216-0.139,0.378-0.359,0.378C170.611,229.777,170.467,229.615,170.467,229.399z"/>
		<path fill="#010101" d="M172.422,225.992c0.006,0.18-0.126,0.324-0.336,0.324c-0.187,0-0.317-0.146-0.317-0.324
			c0-0.187,0.138-0.33,0.33-0.33C172.296,225.662,172.422,225.806,172.422,225.992z M171.833,229.709v-2.902h0.528v2.902H171.833z"
			/>
		<path fill="#010101" d="M173.239,227.593c0-0.3-0.006-0.545-0.023-0.786h0.468l0.03,0.48h0.012
			c0.144-0.276,0.479-0.545,0.959-0.545c0.4,0,1.024,0.239,1.024,1.234v1.733h-0.527v-1.673c0-0.468-0.174-0.857-0.671-0.857
			c-0.349,0-0.618,0.246-0.708,0.54c-0.023,0.066-0.036,0.156-0.036,0.246v1.745h-0.528L173.239,227.593L173.239,227.593z"/>
		<path fill="#010101" d="M179.075,225.453v3.508c0,0.258,0.006,0.551,0.024,0.749h-0.475l-0.023-0.503h-0.012
			c-0.162,0.324-0.517,0.57-0.989,0.57c-0.702,0-1.241-0.595-1.241-1.477c-0.006-0.965,0.594-1.559,1.301-1.559
			c0.444,0,0.744,0.209,0.876,0.442h0.013v-1.731H179.075z M178.547,227.99c0-0.066-0.007-0.156-0.024-0.223
			c-0.078-0.336-0.366-0.611-0.761-0.611c-0.546,0-0.87,0.479-0.87,1.122c0,0.587,0.288,1.072,0.857,1.072
			c0.354,0,0.678-0.233,0.773-0.63c0.018-0.071,0.024-0.144,0.024-0.228V227.99z"/>
		<path fill="#010101" d="M182.458,225.453v3.508c0,0.258,0.007,0.551,0.023,0.749h-0.474l-0.023-0.503h-0.012
			c-0.162,0.324-0.517,0.57-0.99,0.57c-0.701,0-1.241-0.595-1.241-1.477c-0.006-0.965,0.595-1.559,1.301-1.559
			c0.444,0,0.744,0.209,0.875,0.442h0.013v-1.731H182.458z M181.931,227.99c0-0.066-0.006-0.156-0.024-0.223
			c-0.078-0.336-0.366-0.611-0.762-0.611c-0.546,0-0.87,0.479-0.87,1.122c0,0.587,0.288,1.072,0.858,1.072
			c0.354,0,0.677-0.233,0.772-0.63c0.019-0.071,0.024-0.144,0.024-0.228L181.931,227.99L181.931,227.99z"/>
	</g>
	<g>
		<path fill="#020202" d="M216.076,234.698h-49.872v-64.521h49.872V234.698L216.076,234.698z M168.205,232.698h45.872v-60.521
			h-45.872V232.698L168.205,232.698z"/>
		<g>
			<path fill="#020202" d="M210.314,231.481c-0.369,0-0.67-0.302-0.67-0.67c0-0.37,0.301-0.671,0.67-0.671
				c0.371,0,0.67,0.301,0.67,0.671C210.984,231.179,210.686,231.481,210.314,231.481L210.314,231.481z"/>
			<path fill="#020202" d="M210.314,229.544c-0.369,0-0.67-0.3-0.67-0.67c0-0.369,0.301-0.67,0.67-0.67
				c0.371,0,0.67,0.301,0.67,0.67C210.984,229.245,210.686,229.544,210.314,229.544L210.314,229.544z"/>
			<path fill="#020202" d="M210.314,227.615c-0.369,0-0.67-0.3-0.67-0.67s0.301-0.67,0.67-0.67c0.371,0,0.67,0.3,0.67,0.67
				S210.686,227.615,210.314,227.615L210.314,227.615z"/>
			<path fill="#020202" d="M210.314,225.68c-0.369,0-0.67-0.301-0.67-0.67c0-0.37,0.301-0.671,0.67-0.671
				c0.371,0,0.67,0.301,0.67,0.671C210.984,225.379,210.686,225.68,210.314,225.68L210.314,225.68z"/>
			<path fill="#020202" d="M212.098,231.481c-0.371,0-0.67-0.302-0.67-0.67c0-0.37,0.299-0.671,0.67-0.671
				c0.369,0,0.67,0.301,0.67,0.671C212.768,231.179,212.469,231.481,212.098,231.481L212.098,231.481z"/>
			<path fill="#020202" d="M212.098,229.544c-0.371,0-0.67-0.3-0.67-0.67c0-0.369,0.299-0.67,0.67-0.67
				c0.369,0,0.67,0.301,0.67,0.67C212.768,229.245,212.469,229.544,212.098,229.544L212.098,229.544z"/>
			<path fill="#020202" d="M212.098,227.615c-0.371,0-0.67-0.3-0.67-0.67s0.299-0.67,0.67-0.67c0.369,0,0.67,0.3,0.67,0.67
				S212.469,227.615,212.098,227.615L212.098,227.615z"/>
			<path fill="#020202" d="M212.098,225.68c-0.371,0-0.67-0.301-0.67-0.67c0-0.37,0.299-0.671,0.67-0.671
				c0.369,0,0.67,0.301,0.67,0.671C212.768,225.379,212.469,225.68,212.098,225.68L212.098,225.68z"/>
			<path fill="#020202" d="M212.098,223.745c-0.371,0-0.67-0.3-0.67-0.67c0-0.364,0.299-0.665,0.67-0.665
				c0.369,0,0.67,0.301,0.67,0.665C212.768,223.446,212.469,223.745,212.098,223.745L212.098,223.745z"/>
			<path fill="#020202" d="M208.533,231.481c-0.369,0-0.67-0.302-0.67-0.67c0-0.37,0.301-0.671,0.67-0.671
				c0.371,0,0.67,0.301,0.67,0.671C209.203,231.179,208.904,231.481,208.533,231.481L208.533,231.481z"/>
			<path fill="#020202" d="M208.533,229.544c-0.369,0-0.67-0.3-0.67-0.67c0-0.369,0.301-0.67,0.67-0.67
				c0.371,0,0.67,0.301,0.67,0.67C209.203,229.245,208.904,229.544,208.533,229.544L208.533,229.544z"/>
			<path fill="#020202" d="M208.533,227.615c-0.369,0-0.67-0.3-0.67-0.67s0.301-0.67,0.67-0.67c0.371,0,0.67,0.3,0.67,0.67
				S208.904,227.615,208.533,227.615L208.533,227.615z"/>
			<path fill="#020202" d="M206.752,231.481c-0.369,0-0.671-0.302-0.671-0.67c0-0.37,0.302-0.671,0.671-0.671
				c0.369,0,0.669,0.301,0.669,0.671C207.422,231.179,207.121,231.481,206.752,231.481L206.752,231.481z"/>
			<path fill="#020202" d="M206.752,229.544c-0.369,0-0.671-0.3-0.671-0.67c0-0.369,0.302-0.67,0.671-0.67
				c0.369,0,0.669,0.301,0.669,0.67C207.422,229.245,207.121,229.544,206.752,229.544L206.752,229.544z"/>
			<path fill="#020202" d="M204.971,231.481c-0.37,0-0.67-0.302-0.67-0.67c0-0.37,0.3-0.671,0.67-0.671s0.67,0.301,0.67,0.671
				C205.641,231.179,205.342,231.481,204.971,231.481L204.971,231.481z"/>
		</g>
	</g>
</g>
<g>
	<line fill="none" stroke="#1B181C" stroke-width="3.3579" x1="90.317" y1="244.65" x2="84.497" y2="250.47"/>
	<polygon fill="#1B181C" points="81.735,253.232 90.542,252.912 82.056,244.425 	"/>
</g>
<g>
	<line fill="none" stroke="#1B181C" stroke-width="3.3579" x1="123.974" y1="244.65" x2="129.793" y2="250.47"/>
	<polygon fill="#1B181C" points="132.556,253.232 132.234,244.425 123.749,252.91 	"/>
</g>
<g>
	<g>
		<path fill="#010101" d="M127.249,317.78c0.252-0.041,0.582-0.078,1.001-0.078c0.517,0,0.895,0.121,1.133,0.336
			c0.223,0.191,0.354,0.486,0.354,0.846c0,0.365-0.107,0.654-0.312,0.863c-0.275,0.293-0.726,0.443-1.234,0.443
			c-0.156,0-0.301-0.006-0.42-0.035v1.619h-0.521V317.78L127.249,317.78z M127.771,319.729c0.113,0.029,0.258,0.043,0.432,0.043
			c0.63,0,1.014-0.307,1.014-0.863c0-0.535-0.378-0.793-0.953-0.793c-0.229,0-0.401,0.018-0.491,0.043L127.771,319.729
			L127.771,319.729z"/>
		<path fill="#010101" d="M130.441,317.786c0.317-0.047,0.695-0.084,1.108-0.084c0.75,0,1.283,0.174,1.638,0.504
			c0.358,0.33,0.568,0.797,0.568,1.451c0,0.66-0.204,1.199-0.582,1.57c-0.377,0.377-1.001,0.582-1.787,0.582
			c-0.372,0-0.684-0.018-0.947-0.047v-3.977H130.441z M130.963,321.36c0.132,0.023,0.323,0.031,0.527,0.031
			c1.115,0,1.721-0.625,1.721-1.717c0.006-0.951-0.534-1.559-1.637-1.559c-0.271,0-0.474,0.025-0.611,0.055V321.36z"/>
		<path fill="#010101" d="M134.437,317.733h2.177v0.438h-1.655v1.344h1.529v0.432h-1.529v1.828h-0.521V317.733z"/>
	</g>
	<path fill="#020202" d="M171.627,326.919h-49.872v-64.52h37.568l12.346,14.012L171.627,326.919z M123.756,324.919h45.873
		l0.041-47.753l-11.248-12.767h-34.666V324.919z"/>
	<g>
		<polyline fill="#010101" points="158.874,264.274 158.874,276.788 170.669,276.788 		"/>
		<polygon fill="#010101" points="170.669,277.038 158.624,277.038 158.624,264.274 159.124,264.274 159.124,276.538 
			170.669,276.538 		"/>
	</g>
</g>
<path fill="#8DC63F" d="M167.39,424.707h-45.961v-64.423l46.126-4.683L167.39,424.707z M123.429,422.707h41.966l0.154-64.893
	l-42.12,4.276V422.707z"/>
<polygon fill="#FFFFFF" points="167.883,424.427 122.429,424.427 122.429,361.406 167.883,359.322 "/>
<path fill="#8DC63F" d="M168.383,424.927H121.93v-63.998l46.453-2.129V424.927z M122.929,423.927h44.453v-64.08l-44.453,2.038
	V423.927z"/>
<rect x="122.429" y="361.688" fill="#FFFFFF" width="47.122" height="63.02"/>
<path fill="#8DC63F" d="M170.051,425.207h-48.122v-64.02h48.122V425.207z M122.929,424.207h46.122v-62.02h-46.122V424.207z"/>
<polygon fill="#FFFFFF" points="122.429,361.688 122.429,424.207 170.301,428.348 170.301,364.156 "/>
<path fill="#8DC63F" d="M171.301,429.438l-49.872-4.313v-64.489l49.872,2.571V429.438z M123.429,423.29l45.872,3.968v-62.152
	l-45.872-2.365V423.29z"/>
<path fill="#010101" d="M127.024,416.897c0.252-0.042,0.582-0.078,1.001-0.078c0.516,0,0.894,0.12,1.133,0.336
	c0.222,0.191,0.354,0.486,0.354,0.846c0,0.366-0.106,0.653-0.312,0.863c-0.276,0.294-0.727,0.444-1.235,0.444
	c-0.155,0-0.3-0.007-0.42-0.036v1.619h-0.521V416.897z M127.546,418.846c0.114,0.03,0.258,0.042,0.433,0.042
	c0.63,0,1.014-0.306,1.014-0.863c0-0.534-0.378-0.792-0.953-0.792c-0.229,0-0.402,0.018-0.492,0.042L127.546,418.846
	L127.546,418.846z"/>
<path fill="#010101" d="M130.103,418.895c0-0.343-0.007-0.637-0.024-0.905h0.462l0.018,0.569h0.024
	c0.132-0.391,0.45-0.637,0.804-0.637c0.061,0,0.103,0.006,0.15,0.019v0.498c-0.054-0.013-0.108-0.019-0.18-0.019
	c-0.372,0-0.637,0.282-0.708,0.679c-0.013,0.071-0.024,0.154-0.024,0.245v1.548h-0.521L130.103,418.895L130.103,418.895z"/>
<path fill="#010101" d="M132.676,417.172c0.006,0.181-0.126,0.324-0.336,0.324c-0.186,0-0.316-0.144-0.316-0.324
	c0-0.186,0.138-0.33,0.33-0.33C132.55,416.843,132.676,416.986,132.676,417.172z M132.088,420.892v-2.902h0.528v2.902H132.088z"/>
<path fill="#010101" d="M133.492,418.774c0-0.3-0.006-0.546-0.024-0.785h0.469l0.029,0.479h0.013
	c0.144-0.275,0.479-0.546,0.959-0.546c0.4,0,1.024,0.24,1.024,1.235v1.733h-0.527v-1.674c0-0.468-0.175-0.856-0.672-0.856
	c-0.348,0-0.617,0.246-0.708,0.54c-0.022,0.065-0.035,0.156-0.035,0.246v1.745h-0.528L133.492,418.774L133.492,418.774z"/>
<path fill="#010101" d="M137.435,417.154v0.834h0.755v0.4h-0.755v1.565c0,0.359,0.102,0.563,0.396,0.563
	c0.138,0,0.239-0.019,0.306-0.036l0.024,0.396c-0.103,0.042-0.264,0.072-0.468,0.072c-0.246,0-0.444-0.078-0.57-0.222
	c-0.15-0.156-0.204-0.414-0.204-0.757v-1.58h-0.449v-0.401h0.449v-0.696L137.435,417.154z"/>
<path fill="#010101" d="M140.074,416.902c0.228-0.048,0.588-0.084,0.953-0.084c0.521,0,0.857,0.09,1.108,0.294
	c0.21,0.156,0.336,0.396,0.336,0.714c0,0.39-0.258,0.731-0.684,0.888v0.013c0.384,0.096,0.834,0.414,0.834,1.014
	c0,0.348-0.138,0.611-0.342,0.81c-0.282,0.259-0.738,0.377-1.397,0.377c-0.359,0-0.636-0.023-0.81-0.048L140.074,416.902
	L140.074,416.902z M140.596,418.559h0.475c0.552,0,0.876-0.288,0.876-0.679c0-0.474-0.36-0.659-0.889-0.659
	c-0.239,0-0.378,0.019-0.462,0.036V418.559z M140.596,420.495c0.103,0.018,0.252,0.024,0.438,0.024c0.54,0,1.038-0.198,1.038-0.786
	c0-0.551-0.475-0.78-1.044-0.78h-0.433V420.495L140.596,420.495z"/>
<path fill="#010101" d="M145.958,419.415c0,1.073-0.743,1.541-1.444,1.541c-0.785,0-1.392-0.575-1.392-1.493
	c0-0.971,0.636-1.541,1.439-1.541C145.396,417.922,145.958,418.527,145.958,419.415z M143.656,419.445
	c0,0.636,0.366,1.115,0.881,1.115c0.504,0,0.882-0.475,0.882-1.127c0-0.492-0.246-1.115-0.869-1.115
	C143.926,418.318,143.656,418.895,143.656,419.445z"/>
<path fill="#010101" d="M149.253,419.415c0,1.073-0.744,1.541-1.445,1.541c-0.785,0-1.392-0.575-1.392-1.493
	c0-0.971,0.636-1.541,1.438-1.541C148.688,417.922,149.253,418.527,149.253,419.415z M146.95,419.445
	c0,0.636,0.365,1.115,0.881,1.115c0.504,0,0.882-0.475,0.882-1.127c0-0.492-0.245-1.115-0.87-1.115
	C147.22,418.318,146.95,418.895,146.95,419.445z"/>
<path fill="#010101" d="M150.442,419.319h0.012c0.072-0.103,0.174-0.229,0.258-0.33l0.853-1.001h0.635l-1.121,1.193l1.277,1.709
	h-0.643l-1.001-1.393l-0.27,0.3v1.093h-0.522v-4.259h0.522V419.319z"/>
<g>
	<path fill="#8DC63F" d="M98.591,274.857h10.906v51.314H61.126v-63.025h37.465V274.857z M62.926,324.373h44.771v-47.716H96.792
		v-11.71H62.926V324.373z"/>
	<path fill="#8DC63F" d="M101.937,273.873c-0.37,0-0.67-0.301-0.67-0.67c0-0.37,0.3-0.67,0.67-0.67c0.369,0,0.67,0.3,0.67,0.67
		C102.607,273.572,102.306,273.873,101.937,273.873L101.937,273.873z"/>
	<path fill="#8DC63F" d="M101.937,271.937c-0.37,0-0.67-0.299-0.67-0.67c0-0.369,0.3-0.67,0.67-0.67c0.369,0,0.67,0.301,0.67,0.67
		C102.607,271.637,102.306,271.937,101.937,271.937L101.937,271.937z"/>
	<path fill="#8DC63F" d="M101.937,270.008c-0.37,0-0.67-0.3-0.67-0.67s0.3-0.67,0.67-0.67c0.369,0,0.67,0.3,0.67,0.67
		S102.306,270.008,101.937,270.008L101.937,270.008z"/>
	<path fill="#8DC63F" d="M101.937,268.073c-0.37,0-0.67-0.302-0.67-0.671s0.3-0.671,0.67-0.671c0.369,0,0.67,0.302,0.67,0.671
		S102.306,268.073,101.937,268.073L101.937,268.073z"/>
	<path fill="#8DC63F" d="M100.155,273.873c-0.371,0-0.67-0.301-0.67-0.67c0-0.37,0.3-0.67,0.67-0.67s0.669,0.3,0.669,0.67
		C100.824,273.572,100.525,273.873,100.155,273.873L100.155,273.873z"/>
	<path fill="#8DC63F" d="M100.155,271.937c-0.371,0-0.67-0.299-0.67-0.67c0-0.369,0.3-0.67,0.67-0.67s0.669,0.301,0.669,0.67
		C100.824,271.637,100.525,271.937,100.155,271.937L100.155,271.937z"/>
	<path fill="#8DC63F" d="M100.155,270.008c-0.371,0-0.67-0.3-0.67-0.67s0.3-0.67,0.67-0.67s0.669,0.3,0.669,0.67
		S100.525,270.008,100.155,270.008L100.155,270.008z"/>
	<path fill="#8DC63F" d="M100.155,268.073c-0.371,0-0.67-0.302-0.67-0.671s0.3-0.671,0.67-0.671s0.669,0.302,0.669,0.671
		S100.525,268.073,100.155,268.073L100.155,268.073z"/>
	<path fill="#8DC63F" d="M100.155,266.138c-0.371,0-0.67-0.3-0.67-0.67c0-0.364,0.3-0.665,0.67-0.665s0.669,0.301,0.669,0.665
		C100.824,265.838,100.525,266.138,100.155,266.138L100.155,266.138z"/>
	<path fill="#8DC63F" d="M103.718,273.873c-0.37,0-0.669-0.301-0.669-0.67c0-0.37,0.299-0.67,0.669-0.67s0.67,0.3,0.67,0.67
		C104.388,273.572,104.088,273.873,103.718,273.873L103.718,273.873z"/>
	<path fill="#8DC63F" d="M103.718,271.937c-0.37,0-0.669-0.299-0.669-0.67c0-0.369,0.299-0.67,0.669-0.67s0.67,0.301,0.67,0.67
		C104.388,271.637,104.088,271.937,103.718,271.937L103.718,271.937z"/>
	<path fill="#8DC63F" d="M103.718,270.008c-0.37,0-0.669-0.3-0.669-0.67s0.299-0.67,0.669-0.67s0.67,0.3,0.67,0.67
		S104.088,270.008,103.718,270.008L103.718,270.008z"/>
	<path fill="#8DC63F" d="M105.5,273.873c-0.369,0-0.67-0.301-0.67-0.67c0-0.37,0.301-0.67,0.67-0.67c0.37,0,0.671,0.3,0.671,0.67
		C106.17,273.572,105.87,273.873,105.5,273.873L105.5,273.873z"/>
	<path fill="#8DC63F" d="M105.5,271.937c-0.369,0-0.67-0.299-0.67-0.67c0-0.369,0.301-0.67,0.67-0.67c0.37,0,0.671,0.301,0.671,0.67
		C106.17,271.637,105.87,271.937,105.5,271.937L105.5,271.937z"/>
	<path fill="#8DC63F" d="M107.281,273.873c-0.371,0-0.67-0.301-0.67-0.67c0-0.37,0.301-0.67,0.67-0.67c0.37,0,0.67,0.3,0.67,0.67
		C107.951,273.572,107.651,273.873,107.281,273.873L107.281,273.873z"/>
</g>
<rect x="65.308" y="317.852" fill="none" width="46" height="6.932"/>
<text transform="matrix(1 0 0 1 65.3066 322.04)" fill="#231F20" font-family="'MyriadPro-Regular'" font-size="5.8981">Interactive PDF</text>
<rect x="247.205" y="226.189" fill="none" width="20.5" height="5.14"/>
<text transform="matrix(1 0 0 1 247.2051 230.377)" fill="#231F20" font-family="'MyriadPro-Regular'" font-size="5.8981">ePub</text>
<g>
	<path fill="#020202" d="M280.045,234.951H242.58v-63.026h48.371v51.315h-10.906V234.951z M244.381,233.15h33.865v-11.71h10.904
		v-47.716h-44.77V233.15z"/>
	<path fill="#020202" d="M283.391,224.224c0.369,0,0.67,0.301,0.67,0.67c0,0.37-0.301,0.67-0.67,0.67s-0.67-0.3-0.67-0.67
		C282.721,224.525,283.021,224.224,283.391,224.224L283.391,224.224z"/>
	<path fill="#020202" d="M283.391,226.161c0.369,0,0.67,0.3,0.67,0.67c0,0.369-0.301,0.67-0.67,0.67s-0.67-0.301-0.67-0.67
		C282.721,226.459,283.021,226.161,283.391,226.161L283.391,226.161z"/>
	<path fill="#020202" d="M283.391,228.089c0.369,0,0.67,0.3,0.67,0.67s-0.301,0.67-0.67,0.67s-0.67-0.3-0.67-0.67
		S283.021,228.089,283.391,228.089L283.391,228.089z"/>
	<path fill="#020202" d="M283.391,230.024c0.369,0,0.67,0.302,0.67,0.671s-0.301,0.671-0.67,0.671s-0.67-0.302-0.67-0.671
		S283.021,230.024,283.391,230.024L283.391,230.024z"/>
	<path fill="#020202" d="M281.609,224.224c0.369,0,0.668,0.301,0.668,0.67c0,0.37-0.299,0.67-0.668,0.67
		c-0.371,0-0.67-0.3-0.67-0.67C280.939,224.525,281.238,224.224,281.609,224.224L281.609,224.224z"/>
	<path fill="#020202" d="M281.609,226.161c0.369,0,0.668,0.3,0.668,0.67c0,0.369-0.299,0.67-0.668,0.67
		c-0.371,0-0.67-0.301-0.67-0.67C280.939,226.459,281.238,226.161,281.609,226.161L281.609,226.161z"/>
	<path fill="#020202" d="M281.609,228.089c0.369,0,0.668,0.3,0.668,0.67s-0.299,0.67-0.668,0.67c-0.371,0-0.67-0.3-0.67-0.67
		S281.238,228.089,281.609,228.089L281.609,228.089z"/>
	<path fill="#020202" d="M281.609,230.024c0.369,0,0.668,0.302,0.668,0.671s-0.299,0.671-0.668,0.671
		c-0.371,0-0.67-0.302-0.67-0.671S281.238,230.024,281.609,230.024L281.609,230.024z"/>
	<path fill="#020202" d="M281.609,231.959c0.369,0,0.668,0.3,0.668,0.67c0,0.364-0.299,0.665-0.668,0.665
		c-0.371,0-0.67-0.301-0.67-0.665C280.939,232.259,281.238,231.959,281.609,231.959L281.609,231.959z"/>
	<path fill="#020202" d="M285.172,224.224c0.371,0,0.67,0.301,0.67,0.67c0,0.37-0.299,0.67-0.67,0.67c-0.369,0-0.668-0.3-0.668-0.67
		C284.504,224.525,284.803,224.224,285.172,224.224L285.172,224.224z"/>
	<path fill="#020202" d="M285.172,226.161c0.371,0,0.67,0.3,0.67,0.67c0,0.369-0.299,0.67-0.67,0.67
		c-0.369,0-0.668-0.301-0.668-0.67C284.504,226.459,284.803,226.161,285.172,226.161L285.172,226.161z"/>
	<path fill="#020202" d="M285.172,228.089c0.371,0,0.67,0.3,0.67,0.67s-0.299,0.67-0.67,0.67c-0.369,0-0.668-0.3-0.668-0.67
		S284.803,228.089,285.172,228.089L285.172,228.089z"/>
	<path fill="#020202" d="M286.953,224.224c0.371,0,0.672,0.301,0.672,0.67c0,0.37-0.301,0.67-0.672,0.67
		c-0.369,0-0.67-0.3-0.67-0.67C286.283,224.525,286.584,224.224,286.953,224.224L286.953,224.224z"/>
	<path fill="#020202" d="M286.953,226.161c0.371,0,0.672,0.3,0.672,0.67c0,0.369-0.301,0.67-0.672,0.67
		c-0.369,0-0.67-0.301-0.67-0.67C286.283,226.459,286.584,226.161,286.953,226.161L286.953,226.161z"/>
	<path fill="#020202" d="M288.734,224.224c0.371,0,0.67,0.301,0.67,0.67c0,0.37-0.299,0.67-0.67,0.67c-0.369,0-0.67-0.3-0.67-0.67
		C288.064,224.525,288.363,224.224,288.734,224.224L288.734,224.224z"/>
</g>
<rect x="319.205" y="226.189" fill="none" width="20.5" height="5.14"/>
<text transform="matrix(1 0 0 1 319.2051 230.377)" fill="#231F20" font-family="'MyriadPro-Regular'" font-size="5.8981">ePub</text>
<rect x="256.25" y="496.189" fill="none" width="20.5" height="5.14"/>
<text transform="matrix(1 0 0 1 256.25 500.377)" fill="#231F20" font-family="'MyriadPro-Regular'" font-size="5.8981">e-book</text>
<g>
	<path fill="#8DC63F" d="M352.045,234.951h-37.464v-63.026h48.37v51.315h-10.906V234.951z M316.382,233.15h33.864v-11.71h10.904
		v-47.716h-44.769V233.15z"/>
	<path fill="#8DC63F" d="M355.391,224.224c0.369,0,0.67,0.301,0.67,0.67c0,0.37-0.301,0.67-0.67,0.67s-0.67-0.3-0.67-0.67
		C354.721,224.525,355.021,224.224,355.391,224.224L355.391,224.224z"/>
	<path fill="#8DC63F" d="M355.391,226.161c0.369,0,0.67,0.3,0.67,0.67c0,0.369-0.301,0.67-0.67,0.67s-0.67-0.301-0.67-0.67
		C354.721,226.459,355.021,226.161,355.391,226.161L355.391,226.161z"/>
	<path fill="#8DC63F" d="M355.391,228.089c0.369,0,0.67,0.3,0.67,0.67s-0.301,0.67-0.67,0.67s-0.67-0.3-0.67-0.67
		S355.021,228.089,355.391,228.089L355.391,228.089z"/>
	<path fill="#8DC63F" d="M355.391,230.024c0.369,0,0.67,0.302,0.67,0.671s-0.301,0.671-0.67,0.671s-0.67-0.302-0.67-0.671
		S355.021,230.024,355.391,230.024L355.391,230.024z"/>
	<path fill="#8DC63F" d="M353.609,224.224c0.369,0,0.668,0.301,0.668,0.67c0,0.37-0.299,0.67-0.668,0.67
		c-0.371,0-0.67-0.3-0.67-0.67C352.939,224.525,353.238,224.224,353.609,224.224L353.609,224.224z"/>
	<path fill="#8DC63F" d="M353.609,226.161c0.369,0,0.668,0.3,0.668,0.67c0,0.369-0.299,0.67-0.668,0.67
		c-0.371,0-0.67-0.301-0.67-0.67C352.939,226.459,353.238,226.161,353.609,226.161L353.609,226.161z"/>
	<path fill="#8DC63F" d="M353.609,228.089c0.369,0,0.668,0.3,0.668,0.67s-0.299,0.67-0.668,0.67c-0.371,0-0.67-0.3-0.67-0.67
		S353.238,228.089,353.609,228.089L353.609,228.089z"/>
	<path fill="#8DC63F" d="M353.609,230.024c0.369,0,0.668,0.302,0.668,0.671s-0.299,0.671-0.668,0.671
		c-0.371,0-0.67-0.302-0.67-0.671S353.238,230.024,353.609,230.024L353.609,230.024z"/>
	<path fill="#8DC63F" d="M353.609,231.959c0.369,0,0.668,0.3,0.668,0.67c0,0.364-0.299,0.665-0.668,0.665
		c-0.371,0-0.67-0.301-0.67-0.665C352.939,232.259,353.238,231.959,353.609,231.959L353.609,231.959z"/>
	<path fill="#8DC63F" d="M357.172,224.224c0.371,0,0.67,0.301,0.67,0.67c0,0.37-0.299,0.67-0.67,0.67c-0.369,0-0.668-0.3-0.668-0.67
		C356.504,224.525,356.803,224.224,357.172,224.224L357.172,224.224z"/>
	<path fill="#8DC63F" d="M357.172,226.161c0.371,0,0.67,0.3,0.67,0.67c0,0.369-0.299,0.67-0.67,0.67
		c-0.369,0-0.668-0.301-0.668-0.67C356.504,226.459,356.803,226.161,357.172,226.161L357.172,226.161z"/>
	<path fill="#8DC63F" d="M357.172,228.089c0.371,0,0.67,0.3,0.67,0.67s-0.299,0.67-0.67,0.67c-0.369,0-0.668-0.3-0.668-0.67
		S356.803,228.089,357.172,228.089L357.172,228.089z"/>
	<path fill="#8DC63F" d="M358.953,224.224c0.371,0,0.672,0.301,0.672,0.67c0,0.37-0.301,0.67-0.672,0.67
		c-0.369,0-0.67-0.3-0.67-0.67C358.283,224.525,358.584,224.224,358.953,224.224L358.953,224.224z"/>
	<path fill="#8DC63F" d="M358.953,226.161c0.371,0,0.672,0.3,0.672,0.67c0,0.369-0.301,0.67-0.672,0.67
		c-0.369,0-0.67-0.301-0.67-0.67C358.283,226.459,358.584,226.161,358.953,226.161L358.953,226.161z"/>
	<path fill="#8DC63F" d="M360.734,224.224c0.371,0,0.67,0.301,0.67,0.67c0,0.37-0.299,0.67-0.67,0.67c-0.369,0-0.67-0.3-0.67-0.67
		C360.064,224.525,360.363,224.224,360.734,224.224L360.734,224.224z"/>
</g>
<g>
	<path fill="#8DC63F" d="M290.232,504.951h-37.464v-63.027h48.37v51.316h-10.906V504.951z M254.569,503.15h33.864v-11.711h10.904
		v-47.715h-44.769V503.15z"/>
	<path fill="#8DC63F" d="M293.578,494.225c0.369,0,0.67,0.301,0.67,0.67s-0.301,0.67-0.67,0.67s-0.67-0.301-0.67-0.67
		S293.209,494.225,293.578,494.225L293.578,494.225z"/>
	<path fill="#8DC63F" d="M293.578,496.16c0.369,0,0.67,0.301,0.67,0.67s-0.301,0.67-0.67,0.67s-0.67-0.301-0.67-0.67
		C292.908,496.459,293.209,496.16,293.578,496.16L293.578,496.16z"/>
	<path fill="#8DC63F" d="M293.578,498.09c0.369,0,0.67,0.299,0.67,0.67c0,0.369-0.301,0.67-0.67,0.67s-0.67-0.301-0.67-0.67
		C292.908,498.389,293.209,498.09,293.578,498.09L293.578,498.09z"/>
	<path fill="#8DC63F" d="M293.578,500.023c0.369,0,0.67,0.303,0.67,0.672s-0.301,0.67-0.67,0.67s-0.67-0.301-0.67-0.67
		S293.209,500.023,293.578,500.023L293.578,500.023z"/>
	<path fill="#8DC63F" d="M291.797,494.225c0.369,0,0.668,0.301,0.668,0.67s-0.299,0.67-0.668,0.67c-0.371,0-0.67-0.301-0.67-0.67
		S291.426,494.225,291.797,494.225L291.797,494.225z"/>
	<path fill="#8DC63F" d="M291.797,496.16c0.369,0,0.668,0.301,0.668,0.67s-0.299,0.67-0.668,0.67c-0.371,0-0.67-0.301-0.67-0.67
		C291.127,496.459,291.426,496.16,291.797,496.16L291.797,496.16z"/>
	<path fill="#8DC63F" d="M291.797,498.09c0.369,0,0.668,0.299,0.668,0.67c0,0.369-0.299,0.67-0.668,0.67
		c-0.371,0-0.67-0.301-0.67-0.67C291.127,498.389,291.426,498.09,291.797,498.09L291.797,498.09z"/>
	<path fill="#8DC63F" d="M291.797,500.023c0.369,0,0.668,0.303,0.668,0.672s-0.299,0.67-0.668,0.67c-0.371,0-0.67-0.301-0.67-0.67
		S291.426,500.023,291.797,500.023L291.797,500.023z"/>
	<path fill="#8DC63F" d="M291.797,501.959c0.369,0,0.668,0.301,0.668,0.67c0,0.365-0.299,0.666-0.668,0.666
		c-0.371,0-0.67-0.301-0.67-0.666C291.127,502.26,291.426,501.959,291.797,501.959L291.797,501.959z"/>
	<path fill="#8DC63F" d="M295.359,494.225c0.371,0,0.67,0.301,0.67,0.67s-0.299,0.67-0.67,0.67c-0.369,0-0.668-0.301-0.668-0.67
		S294.99,494.225,295.359,494.225L295.359,494.225z"/>
	<path fill="#8DC63F" d="M295.359,496.16c0.371,0,0.67,0.301,0.67,0.67s-0.299,0.67-0.67,0.67c-0.369,0-0.668-0.301-0.668-0.67
		C294.691,496.459,294.99,496.16,295.359,496.16L295.359,496.16z"/>
	<path fill="#8DC63F" d="M295.359,498.09c0.371,0,0.67,0.299,0.67,0.67c0,0.369-0.299,0.67-0.67,0.67
		c-0.369,0-0.668-0.301-0.668-0.67C294.691,498.389,294.99,498.09,295.359,498.09L295.359,498.09z"/>
	<path fill="#8DC63F" d="M297.141,494.225c0.371,0,0.672,0.301,0.672,0.67s-0.301,0.67-0.672,0.67c-0.369,0-0.67-0.301-0.67-0.67
		S296.771,494.225,297.141,494.225L297.141,494.225z"/>
	<path fill="#8DC63F" d="M297.141,496.16c0.371,0,0.672,0.301,0.672,0.67s-0.301,0.67-0.672,0.67c-0.369,0-0.67-0.301-0.67-0.67
		C296.471,496.459,296.771,496.16,297.141,496.16L297.141,496.16z"/>
	<path fill="#8DC63F" d="M298.922,494.225c0.371,0,0.67,0.301,0.67,0.67s-0.299,0.67-0.67,0.67c-0.369,0-0.67-0.301-0.67-0.67
		S298.551,494.225,298.922,494.225L298.922,494.225z"/>
</g>
<rect x="201" y="396.237" fill="none" width="46" height="6.932"/>
<text transform="matrix(1 0 0 1 200.999 400.4258)" fill="#231F20" font-family="'MyriadPro-Regular'" font-size="5.8981">HTML/CSS</text>
<g>
	<path fill="#020202" d="M247.919,404.371h-51.315V356h63.024v37.465h-11.71L247.919,404.371L247.919,404.371z M198.403,402.571
		h47.716v-10.905h11.71V357.8h-59.426V402.571z"/>
	<path fill="#020202" d="M248.903,396.811c0,0.369,0.301,0.67,0.67,0.67c0.37,0,0.67-0.301,0.67-0.67c0-0.37-0.3-0.67-0.67-0.67
		C249.204,396.141,248.903,396.44,248.903,396.811L248.903,396.811z"/>
	<path fill="#020202" d="M250.838,396.811c0,0.369,0.301,0.67,0.67,0.67s0.67-0.301,0.67-0.67c0-0.37-0.301-0.67-0.67-0.67
		S250.838,396.44,250.838,396.811L250.838,396.811z"/>
	<path fill="#020202" d="M252.769,396.811c0,0.369,0.3,0.67,0.67,0.67s0.67-0.301,0.67-0.67c0-0.37-0.3-0.67-0.67-0.67
		S252.769,396.44,252.769,396.811L252.769,396.811z"/>
	<path fill="#020202" d="M254.703,396.811c0,0.369,0.301,0.67,0.67,0.67c0.37,0,0.671-0.301,0.671-0.67
		c0-0.37-0.301-0.67-0.671-0.67S254.703,396.44,254.703,396.811L254.703,396.811z"/>
	<path fill="#020202" d="M248.903,395.03c0,0.369,0.301,0.669,0.67,0.669c0.37,0,0.67-0.3,0.67-0.669c0-0.37-0.3-0.67-0.67-0.67
		C249.204,394.36,248.903,394.659,248.903,395.03L248.903,395.03z"/>
	<path fill="#020202" d="M250.838,395.03c0,0.369,0.301,0.669,0.67,0.669s0.67-0.3,0.67-0.669c0-0.37-0.301-0.67-0.67-0.67
		S250.838,394.659,250.838,395.03L250.838,395.03z"/>
	<path fill="#020202" d="M252.769,395.03c0,0.369,0.3,0.669,0.67,0.669s0.67-0.3,0.67-0.669c0-0.37-0.3-0.67-0.67-0.67
		S252.769,394.659,252.769,395.03L252.769,395.03z"/>
	<path fill="#020202" d="M254.703,395.03c0,0.369,0.301,0.669,0.67,0.669c0.37,0,0.671-0.3,0.671-0.669
		c0-0.37-0.301-0.67-0.671-0.67S254.703,394.659,254.703,395.03L254.703,395.03z"/>
	<path fill="#020202" d="M256.639,395.03c0,0.369,0.3,0.669,0.67,0.669c0.363,0,0.665-0.3,0.665-0.669c0-0.37-0.302-0.67-0.665-0.67
		C256.938,394.36,256.639,394.659,256.639,395.03L256.639,395.03z"/>
	<path fill="#020202" d="M248.903,398.592c0,0.37,0.301,0.67,0.67,0.67c0.37,0,0.67-0.3,0.67-0.67s-0.3-0.669-0.67-0.669
		C249.204,397.923,248.903,398.222,248.903,398.592L248.903,398.592z"/>
	<path fill="#020202" d="M250.838,398.592c0,0.37,0.301,0.67,0.67,0.67s0.67-0.3,0.67-0.67s-0.301-0.669-0.67-0.669
		S250.838,398.222,250.838,398.592L250.838,398.592z"/>
	<path fill="#020202" d="M252.769,398.592c0,0.37,0.3,0.67,0.67,0.67s0.67-0.3,0.67-0.67s-0.3-0.669-0.67-0.669
		S252.769,398.222,252.769,398.592L252.769,398.592z"/>
	<path fill="#020202" d="M248.903,400.373c0,0.37,0.301,0.671,0.67,0.671c0.37,0,0.67-0.301,0.67-0.671c0-0.369-0.3-0.67-0.67-0.67
		C249.204,399.704,248.903,400.004,248.903,400.373L248.903,400.373z"/>
	<path fill="#020202" d="M250.838,400.373c0,0.37,0.301,0.671,0.67,0.671s0.67-0.301,0.67-0.671c0-0.369-0.301-0.67-0.67-0.67
		C251.139,399.704,250.838,400.004,250.838,400.373L250.838,400.373z"/>
	<path fill="#020202" d="M248.903,402.156c0,0.369,0.301,0.67,0.67,0.67c0.37,0,0.67-0.301,0.67-0.67c0-0.37-0.3-0.67-0.67-0.67
		C249.204,401.486,248.903,401.785,248.903,402.156L248.903,402.156z"/>
</g>
<rect x="282.026" y="367.727" fill="none" width="102.857" height="31.979"/>
<text transform="matrix(1 0 0 1 282.0273 374.7109)" fill="#1B181C" font-family="'Ubuntu-Light'" font-size="9">Programmeren</text>
<rect x="289.442" y="396.237" fill="none" width="46" height="6.932"/>
<text transform="matrix(1 0 0 1 289.4414 400.4258)" fill="#231F20" font-family="'MyriadPro-Regular'" font-size="5.8981">HTML/CSS</text>
<rect x="323.416" y="482.831" fill="none" width="46" height="6.932"/>
<text transform="matrix(1 0 0 1 323.415 487.0195)" fill="#231F20" font-family="'MyriadPro-Regular'" font-size="5.8981">Website</text>
<g>
	<path fill="#020202" d="M336.361,404.371h-51.315V356h63.024v37.465h-11.71L336.361,404.371L336.361,404.371z M286.846,402.571
		h47.716v-10.905h11.71V357.8h-59.426V402.571z"/>
	<path fill="#020202" d="M337.346,396.811c0,0.369,0.301,0.67,0.67,0.67c0.37,0,0.67-0.301,0.67-0.67c0-0.37-0.3-0.67-0.67-0.67
		C337.646,396.141,337.346,396.44,337.346,396.811L337.346,396.811z"/>
	<path fill="#020202" d="M339.28,396.811c0,0.369,0.301,0.67,0.67,0.67s0.67-0.301,0.67-0.67c0-0.37-0.301-0.67-0.67-0.67
		S339.28,396.44,339.28,396.811L339.28,396.811z"/>
	<path fill="#020202" d="M341.211,396.811c0,0.369,0.3,0.67,0.67,0.67s0.67-0.301,0.67-0.67c0-0.37-0.3-0.67-0.67-0.67
		S341.211,396.44,341.211,396.811L341.211,396.811z"/>
	<path fill="#020202" d="M343.146,396.811c0,0.369,0.301,0.67,0.67,0.67c0.37,0,0.671-0.301,0.671-0.67
		c0-0.37-0.301-0.67-0.671-0.67S343.146,396.44,343.146,396.811L343.146,396.811z"/>
	<path fill="#020202" d="M337.346,395.03c0,0.369,0.301,0.669,0.67,0.669c0.37,0,0.67-0.3,0.67-0.669c0-0.37-0.3-0.67-0.67-0.67
		C337.646,394.36,337.346,394.659,337.346,395.03L337.346,395.03z"/>
	<path fill="#020202" d="M339.28,395.03c0,0.369,0.301,0.669,0.67,0.669s0.67-0.3,0.67-0.669c0-0.37-0.301-0.67-0.67-0.67
		S339.28,394.659,339.28,395.03L339.28,395.03z"/>
	<path fill="#020202" d="M341.211,395.03c0,0.369,0.3,0.669,0.67,0.669s0.67-0.3,0.67-0.669c0-0.37-0.3-0.67-0.67-0.67
		S341.211,394.659,341.211,395.03L341.211,395.03z"/>
	<path fill="#020202" d="M343.146,395.03c0,0.369,0.301,0.669,0.67,0.669c0.37,0,0.671-0.3,0.671-0.669
		c0-0.37-0.301-0.67-0.671-0.67S343.146,394.659,343.146,395.03L343.146,395.03z"/>
	<path fill="#020202" d="M345.081,395.03c0,0.369,0.3,0.669,0.67,0.669c0.363,0,0.665-0.3,0.665-0.669c0-0.37-0.302-0.67-0.665-0.67
		C345.381,394.36,345.081,394.659,345.081,395.03L345.081,395.03z"/>
	<path fill="#020202" d="M337.346,398.592c0,0.37,0.301,0.67,0.67,0.67c0.37,0,0.67-0.3,0.67-0.67s-0.3-0.669-0.67-0.669
		C337.646,397.923,337.346,398.222,337.346,398.592L337.346,398.592z"/>
	<path fill="#020202" d="M339.28,398.592c0,0.37,0.301,0.67,0.67,0.67s0.67-0.3,0.67-0.67s-0.301-0.669-0.67-0.669
		S339.28,398.222,339.28,398.592L339.28,398.592z"/>
	<path fill="#020202" d="M341.211,398.592c0,0.37,0.3,0.67,0.67,0.67s0.67-0.3,0.67-0.67s-0.3-0.669-0.67-0.669
		S341.211,398.222,341.211,398.592L341.211,398.592z"/>
	<path fill="#020202" d="M337.346,400.373c0,0.37,0.301,0.671,0.67,0.671c0.37,0,0.67-0.301,0.67-0.671c0-0.369-0.3-0.67-0.67-0.67
		C337.646,399.704,337.346,400.004,337.346,400.373L337.346,400.373z"/>
	<path fill="#020202" d="M339.28,400.373c0,0.37,0.301,0.671,0.67,0.671s0.67-0.301,0.67-0.671c0-0.369-0.301-0.67-0.67-0.67
		C339.581,399.704,339.28,400.004,339.28,400.373L339.28,400.373z"/>
	<path fill="#020202" d="M337.346,402.156c0,0.369,0.301,0.67,0.67,0.67c0.37,0,0.67-0.301,0.67-0.67c0-0.37-0.3-0.67-0.67-0.67
		C337.646,401.486,337.346,401.785,337.346,402.156L337.346,402.156z"/>
</g>
<g>
	<path fill="#8DC63F" d="M371.361,490.295h-51.315v-48.371h63.024v37.465h-11.71L371.361,490.295L371.361,490.295z M321.846,488.495
		h47.716V477.59h11.71v-33.866h-59.426V488.495z"/>
	<path fill="#8DC63F" d="M372.346,482.734c0,0.369,0.301,0.67,0.67,0.67c0.37,0,0.67-0.301,0.67-0.67c0-0.37-0.3-0.67-0.67-0.67
		C372.646,482.064,372.346,482.364,372.346,482.734L372.346,482.734z"/>
	<path fill="#8DC63F" d="M374.28,482.734c0,0.369,0.301,0.67,0.67,0.67s0.67-0.301,0.67-0.67c0-0.37-0.301-0.67-0.67-0.67
		S374.28,482.364,374.28,482.734L374.28,482.734z"/>
	<path fill="#8DC63F" d="M376.211,482.734c0,0.369,0.3,0.67,0.67,0.67s0.67-0.301,0.67-0.67c0-0.37-0.3-0.67-0.67-0.67
		S376.211,482.364,376.211,482.734L376.211,482.734z"/>
	<path fill="#8DC63F" d="M378.146,482.734c0,0.369,0.301,0.67,0.67,0.67c0.37,0,0.671-0.301,0.671-0.67
		c0-0.37-0.301-0.67-0.671-0.67S378.146,482.364,378.146,482.734L378.146,482.734z"/>
	<path fill="#8DC63F" d="M372.346,480.954c0,0.369,0.301,0.669,0.67,0.669c0.37,0,0.67-0.3,0.67-0.669c0-0.37-0.3-0.67-0.67-0.67
		C372.646,480.284,372.346,480.583,372.346,480.954L372.346,480.954z"/>
	<path fill="#8DC63F" d="M374.28,480.954c0,0.369,0.301,0.669,0.67,0.669s0.67-0.3,0.67-0.669c0-0.37-0.301-0.67-0.67-0.67
		S374.28,480.583,374.28,480.954L374.28,480.954z"/>
	<path fill="#8DC63F" d="M376.211,480.954c0,0.369,0.3,0.669,0.67,0.669s0.67-0.3,0.67-0.669c0-0.37-0.3-0.67-0.67-0.67
		S376.211,480.583,376.211,480.954L376.211,480.954z"/>
	<path fill="#8DC63F" d="M378.146,480.954c0,0.369,0.301,0.669,0.67,0.669c0.37,0,0.671-0.3,0.671-0.669
		c0-0.37-0.301-0.67-0.671-0.67S378.146,480.583,378.146,480.954L378.146,480.954z"/>
	<path fill="#8DC63F" d="M380.081,480.954c0,0.369,0.3,0.669,0.67,0.669c0.363,0,0.665-0.3,0.665-0.669
		c0-0.37-0.302-0.67-0.665-0.67C380.381,480.284,380.081,480.583,380.081,480.954L380.081,480.954z"/>
	<path fill="#8DC63F" d="M372.346,484.516c0,0.37,0.301,0.67,0.67,0.67c0.37,0,0.67-0.3,0.67-0.67s-0.3-0.669-0.67-0.669
		C372.646,483.847,372.346,484.146,372.346,484.516L372.346,484.516z"/>
	<path fill="#8DC63F" d="M374.28,484.516c0,0.37,0.301,0.67,0.67,0.67s0.67-0.3,0.67-0.67s-0.301-0.669-0.67-0.669
		S374.28,484.146,374.28,484.516L374.28,484.516z"/>
	<path fill="#8DC63F" d="M376.211,484.516c0,0.37,0.3,0.67,0.67,0.67s0.67-0.3,0.67-0.67s-0.3-0.669-0.67-0.669
		S376.211,484.146,376.211,484.516L376.211,484.516z"/>
	<path fill="#8DC63F" d="M372.346,486.297c0,0.37,0.301,0.671,0.67,0.671c0.37,0,0.67-0.301,0.67-0.671c0-0.369-0.3-0.67-0.67-0.67
		C372.646,485.628,372.346,485.928,372.346,486.297L372.346,486.297z"/>
	<path fill="#8DC63F" d="M374.28,486.297c0,0.37,0.301,0.671,0.67,0.671s0.67-0.301,0.67-0.671c0-0.369-0.301-0.67-0.67-0.67
		C374.581,485.628,374.28,485.928,374.28,486.297L374.28,486.297z"/>
	<path fill="#8DC63F" d="M372.346,488.08c0,0.369,0.301,0.67,0.67,0.67c0.37,0,0.67-0.301,0.67-0.67c0-0.37-0.3-0.67-0.67-0.67
		C372.646,487.41,372.346,487.709,372.346,488.08L372.346,488.08z"/>
</g>
<g>
	<line fill="none" stroke="#1B181C" stroke-width="3.3579" x1="59.32" y1="39.5" x2="67.551" y2="39.5"/>
	<polygon fill="#1B181C" points="71.456,39.5 65.003,33.5 65.003,45.5 	"/>
</g>
<g>
	<line fill="none" stroke="#1B181C" stroke-width="3.3579" x1="154.073" y1="39.5" x2="162.304" y2="39.5"/>
	<polygon fill="#1B181C" points="166.209,39.5 159.756,33.5 159.756,45.5 	"/>
</g>
<rect x="234.854" y="175.924" fill="none" width="102.857" height="31.978"/>
<text transform="matrix(1 0 0 1 234.8555 182.9082)"><tspan x="0" y="0" fill="#1B181C" font-family="'Ubuntu-Light'" font-size="9">Corrections</tspan><tspan x="0" y="11" fill="#1B181C" font-family="'Ubuntu-Light'" font-size="9">Design adjustments</tspan></text>
</svg>
