<?xml version="1.0" encoding="utf-8"?>
<!-- Generator: Adobe Illustrator 16.0.0, SVG Export Plug-In . SVG Version: 6.00 Build 0)  -->
<!DOCTYPE svg PUBLIC "-//W3C//DTD SVG 1.1//EN" "http://www.w3.org/Graphics/SVG/1.1/DTD/svg11.dtd">
<svg version="1.1" id="Layer_1" xmlns="http://www.w3.org/2000/svg" xmlns:xlink="http://www.w3.org/1999/xlink" x="0px" y="0px"
	 width="40px" height="40px" viewBox="0 0 40 40" enable-background="new 0 0 40 40" xml:space="preserve">
<g>
	<g>
		<path fill="#5C5C5C" d="M9.112,35.191c0.754,0,1.291-0.312,1.739-0.782l0.513,0.462c-0.555,0.617-1.229,1.036-2.274,1.036
			c-1.519,0-2.756-1.165-2.756-2.884c0-1.604,1.122-2.886,2.65-2.886c1.632,0,2.573,1.304,2.573,2.927c0,0.076,0,0.162-0.012,0.258
			H7.167C7.283,34.519,8.138,35.191,9.112,35.191z M10.726,32.711c-0.09-1.003-0.666-1.882-1.766-1.882
			c-0.959,0-1.687,0.806-1.793,1.882H10.726z"/>
		<path fill="#5C5C5C" d="M9.09,36.007c-1.628,0-2.855-1.282-2.855-2.983c0-1.702,1.182-2.985,2.75-2.985
			c1.599,0,2.673,1.216,2.673,3.026c0,0.08,0,0.17-0.012,0.27l-0.011,0.088H7.279c0.143,1.004,0.867,1.67,1.833,1.67
			c0.649,0,1.179-0.239,1.667-0.752l0.067-0.07l0.659,0.594l-0.067,0.074C10.774,35.678,10.05,36.007,9.09,36.007z M8.984,30.237
			c-1.454,0-2.551,1.198-2.551,2.786c0,1.587,1.143,2.784,2.656,2.784c0.866,0,1.527-0.288,2.133-0.93l-0.367-0.33
			c-0.51,0.507-1.065,0.743-1.743,0.743c-1.109,0-1.931-0.787-2.045-1.959l-0.011-0.109h4.397c0.004-0.058,0.004-0.109,0.004-0.158
			C11.458,31.374,10.464,30.237,8.984,30.237z M10.835,32.811H7.057l0.011-0.109c0.113-1.143,0.909-1.972,1.893-1.972
			c1.025,0,1.758,0.774,1.865,1.973L10.835,32.811z M7.279,32.611h3.335c-0.107-0.833-0.591-1.683-1.654-1.683
			C8.099,30.929,7.42,31.615,7.279,32.611z"/>
	</g>
	<g>
		<path fill="#5C5C5C" d="M15.8,33.141h-1.818v2.637h-0.841V28.3h2.798c1.688,0,2.795,0.9,2.795,2.383
			C18.733,32.306,17.39,33.141,15.8,33.141z M15.872,29.08h-1.891v3.289h1.848c1.241,0,2.053-0.661,2.053-1.654
			C17.882,29.638,17.082,29.08,15.872,29.08z M26.383,32.581c0,2.182-1.247,3.315-3.116,3.315c-1.85,0-3.112-1.134-3.112-3.248V28.3
			h0.845v4.295c0,1.613,0.859,2.522,2.29,2.522c1.376,0,2.257-0.833,2.257-2.469v-4.348h0.837V32.581z M33.919,30.17
			c0,0.982-0.598,1.486-1.188,1.74c0.887,0.269,1.603,0.78,1.603,1.818c0,1.292-1.075,2.049-2.713,2.049h-3.376v-7.477h3.236
			C32.955,28.301,33.919,29.025,33.919,30.17z M33.064,30.286c0-0.746-0.591-1.226-1.657-1.226h-2.328v2.574h2.266
			C32.357,31.635,33.064,31.173,33.064,30.286z M33.479,33.674c0-0.823-0.682-1.293-1.987-1.293h-2.413v2.64h2.563
			C32.776,35.021,33.479,34.519,33.479,33.674z"/>
		<path fill="#5C5C5C" d="M23.267,35.996c-1.981,0-3.212-1.282-3.212-3.348V28.2h1.044v4.395c0,1.539,0.799,2.423,2.19,2.423
			c1.371,0,2.157-0.864,2.157-2.369v-4.447h1.036v4.38C26.482,34.72,25.28,35.996,23.267,35.996z M20.254,28.399v4.249
			c0,1.972,1.127,3.148,3.013,3.148c1.917,0,3.017-1.173,3.017-3.216V28.4h-0.638v4.248c0,1.633-0.858,2.568-2.356,2.568
			c-1.496,0-2.39-0.979-2.39-2.622v-4.195H20.254z M31.621,35.877h-3.476v-7.676h3.336c1.541,0,2.537,0.772,2.537,1.969
			c0,0.933-0.515,1.444-1.023,1.723c0.955,0.354,1.438,0.971,1.438,1.836C34.434,35.054,33.356,35.877,31.621,35.877z
			 M28.345,35.678h3.276c1.611,0,2.613-0.747,2.613-1.949c0-0.847-0.501-1.41-1.532-1.723l-0.262-0.079l0.252-0.108
			c0.747-0.322,1.127-0.877,1.127-1.648c0-1.074-0.918-1.77-2.338-1.77h-3.137V35.678z M14.081,35.877h-1.04V28.2h2.897
			c1.759,0,2.895,0.975,2.895,2.482c0,1.767-1.523,2.558-3.033,2.558h-1.719V35.877z M13.24,35.678h0.642v-2.637H15.8
			c1.308,0,2.834-0.618,2.834-2.358c0-1.408-1.033-2.283-2.695-2.283H13.24V35.678z M31.643,35.12h-2.663v-2.839h2.513
			c1.346,0,2.087,0.494,2.087,1.393C33.579,34.566,32.837,35.12,31.643,35.12z M29.179,34.921h2.464
			c1.088,0,1.737-0.467,1.737-1.247c0-0.986-1.026-1.193-1.888-1.193h-2.313V34.921z M15.829,32.469h-1.947V28.98h1.99
			c1.321,0,2.109,0.648,2.109,1.734C17.981,31.764,17.117,32.469,15.829,32.469z M14.081,32.27h1.748
			c1.187,0,1.953-0.61,1.953-1.555c0-0.976-0.696-1.535-1.91-1.535h-1.791V32.27z M31.345,31.734h-2.365v-2.773h2.428
			c1.101,0,1.757,0.495,1.757,1.325C33.164,31.18,32.467,31.734,31.345,31.734z M29.179,31.535h2.166c1.015,0,1.62-0.467,1.62-1.249
			c0-0.705-0.583-1.126-1.558-1.126h-2.229V31.535z"/>
	</g>
</g>
<g>
	<path fill="#5C5C5C" d="M20.5,21.099l-6.599-6.6L20.5,7.901l2.201,2.199l-4.4,4.398L20.5,16.7l6.601-6.6L21.35,4.354
		c-0.47-0.471-1.229-0.471-1.699,0l-9.297,9.297c-0.47,0.47-0.47,1.23,0,1.7l9.297,9.296c0.471,0.472,1.229,0.472,1.699,0
		l9.299-9.296c0.469-0.47,0.469-1.23,0-1.7l-1.349-1.35L20.5,21.099z"/>
	<path fill="#5C5C5C" d="M20.5,25.101c-0.347,0-0.674-0.137-0.92-0.384l-9.297-9.296c-0.508-0.508-0.508-1.333,0-1.841l9.297-9.297
		C19.826,4.036,20.153,3.9,20.5,3.9c0.348,0,0.675,0.136,0.92,0.383l5.822,5.817l-0.071,0.07L20.5,16.842l-0.07-0.071l-2.271-2.271
		l0.071-0.07l4.329-4.328L20.5,8.043l-6.457,6.456l6.457,6.458l8.8-8.798l1.419,1.421c0.507,0.508,0.507,1.333,0,1.841l-9.299,9.296
		C21.175,24.964,20.848,25.101,20.5,25.101z M20.5,4.101c-0.293,0-0.57,0.115-0.779,0.323l-9.297,9.297c-0.43,0.43-0.43,1.13,0,1.56
		l9.297,9.296C19.93,24.785,20.207,24.9,20.5,24.9c0.294,0,0.57-0.115,0.778-0.324l9.3-9.296c0.429-0.43,0.429-1.13,0-1.56
		L29.3,12.442l-8.8,8.798l-0.07-0.071l-6.67-6.67l0.071-0.07L20.5,7.76l0.07,0.071l2.272,2.27l-0.071,0.07l-4.329,4.328l2.058,2.06
		l6.459-6.458l-5.68-5.677C21.07,4.216,20.794,4.101,20.5,4.101z"/>
</g>
</svg>
