<?xml version="1.0" encoding="utf-8"?>
<!-- Generator: Adobe Illustrator 16.0.0, SVG Export Plug-In . SVG Version: 6.00 Build 0)  -->
<!DOCTYPE svg PUBLIC "-//W3C//DTD SVG 1.1//EN" "http://www.w3.org/Graphics/SVG/1.1/DTD/svg11.dtd">
<svg version="1.1" id="Layer_1" xmlns="http://www.w3.org/2000/svg" xmlns:xlink="http://www.w3.org/1999/xlink" x="0px" y="0px"
	 width="40px" height="40px" viewBox="0 0 40 40" enable-background="new 0 0 40 40" xml:space="preserve">
<g>
	<path fill="#5C5C5C" d="M20.225,8.011c-2.574-0.024-4.68,2.043-4.705,4.616c-0.024,2.574,2.043,4.681,4.617,4.705
		s4.681-2.043,4.705-4.617C24.867,10.142,22.799,8.034,20.225,8.011z M20.159,15.031c-1.304-0.012-2.35-1.079-2.338-2.383
		c0.012-1.303,1.079-2.35,2.382-2.336c1.304,0.012,2.35,1.078,2.339,2.381C22.528,13.997,21.462,15.043,20.159,15.031z"/>
	<path fill="#5C5C5C" d="M20.112,3.078c-0.016,0-0.031,0-0.046,0l0,0h-9.582v9.628c0,5.317,4.31,9.629,9.628,9.629
		s9.627-4.312,9.627-9.629S25.43,3.078,20.112,3.078z M20.119,19.32c-3.692-0.035-6.656-3.056-6.622-6.747s3.056-6.656,6.747-6.622
		c3.691,0.035,6.656,3.057,6.622,6.748C26.831,16.391,23.811,19.355,20.119,19.32z"/>
</g>
<g>
	<path fill="#5C5C5C" d="M4.855,25.262c0.464,0,0.854,0.389,0.854,0.855c0,0.465-0.39,0.854-0.854,0.854
		C4.388,26.971,4,26.582,4,26.117C4,25.65,4.388,25.262,4.855,25.262z M4.855,35.016c-0.436,0-0.731-0.326-0.731-0.73v-5.529
		c0-0.402,0.311-0.729,0.731-0.729c0.419,0,0.729,0.326,0.729,0.729v5.529C5.583,34.689,5.289,35.016,4.855,35.016z"/>
	<path fill="#5C5C5C" d="M10.119,35.078c-0.978,0-1.848-0.311-2.469-0.793c-0.217-0.17-0.311-0.403-0.311-0.605
		c0-0.311,0.248-0.514,0.56-0.514c0.248,0,0.403,0.095,0.574,0.218c0.418,0.312,1.01,0.606,1.754,0.606
		c0.838,0,1.289-0.311,1.289-0.793c0-0.527-0.435-0.729-1.522-1.023c-1.91-0.514-2.609-1.166-2.609-2.283
		c0-1.164,1.072-1.926,2.75-1.926c0.636,0,1.351,0.154,1.925,0.434c0.42,0.203,0.714,0.45,0.714,0.762
		c0,0.279-0.154,0.543-0.558,0.543c-0.203,0-0.404-0.093-0.636-0.218c-0.436-0.231-0.917-0.356-1.476-0.356
		c-0.777,0-1.305,0.203-1.305,0.744c0,0.53,0.467,0.701,1.585,1.027c1.677,0.48,2.547,0.932,2.547,2.189
		C12.93,34.238,11.968,35.078,10.119,35.078z"/>
	<path fill="#5C5C5C" d="M17.15,35.078c-0.979,0-1.849-0.311-2.47-0.793c-0.218-0.17-0.312-0.403-0.312-0.605
		c0-0.311,0.25-0.514,0.56-0.514c0.248,0,0.403,0.095,0.574,0.218c0.42,0.312,1.01,0.606,1.756,0.606
		c0.839,0,1.289-0.311,1.289-0.793c0-0.527-0.436-0.729-1.522-1.023c-1.911-0.514-2.609-1.166-2.609-2.283
		c0-1.164,1.071-1.926,2.749-1.926c0.637,0,1.351,0.154,1.926,0.434c0.419,0.203,0.714,0.45,0.714,0.762
		c0,0.279-0.156,0.543-0.56,0.543c-0.202,0-0.403-0.093-0.636-0.218c-0.435-0.231-0.917-0.356-1.476-0.356
		c-0.776,0-1.304,0.203-1.304,0.744c0,0.53,0.466,0.701,1.584,1.027c1.677,0.48,2.546,0.932,2.546,2.189
		C19.959,34.238,18.997,35.078,17.15,35.078z"/>
	<path fill="#5C5C5C" d="M21.371,31.832v-3.076c0-0.402,0.324-0.729,0.729-0.729c0.403,0,0.729,0.326,0.729,0.729v3.246
		c0,0.979,0.761,1.74,1.787,1.74c1.024,0,1.8-0.762,1.8-1.74v-3.246c0-0.402,0.327-0.729,0.73-0.729s0.73,0.326,0.73,0.729v3.076
		c0,1.816-1.382,3.246-3.261,3.246C22.736,35.078,21.371,33.648,21.371,31.832z"/>
	<path fill="#5C5C5C" d="M29.494,31.832v-3.076c0-0.402,0.326-0.729,0.73-0.729c0.402,0,0.729,0.326,0.729,0.729v3.246
		c0,0.979,0.76,1.74,1.786,1.74c1.024,0,1.802-0.762,1.802-1.74v-3.246c0-0.402,0.328-0.729,0.73-0.729
		c0.403,0,0.729,0.326,0.729,0.729v3.076c0,1.816-1.382,3.246-3.261,3.246C30.861,35.078,29.494,33.648,29.494,31.832z"/>
</g>
</svg>
