<?xml version="1.0" encoding="utf-8"?>
<!-- Generator: Adobe Illustrator 16.0.0, SVG Export Plug-In . SVG Version: 6.00 Build 0)  -->
<!DOCTYPE svg PUBLIC "-//W3C//DTD SVG 1.1//EN" "http://www.w3.org/Graphics/SVG/1.1/DTD/svg11.dtd">
<svg version="1.1" id="Layer_1" xmlns="http://www.w3.org/2000/svg" xmlns:xlink="http://www.w3.org/1999/xlink" x="0px" y="0px"
	 width="40px" height="40px" viewBox="0 0 40 40" enable-background="new 0 0 40 40" xml:space="preserve">
<path fill="#5C5C5C" d="M25.799,4H6.414v32h28V12.533L25.799,4z M32.261,33.867H8.568V6.133h16.154V13.6h7.538V33.867z"/>
<g>
	<path fill="#5C5C5C" d="M10.708,23.743c0.517-0.089,1.243-0.154,2.267-0.154c1.033,0,1.782,0.198,2.276,0.605
		c0.474,0.362,0.782,0.979,0.782,1.705c0,0.737-0.231,1.353-0.672,1.761c-0.572,0.527-1.43,0.781-2.42,0.781
		c-0.221,0-0.418-0.012-0.572-0.045v2.662h-1.661V23.743z M12.369,27.109c0.143,0.033,0.319,0.044,0.561,0.044
		c0.892,0,1.441-0.45,1.441-1.199c0-0.682-0.462-1.089-1.309-1.089c-0.342,0-0.572,0.021-0.693,0.055V27.109z"/>
	<path fill="#5C5C5C" d="M17.533,23.754c0.615-0.109,1.419-0.165,2.255-0.165c1.419,0,2.344,0.231,3.048,0.771
		c0.77,0.572,1.254,1.496,1.254,2.816c0,1.419-0.518,2.398-1.222,3.003c-0.781,0.649-1.979,0.958-3.433,0.958
		c-0.868,0-1.496-0.056-1.902-0.111V23.754z M19.205,29.794c0.143,0.033,0.385,0.033,0.583,0.033c1.529,0.011,2.53-0.825,2.53-2.597
		c0-1.596-0.902-2.354-2.354-2.354c-0.363,0-0.616,0.033-0.759,0.066V29.794z"/>
	<path fill="#5C5C5C" d="M25.787,23.645h4.521v1.375h-2.85v1.693h2.662v1.365h-2.662v2.98h-1.672V23.645z"/>
</g>
</svg>
