<?xml version="1.0" encoding="utf-8"?>
<!-- Generator: Adobe Illustrator 16.0.0, SVG Export Plug-In . SVG Version: 6.00 Build 0)  -->
<!DOCTYPE svg PUBLIC "-//W3C//DTD SVG 1.1//EN" "http://www.w3.org/Graphics/SVG/1.1/DTD/svg11.dtd">
<svg version="1.1" id="Layer_1" xmlns="http://www.w3.org/2000/svg" xmlns:xlink="http://www.w3.org/1999/xlink" x="0px" y="0px"
	 width="40px" height="40px" viewBox="0 0 40 40" enable-background="new 0 0 40 40" xml:space="preserve">
<g>
	<path fill="#5C5C5C" d="M25.3,18.594c-0.006-2.13-0.188-4.446-5.515-6.224c-3.473-1.156-3.78-2.12-3.78-2.893
		c0-0.771,0.732-2.043,2.392-2.043c1.658,0,2.044,0.424,2.044,0.424c0,3.201,2.121,3.009,2.7,3.009c0.578,0,2.159-0.464,2.159-2.315
		S23.487,4,18.665,4c-4.821,0-6.75,2.932-6.75,5.825c0,2.893,1.273,4.051,4.629,5.632s4.822,2.198,4.822,3.472
		s-1.312,2.12-3.048,2.12c-1.736,0-2.469-0.692-2.469-0.692s0.271-0.542,0.271-0.928c0-0.385-0.309-2.236-2.47-2.236
		c-2.159,0-2.507,1.93-2.507,2.508s0.965,4.898,7.078,4.898c2.153,0,3.658-0.445,4.717-1.112c-0.173-0.426-0.272-0.889-0.272-1.376
		C22.666,20.445,23.782,19.052,25.3,18.594z"/>
	<path fill="#5C5C5C" d="M26.355,19.622c-0.412,0-0.795,0.109-1.138,0.287c-0.799,0.414-1.352,1.239-1.352,2.201
		c0,0.193,0.027,0.379,0.068,0.56c0.255,1.104,1.239,1.93,2.421,1.93c1.373,0,2.486-1.114,2.486-2.489
		C28.842,20.737,27.729,19.622,26.355,19.622z"/>
</g>
<g>
	<path fill="#5C5C5C" d="M7.266,29.348c0,1.271,0.844,1.195,1.073,1.195c0.23,0,0.858-0.185,0.858-0.921
		c0-0.735-0.721-1.809-2.638-1.809c-1.915,0-2.683,1.164-2.683,2.315c0,1.148,0.507,1.609,1.842,2.237
		c1.332,0.629,1.915,0.874,1.915,1.381c0,0.505-0.521,0.843-1.211,0.843c-0.691,0-0.981-0.276-0.981-0.276s0.106-0.215,0.106-0.368
		s-0.121-0.89-0.98-0.89c-0.858,0-0.996,0.768-0.996,0.997S3.954,36,6.385,36c2.43,0,2.812-1.41,2.812-2.284
		s0.011-1.842-2.192-2.576c-1.379-0.46-1.501-0.843-1.501-1.149s0.29-0.813,0.95-0.813C7.113,29.177,7.266,29.348,7.266,29.348z"/>
	<path fill="#5C5C5C" d="M11.252,33.202c0-0.605,0.413-1.526,1.257-1.526c0.444,0,0.566,0.23,0.566,0.23
		c-0.551,0.721,0.031,1.365,0.782,1.365c0.752,0,1.028-0.645,1.028-1.059s-0.46-1.809-2.377-1.809c-1.916,0-2.774,1.594-2.774,2.867
		c0,1.272,1.181,2.729,2.667,2.729s2.239,0,2.239,0v-1.396c0,0-1.174,0-2.108,0C11.772,34.604,11.252,33.892,11.252,33.202z"/>
	<g>
		<g>
			<polygon fill="#5C5C5C" points="20.92,34.604 20.368,34.604 20.368,36 22.535,36 22.535,35.229 22.535,34.604 22.535,30.404 
				20.92,30.404 			"/>
			<rect x="20.92" y="28.32" fill="#5C5C5C" width="1.615" height="1.395"/>
		</g>
	</g>
	<path fill="#5C5C5C" d="M19.223,30.404c-0.26,0-0.567-0.131-1.645,1.027v-1.027h-2.167v1.395h0.776v2.806h-0.776V36h3.169v-1.396
		h-0.776v-2.014l0.738-0.738c0.106,0.216,0.344,0.452,0.773,0.452c0.567,0,0.874-0.275,0.874-0.95
		C20.189,30.779,19.753,30.404,19.223,30.404z"/>
	<path fill="#5C5C5C" d="M25.733,30.401v0.003h-0.808V28.32h-1.614V36h0.255h1.359h0.808v-0.009c1.491,0,2.616-1.229,2.616-2.794
		C28.35,31.631,27.225,30.401,25.733,30.401z M25.733,34.608v-0.004h-0.808v-2.806h0.808l0,0c0.564,0,0.992,0.618,0.992,1.405
		S26.298,34.608,25.733,34.608z"/>
	<g>
		<circle fill="#5C5C5C" cx="34.669" cy="35.011" r="0.989"/>
	</g>
	<path fill="#5C5C5C" d="M33.251,35.011c0-0.502,0.263-0.944,0.658-1.195v-5.498h-1.614l0,0h-0.751v1.397h0.751v0.689h-0.808v-0.003
		c-1.491,0-2.616,1.229-2.616,2.796c0,1.565,1.125,2.794,2.616,2.794V36h0.808h1.359C33.405,35.743,33.251,35.395,33.251,35.011z
		 M32.295,34.604h-0.808v0.004c-0.564,0-0.99-0.617-0.99-1.404s0.426-1.405,0.99-1.405l0,0h0.808V34.604z"/>
</g>
</svg>
