<?xml version="1.0" encoding="utf-8"?>
<!-- Generator: Adobe Illustrator 16.0.0, SVG Export Plug-In . SVG Version: 6.00 Build 0)  -->
<!DOCTYPE svg PUBLIC "-//W3C//DTD SVG 1.1//EN" "http://www.w3.org/Graphics/SVG/1.1/DTD/svg11.dtd">
<svg version="1.1" id="Layer_1" xmlns="http://www.w3.org/2000/svg" xmlns:xlink="http://www.w3.org/1999/xlink" x="0px" y="0px"
	 width="419.529px" height="595.279px" viewBox="0 0 419.529 595.279" enable-background="new 0 0 419.529 595.279"
	 xml:space="preserve">
<rect x="8" y="9" width="223.244" height="18.654"/>
<rect x="-315" y="12" fill="none" width="273" height="603.999"/>
<text transform="matrix(1 0 0 1 -314.9998 20.5354)" font-family="'Ubuntu-Light'" font-size="11">### One flowchart of all the three &quot;flows&quot;: Traditio</text>
<text transform="matrix(1 0 0 1 -47.0452 20.5354)" font-family="'Ubuntu-Light'" font-size="11">-</text>
<text transform="matrix(1 0 0 1 -314.9998 42.5354)" font-family="'Ubuntu-Light'" font-size="11">al, XML, Markdown &lt;!-- Loes &amp; Kimmy --&gt;</text>
<text transform="matrix(1 0 0 1 -314.9998 86.5354)" font-family="'Ubuntu-Light'" font-size="11">TR: The current workflow of desktop publishing, from </text>
<text transform="matrix(1 0 0 1 -314.9998 108.5354)" font-family="'Ubuntu-Light'" font-size="11">Word to inDesign, has certain advantages.</text>
<text transform="matrix(1 0 0 1 -314.9998 152.5354)" font-family="'Ubuntu-Light'" font-size="11">XML: The original XML document is your fundament, </text>
<text transform="matrix(1 0 0 1 -314.9998 174.5354)" font-family="'Ubuntu-Light'" font-size="11">your manuscript, and from there you can create </text>
<text transform="matrix(1 0 0 1 -314.9998 196.5354)" font-family="'Ubuntu-Light'" font-size="11">translations for every medium. Thus, if there is a </text>
<text transform="matrix(1 0 0 1 -314.9998 218.5354)" font-family="'Ubuntu-Light'" font-size="11">misspelling or another error - you change this in your </text>
<text transform="matrix(1 0 0 1 -314.9998 240.5354)" font-family="'Ubuntu-Light'" font-size="11">XML document and you make new translation to the </text>
<text transform="matrix(1 0 0 1 -314.9998 262.5354)" font-family="'Ubuntu-Light'" font-size="11">different media that you have produced. For forma</text>
<text transform="matrix(1 0 0 1 -51.0955 262.5354)" font-family="'Ubuntu-Light'" font-size="11">-</text>
<text transform="matrix(1 0 0 1 -314.9998 284.5354)" font-family="'Ubuntu-Light'" font-size="11">ting you would need to add a second step, like for </text>
<text transform="matrix(1 0 0 1 -314.9998 306.5354)" font-family="'Ubuntu-Light'" font-size="11">instance CSS stylesheets. However, because XML is so </text>
<text transform="matrix(1 0 0 1 -314.9998 328.5354)" font-family="'Ubuntu-Light'" font-size="11">detailed it becomes too difficult to work with as the </text>
<text transform="matrix(1 0 0 1 -314.9998 350.5354)" font-family="'Ubuntu-Light'" font-size="11">tagging systems become very complex.</text>
<text transform="matrix(1 0 0 1 -314.9998 394.5354)" font-family="'Ubuntu-Light'" font-size="11">MD: &lt;!-- not perfect, but the most easy to work with </text>
<text transform="matrix(1 0 0 1 -314.9998 416.5354)" font-family="'Ubuntu-Light'" font-size="11">and creates structured texts hat allow for hybrid </text>
<text transform="matrix(1 0 0 1 -314.9998 438.5354)" font-family="'Ubuntu-Light'" font-size="11">publishing--&gt;</text>
<rect x="10" y="11" fill="none" width="169.742" height="60.652"/>
<text transform="matrix(1 0 0 1 9.9998 24.968)" fill="#FFFFFF" font-family="'Ubuntu-Medium'" font-size="18">WORKFLOW MARKDOWN</text>
<text transform="matrix(1 0 0 1 9.9998 44.968)" font-family="'Ubuntu-Medium'" font-size="18">MARKDOWN</text>
<text transform="matrix(1 0 0 1 47.3499 44.968)" font-family="'Ubuntu-Medium'" font-size="18" letter-spacing="29"> </text>
<text transform="matrix(1 0 0 1 155.3904 44.968)" font-family="'Ubuntu-Medium'" font-size="18">Print</text>
<text transform="matrix(1 0 0 1 9.9998 64.968)" font-family="'Ubuntu-Medium'" font-size="18" letter-spacing="30">  </text>
<text transform="matrix(1 0 0 1 155.3904 64.968)" font-family="'Ubuntu-Medium'" font-size="18">eBook</text>
<path fill="#020202" d="M136.365,166.16H86.493v-64.521h49.871L136.365,166.16L136.365,166.16z M88.493,164.16h45.871v-60.521
	H88.493V164.16L88.493,164.16z"/>
<rect x="92.988" y="109.91" fill="none" width="81.075" height="37.891"/>
<text transform="matrix(1 0 0 1 92.9875 116.8938)" fill="#1B181C" font-family="'Ubuntu-Light'" font-size="9">XML document</text>
<text transform="matrix(1 0 0 1 92.9875 127.8938)" fill="#1B181C" font-family="'Ubuntu-Light'" font-size="9">Easy Structured text</text>
<text transform="matrix(1 0 0 1 92.9875 138.8938)" fill="#1B181C" font-family="'Ubuntu-Light'" font-size="9">Corrections</text>
<rect x="50.117" y="199.432" fill="none" width="102.856" height="31.979"/>
<text transform="matrix(1 0 0 1 50.1169 206.4153)" fill="#1B181C" font-family="'Ubuntu-Light'" font-size="9">Design</text>
<rect x="135.756" y="201.379" fill="none" width="64.916" height="34.084"/>
<text transform="matrix(1 0 0 1 135.7556 208.3625)" fill="#1B181C" font-family="'Ubuntu-Light'" font-size="9">Ebook Specific </text>
<text transform="matrix(1 0 0 1 135.7556 219.3625)" fill="#1B181C" font-family="'Ubuntu-Light'" font-size="9">Design</text>
<g>
	<line fill="none" stroke="#1B181C" stroke-width="3.3579" x1="94.354" y1="179.575" x2="88.533" y2="185.395"/>
	<polygon fill="#1B181C" points="85.771,188.156 94.578,187.836 86.092,179.351 	"/>
</g>
<g>
	<line fill="none" stroke="#1B181C" stroke-width="3.3579" x1="123.795" y1="179.573" x2="129.616" y2="185.393"/>
	<polygon fill="#1B181C" points="132.377,188.155 132.057,179.349 123.571,187.834 	"/>
</g>
<g>
	<line fill="none" stroke="#1B181C" stroke-width="3.3579" x1="283.315" y1="251.302" x2="289.136" y2="257.122"/>
	<polygon fill="#1B181C" points="291.896,259.884 291.575,251.078 283.092,259.563 	"/>
</g>
<g>
	<line fill="none" stroke="#1B181C" stroke-width="3.3579" x1="296.382" y1="218.004" x2="304.613" y2="218.003"/>
	<polygon fill="#1B181C" points="308.518,218.004 302.064,212.004 302.064,224.003 	"/>
</g>
<g>
	<line fill="none" stroke="#1B181C" stroke-width="3.3579" x1="297.559" y1="167.77" x2="303.38" y2="161.948"/>
	<polygon fill="#1B181C" points="306.141,159.188 297.335,159.509 305.819,167.994 	"/>
</g>
<g>
	<line fill="none" stroke="#1B181C" stroke-width="3.3579" x1="246.311" y1="252.452" x2="246.311" y2="260.684"/>
	<polygon fill="#1B181C" points="246.311,264.588 252.311,258.135 240.311,258.135 	"/>
</g>
<g>
	<line fill="none" stroke="#1B181C" stroke-width="3.3579" x1="198.105" y1="218.421" x2="206.336" y2="218.421"/>
	<polygon fill="#1B181C" points="210.242,218.421 203.789,212.421 203.789,224.421 	"/>
</g>
<g>
	<line fill="none" stroke="#1B181C" stroke-width="3.3579" x1="106.82" y1="358.936" x2="106.82" y2="367.167"/>
	<polygon fill="#1B181C" points="106.82,371.072 112.82,364.619 100.82,364.619 	"/>
</g>
<g>
	<g>
		<path fill="#010101" d="M50.327,253.399c0-0.223,0.148-0.379,0.358-0.379s0.354,0.156,0.354,0.379c0,0.216-0.14,0.378-0.359,0.378
			C50.471,253.777,50.327,253.615,50.327,253.399z"/>
		<path fill="#010101" d="M52.282,249.992c0.006,0.18-0.127,0.323-0.337,0.323c-0.187,0-0.316-0.146-0.316-0.323
			c0-0.188,0.138-0.33,0.33-0.33C52.156,249.662,52.282,249.806,52.282,249.992z M51.693,253.709v-2.902h0.528v2.902H51.693z"/>
		<path fill="#010101" d="M53.099,251.593c0-0.3-0.006-0.545-0.022-0.786h0.468l0.03,0.48h0.012
			c0.144-0.276,0.479-0.545,0.959-0.545c0.399,0,1.023,0.238,1.023,1.233v1.733h-0.526v-1.673c0-0.469-0.174-0.857-0.671-0.857
			c-0.35,0-0.618,0.246-0.708,0.54c-0.023,0.066-0.036,0.156-0.036,0.246v1.745h-0.528V251.593L53.099,251.593z"/>
		<path fill="#010101" d="M58.935,249.453v3.508c0,0.258,0.006,0.551,0.024,0.749h-0.476l-0.022-0.503h-0.012
			c-0.162,0.323-0.518,0.569-0.989,0.569c-0.702,0-1.241-0.595-1.241-1.477c-0.006-0.965,0.594-1.56,1.301-1.56
			c0.444,0,0.744,0.21,0.876,0.442h0.014v-1.73L58.935,249.453L58.935,249.453z M58.407,251.99c0-0.065-0.008-0.155-0.024-0.223
			c-0.078-0.336-0.366-0.611-0.761-0.611c-0.546,0-0.87,0.479-0.87,1.122c0,0.587,0.288,1.072,0.856,1.072
			c0.354,0,0.679-0.232,0.773-0.63c0.018-0.071,0.023-0.144,0.023-0.228v-0.503H58.407z"/>
		<path fill="#010101" d="M62.318,249.453v3.508c0,0.258,0.008,0.551,0.023,0.749h-0.474l-0.023-0.503h-0.012
			c-0.162,0.323-0.518,0.569-0.99,0.569c-0.701,0-1.241-0.595-1.241-1.477c-0.006-0.965,0.595-1.56,1.301-1.56
			c0.444,0,0.744,0.21,0.875,0.442h0.014v-1.73L62.318,249.453L62.318,249.453z M61.791,251.99c0-0.065-0.006-0.155-0.024-0.223
			c-0.078-0.336-0.366-0.611-0.762-0.611c-0.546,0-0.87,0.479-0.87,1.122c0,0.587,0.288,1.072,0.858,1.072
			c0.354,0,0.677-0.232,0.771-0.63c0.02-0.071,0.024-0.144,0.024-0.228L61.791,251.99L61.791,251.99z"/>
	</g>
	<g>
		<path fill="#020202" d="M95.937,258.698H46.064v-64.521h49.872L95.937,258.698L95.937,258.698z M48.064,256.698h45.872v-60.521
			H48.064V256.698L48.064,256.698z"/>
		<g>
			<path fill="#020202" d="M90.175,255.481c-0.369,0-0.67-0.302-0.67-0.67c0-0.37,0.301-0.671,0.67-0.671
				c0.37,0,0.67,0.301,0.67,0.671C90.845,255.179,90.545,255.481,90.175,255.481L90.175,255.481z"/>
			<path fill="#020202" d="M90.175,253.544c-0.369,0-0.67-0.3-0.67-0.67c0-0.369,0.301-0.67,0.67-0.67c0.37,0,0.67,0.301,0.67,0.67
				C90.845,253.245,90.545,253.544,90.175,253.544L90.175,253.544z"/>
			<path fill="#020202" d="M90.175,251.615c-0.369,0-0.67-0.3-0.67-0.67c0-0.369,0.301-0.67,0.67-0.67c0.37,0,0.67,0.301,0.67,0.67
				C90.845,251.315,90.545,251.615,90.175,251.615L90.175,251.615z"/>
			<path fill="#020202" d="M90.175,249.68c-0.369,0-0.67-0.301-0.67-0.67c0-0.37,0.301-0.671,0.67-0.671
				c0.37,0,0.67,0.301,0.67,0.671C90.845,249.379,90.545,249.68,90.175,249.68L90.175,249.68z"/>
			<path fill="#020202" d="M91.957,255.481c-0.37,0-0.669-0.302-0.669-0.67c0-0.37,0.299-0.671,0.669-0.671s0.67,0.301,0.67,0.671
				C92.627,255.179,92.328,255.481,91.957,255.481L91.957,255.481z"/>
			<path fill="#020202" d="M91.957,253.544c-0.37,0-0.669-0.3-0.669-0.67c0-0.369,0.299-0.67,0.669-0.67s0.67,0.301,0.67,0.67
				C92.627,253.245,92.328,253.544,91.957,253.544L91.957,253.544z"/>
			<path fill="#020202" d="M91.957,251.615c-0.37,0-0.669-0.3-0.669-0.67c0-0.369,0.299-0.67,0.669-0.67s0.67,0.301,0.67,0.67
				C92.627,251.315,92.328,251.615,91.957,251.615L91.957,251.615z"/>
			<path fill="#020202" d="M91.957,249.68c-0.37,0-0.669-0.301-0.669-0.67c0-0.37,0.299-0.671,0.669-0.671s0.67,0.301,0.67,0.671
				C92.627,249.379,92.328,249.68,91.957,249.68L91.957,249.68z"/>
			<path fill="#020202" d="M91.957,247.745c-0.37,0-0.669-0.301-0.669-0.67c0-0.364,0.299-0.665,0.669-0.665s0.67,0.301,0.67,0.665
				C92.627,247.446,92.328,247.745,91.957,247.745L91.957,247.745z"/>
			<path fill="#020202" d="M88.394,255.481c-0.37,0-0.67-0.302-0.67-0.67c0-0.37,0.3-0.671,0.67-0.671s0.669,0.301,0.669,0.671
				C89.062,255.179,88.764,255.481,88.394,255.481L88.394,255.481z"/>
			<path fill="#020202" d="M88.394,253.544c-0.37,0-0.67-0.3-0.67-0.67c0-0.369,0.3-0.67,0.67-0.67s0.669,0.301,0.669,0.67
				C89.062,253.245,88.764,253.544,88.394,253.544L88.394,253.544z"/>
			<path fill="#020202" d="M88.394,251.615c-0.37,0-0.67-0.3-0.67-0.67c0-0.369,0.3-0.67,0.67-0.67s0.669,0.301,0.669,0.67
				C89.063,251.315,88.764,251.615,88.394,251.615L88.394,251.615z"/>
			<path fill="#020202" d="M86.612,255.481c-0.368,0-0.671-0.302-0.671-0.67c0-0.37,0.303-0.671,0.671-0.671
				c0.369,0,0.671,0.301,0.671,0.671C87.282,255.179,86.981,255.481,86.612,255.481L86.612,255.481z"/>
			<path fill="#020202" d="M86.612,253.544c-0.368,0-0.671-0.3-0.671-0.67c0-0.369,0.303-0.67,0.671-0.67
				c0.369,0,0.671,0.301,0.671,0.67C87.282,253.245,86.981,253.544,86.612,253.544L86.612,253.544z"/>
			<path fill="#020202" d="M84.831,255.481c-0.37,0-0.67-0.302-0.67-0.67c0-0.37,0.3-0.671,0.67-0.671s0.67,0.301,0.67,0.671
				C85.501,255.179,85.202,255.481,84.831,255.481L84.831,255.481z"/>
		</g>
	</g>
</g>
<g>
	<line fill="none" stroke="#1B181C" stroke-width="3.3579" x1="49.537" y1="267.65" x2="43.717" y2="273.47"/>
	<polygon fill="#1B181C" points="40.955,276.232 49.761,275.912 41.276,267.425 	"/>
</g>
<g>
	<line fill="none" stroke="#1B181C" stroke-width="3.3579" x1="83.194" y1="267.65" x2="89.013" y2="273.47"/>
	<polygon fill="#1B181C" points="91.776,276.232 91.454,267.425 82.968,275.91 	"/>
</g>
<g>
	<g>
		<path fill="#010101" d="M86.469,340.78c0.252-0.041,0.582-0.077,1.001-0.077c0.517,0,0.896,0.12,1.133,0.336
			c0.224,0.19,0.354,0.485,0.354,0.846c0,0.365-0.107,0.654-0.312,0.863c-0.274,0.293-0.726,0.442-1.233,0.442
			c-0.156,0-0.302-0.006-0.42-0.035v1.619H86.47L86.469,340.78L86.469,340.78z M86.99,342.729c0.112,0.029,0.258,0.043,0.432,0.043
			c0.63,0,1.014-0.307,1.014-0.862c0-0.535-0.378-0.793-0.953-0.793c-0.229,0-0.4,0.018-0.49,0.043L86.99,342.729L86.99,342.729z"/>
		<path fill="#010101" d="M89.661,340.786c0.316-0.048,0.694-0.084,1.107-0.084c0.75,0,1.283,0.174,1.639,0.504
			c0.357,0.33,0.567,0.797,0.567,1.45c0,0.66-0.204,1.199-0.582,1.57c-0.377,0.377-1.001,0.582-1.787,0.582
			c-0.372,0-0.684-0.018-0.946-0.047v-3.977L89.661,340.786L89.661,340.786z M90.183,344.36c0.132,0.023,0.323,0.031,0.527,0.031
			c1.115,0,1.721-0.625,1.721-1.717c0.006-0.951-0.534-1.56-1.637-1.56c-0.271,0-0.475,0.025-0.611,0.056V344.36z"/>
		<path fill="#010101" d="M93.656,340.733h2.178v0.438h-1.655v1.344h1.529v0.432h-1.529v1.828h-0.521v-4.042H93.656z"/>
	</g>
	<path fill="#020202" d="M130.847,349.919H80.975v-64.521h37.568l12.346,14.013L130.847,349.919z M82.976,347.919h45.873
		l0.041-47.753l-11.248-12.768H82.976V347.919z"/>
	<g>
		<polyline fill="#010101" points="118.093,287.274 118.093,299.788 129.889,299.788 		"/>
		<polygon fill="#010101" points="129.889,300.037 117.843,300.037 117.843,287.274 118.343,287.274 118.343,299.538 
			129.889,299.538 		"/>
	</g>
</g>
<g>
	<path fill="#8DC63F" d="M126.957,447.706H80.996v-64.422l46.126-4.684L126.957,447.706z M82.996,445.706h41.966l0.154-64.893
		l-42.12,4.276V445.706z"/>
	<polygon fill="#FFFFFF" points="127.45,447.427 81.996,447.427 81.996,384.406 127.45,382.322 	"/>
	<path fill="#8DC63F" d="M127.95,447.927H81.497v-63.998l46.453-2.129V447.927z M82.496,446.927h44.453v-64.08l-44.453,2.038
		V446.927z"/>
	<rect x="81.996" y="384.688" fill="#FFFFFF" width="47.122" height="63.02"/>
	<path fill="#8DC63F" d="M129.618,448.206H81.496v-64.02h48.122V448.206z M82.496,447.206h46.122v-62.02H82.496V447.206z"/>
	<polygon fill="#FFFFFF" points="81.996,384.688 81.996,447.206 129.868,451.348 129.868,387.156 	"/>
	<path fill="#8DC63F" d="M130.868,452.438l-49.872-4.313v-64.488l49.872,2.571V452.438z M82.996,446.289l45.872,3.969v-62.152
		l-45.872-2.364V446.289z"/>
	<path fill="#010101" d="M86.591,439.897c0.252-0.042,0.582-0.078,1.001-0.078c0.516,0,0.894,0.12,1.133,0.336
		c0.222,0.191,0.354,0.486,0.354,0.847c0,0.365-0.106,0.652-0.312,0.862c-0.275,0.294-0.727,0.444-1.234,0.444
		c-0.155,0-0.301-0.007-0.421-0.036v1.619h-0.521V439.897z M87.113,441.846c0.114,0.03,0.259,0.042,0.434,0.042
		c0.63,0,1.014-0.307,1.014-0.863c0-0.534-0.378-0.792-0.953-0.792c-0.229,0-0.401,0.019-0.491,0.042L87.113,441.846L87.113,441.846
		z"/>
	<path fill="#010101" d="M89.669,441.895c0-0.343-0.007-0.637-0.024-0.905h0.462l0.019,0.569h0.023
		c0.132-0.391,0.45-0.637,0.805-0.637c0.061,0,0.103,0.006,0.149,0.019v0.498c-0.054-0.013-0.107-0.019-0.18-0.019
		c-0.372,0-0.637,0.281-0.708,0.679c-0.013,0.071-0.024,0.154-0.024,0.245v1.548H89.67L89.669,441.895L89.669,441.895z"/>
	<path fill="#010101" d="M92.243,440.172c0.006,0.181-0.126,0.323-0.336,0.323c-0.187,0-0.316-0.144-0.316-0.323
		c0-0.187,0.138-0.33,0.33-0.33C92.117,439.843,92.243,439.986,92.243,440.172z M91.655,443.892v-2.902h0.528v2.902H91.655z"/>
	<path fill="#010101" d="M93.059,441.774c0-0.3-0.006-0.546-0.023-0.785h0.469l0.029,0.479h0.013
		c0.144-0.275,0.479-0.546,0.959-0.546c0.399,0,1.023,0.239,1.023,1.234v1.733h-0.526v-1.674c0-0.469-0.175-0.856-0.672-0.856
		c-0.349,0-0.617,0.246-0.708,0.54c-0.022,0.065-0.035,0.156-0.035,0.246v1.745h-0.528V441.774L93.059,441.774z"/>
	<path fill="#010101" d="M97.001,440.154v0.834h0.755v0.4h-0.755v1.564c0,0.359,0.102,0.563,0.396,0.563
		c0.139,0,0.239-0.02,0.307-0.036l0.023,0.396c-0.103,0.041-0.264,0.071-0.468,0.071c-0.246,0-0.444-0.078-0.57-0.222
		c-0.149-0.156-0.204-0.414-0.204-0.757v-1.58h-0.448v-0.401h0.448v-0.695L97.001,440.154z"/>
	<path fill="#010101" d="M99.641,439.902c0.229-0.048,0.588-0.084,0.953-0.084c0.521,0,0.857,0.09,1.108,0.294
		c0.21,0.156,0.336,0.396,0.336,0.714c0,0.391-0.259,0.731-0.685,0.889v0.013c0.384,0.096,0.834,0.414,0.834,1.014
		c0,0.349-0.138,0.611-0.342,0.811c-0.282,0.259-0.738,0.377-1.396,0.377c-0.359,0-0.637-0.023-0.811-0.048L99.641,439.902
		L99.641,439.902z M100.163,441.559h0.475c0.552,0,0.876-0.288,0.876-0.679c0-0.475-0.36-0.659-0.889-0.659
		c-0.239,0-0.378,0.019-0.462,0.036V441.559z M100.163,443.494c0.103,0.019,0.252,0.024,0.438,0.024c0.54,0,1.038-0.198,1.038-0.786
		c0-0.551-0.475-0.78-1.044-0.78h-0.433L100.163,443.494L100.163,443.494z"/>
	<path fill="#010101" d="M105.525,442.414c0,1.073-0.742,1.541-1.443,1.541c-0.785,0-1.393-0.574-1.393-1.492
		c0-0.972,0.637-1.541,1.439-1.541C104.962,440.922,105.525,441.527,105.525,442.414z M103.223,442.445
		c0,0.636,0.366,1.115,0.881,1.115c0.504,0,0.882-0.475,0.882-1.127c0-0.492-0.245-1.115-0.868-1.115
		C103.493,441.318,103.223,441.895,103.223,442.445z"/>
	<path fill="#010101" d="M108.82,442.414c0,1.073-0.743,1.541-1.444,1.541c-0.785,0-1.393-0.574-1.393-1.492
		c0-0.972,0.637-1.541,1.438-1.541C108.255,440.922,108.82,441.527,108.82,442.414z M106.517,442.445
		c0,0.636,0.365,1.115,0.881,1.115c0.504,0,0.882-0.475,0.882-1.127c0-0.492-0.244-1.115-0.869-1.115
		C106.787,441.318,106.517,441.895,106.517,442.445z"/>
	<path fill="#010101" d="M110.009,442.319h0.012c0.072-0.103,0.174-0.229,0.258-0.33l0.854-1.001h0.635l-1.121,1.193l1.277,1.709
		h-0.644l-1.001-1.394l-0.27,0.301v1.093h-0.522v-4.259h0.522V442.319z"/>
</g>
<g>
	<path fill="#8DC63F" d="M57.811,297.857h10.906v51.314H20.346v-63.025h37.465V297.857z M22.146,347.373h44.771v-47.717H56.012
		v-11.71H22.146V347.373z"/>
	<path fill="#8DC63F" d="M61.157,296.873c-0.37,0-0.671-0.302-0.671-0.67c0-0.37,0.301-0.671,0.671-0.671
		c0.368,0,0.67,0.301,0.67,0.671C61.827,296.572,61.526,296.873,61.157,296.873L61.157,296.873z"/>
	<path fill="#8DC63F" d="M61.157,294.937c-0.37,0-0.671-0.299-0.671-0.67c0-0.369,0.301-0.67,0.671-0.67
		c0.368,0,0.67,0.301,0.67,0.67C61.827,294.637,61.526,294.937,61.157,294.937L61.157,294.937z"/>
	<path fill="#8DC63F" d="M61.157,293.008c-0.37,0-0.671-0.3-0.671-0.67s0.301-0.67,0.671-0.67c0.368,0,0.67,0.3,0.67,0.67
		S61.526,293.008,61.157,293.008L61.157,293.008z"/>
	<path fill="#8DC63F" d="M61.157,291.073c-0.37,0-0.671-0.302-0.671-0.671c0-0.368,0.301-0.671,0.671-0.671
		c0.368,0,0.67,0.303,0.67,0.671C61.827,290.771,61.526,291.073,61.157,291.073L61.157,291.073z"/>
	<path fill="#8DC63F" d="M59.375,296.873c-0.371,0-0.67-0.302-0.67-0.67c0-0.37,0.3-0.671,0.67-0.671s0.669,0.301,0.669,0.671
		C60.043,296.572,59.745,296.873,59.375,296.873L59.375,296.873z"/>
	<path fill="#8DC63F" d="M59.375,294.937c-0.371,0-0.67-0.299-0.67-0.67c0-0.369,0.3-0.67,0.67-0.67s0.669,0.301,0.669,0.67
		C60.043,294.637,59.745,294.937,59.375,294.937L59.375,294.937z"/>
	<path fill="#8DC63F" d="M59.375,293.008c-0.371,0-0.67-0.3-0.67-0.67s0.3-0.67,0.67-0.67s0.669,0.3,0.669,0.67
		S59.745,293.008,59.375,293.008L59.375,293.008z"/>
	<path fill="#8DC63F" d="M59.375,291.073c-0.371,0-0.67-0.302-0.67-0.671c0-0.368,0.3-0.671,0.67-0.671s0.669,0.303,0.669,0.671
		C60.044,290.771,59.745,291.073,59.375,291.073L59.375,291.073z"/>
	<path fill="#8DC63F" d="M59.375,289.138c-0.371,0-0.67-0.3-0.67-0.67c0-0.364,0.3-0.665,0.67-0.665s0.669,0.301,0.669,0.665
		C60.043,288.838,59.745,289.138,59.375,289.138L59.375,289.138z"/>
	<path fill="#8DC63F" d="M62.938,296.873c-0.37,0-0.669-0.302-0.669-0.67c0-0.37,0.299-0.671,0.669-0.671s0.67,0.301,0.67,0.671
		C63.608,296.572,63.308,296.873,62.938,296.873L62.938,296.873z"/>
	<path fill="#8DC63F" d="M62.938,294.937c-0.37,0-0.669-0.299-0.669-0.67c0-0.369,0.299-0.67,0.669-0.67s0.67,0.301,0.67,0.67
		C63.608,294.637,63.308,294.937,62.938,294.937L62.938,294.937z"/>
	<path fill="#8DC63F" d="M62.938,293.008c-0.37,0-0.669-0.3-0.669-0.67s0.299-0.67,0.669-0.67s0.67,0.3,0.67,0.67
		S63.308,293.008,62.938,293.008L62.938,293.008z"/>
	<path fill="#8DC63F" d="M64.719,296.873c-0.369,0-0.67-0.302-0.67-0.67c0-0.37,0.301-0.671,0.67-0.671
		c0.37,0,0.671,0.301,0.671,0.671C65.39,296.572,65.089,296.873,64.719,296.873L64.719,296.873z"/>
	<path fill="#8DC63F" d="M64.719,294.937c-0.369,0-0.67-0.299-0.67-0.67c0-0.369,0.301-0.67,0.67-0.67
		c0.37,0,0.671,0.301,0.671,0.67C65.39,294.637,65.089,294.937,64.719,294.937L64.719,294.937z"/>
	<path fill="#8DC63F" d="M66.5,296.873c-0.371,0-0.67-0.302-0.67-0.67c0-0.37,0.301-0.671,0.67-0.671c0.37,0,0.67,0.301,0.67,0.671
		C67.17,296.572,66.871,296.873,66.5,296.873L66.5,296.873z"/>
</g>
<rect x="24.528" y="340.852" fill="none" width="46" height="6.933"/>
<text transform="matrix(1 0 0 1 24.5261 345.0393)" fill="#231F20" font-family="'MyriadPro-Regular'" font-size="5.8981">Interactive PDF</text>
<g>
	<g>
		<path fill="#8DC63F" d="M355.002,126.483h10.905v51.314h-48.371v-63.025h37.466V126.483z M319.337,175.999h44.771v-47.717h-10.904
			v-11.71h-33.865L319.337,175.999L319.337,175.999z"/>
		<path fill="#8DC63F" d="M358.348,125.499c-0.37,0-0.67-0.302-0.67-0.67c0-0.37,0.3-0.67,0.67-0.67c0.369,0,0.67,0.3,0.67,0.67
			C359.018,125.198,358.717,125.499,358.348,125.499L358.348,125.499z"/>
		<path fill="#8DC63F" d="M358.348,123.562c-0.37,0-0.67-0.299-0.67-0.67c0-0.369,0.3-0.67,0.67-0.67c0.369,0,0.67,0.301,0.67,0.67
			C359.018,123.262,358.717,123.562,358.348,123.562L358.348,123.562z"/>
		<path fill="#8DC63F" d="M358.348,121.633c-0.37,0-0.67-0.3-0.67-0.67s0.3-0.67,0.67-0.67c0.369,0,0.67,0.3,0.67,0.67
			S358.717,121.633,358.348,121.633L358.348,121.633z"/>
		<path fill="#8DC63F" d="M358.348,119.698c-0.37,0-0.67-0.302-0.67-0.671c0-0.368,0.3-0.671,0.67-0.671
			c0.369,0,0.67,0.303,0.67,0.671C359.018,119.397,358.717,119.698,358.348,119.698L358.348,119.698z"/>
		<path fill="#8DC63F" d="M356.565,125.499c-0.371,0-0.67-0.302-0.67-0.67c0-0.37,0.3-0.67,0.67-0.67s0.669,0.3,0.669,0.67
			C357.234,125.198,356.936,125.499,356.565,125.499L356.565,125.499z"/>
		<path fill="#8DC63F" d="M356.565,123.562c-0.371,0-0.67-0.299-0.67-0.67c0-0.369,0.3-0.67,0.67-0.67s0.669,0.301,0.669,0.67
			C357.234,123.262,356.936,123.562,356.565,123.562L356.565,123.562z"/>
		<path fill="#8DC63F" d="M356.565,121.633c-0.371,0-0.67-0.3-0.67-0.67s0.3-0.67,0.67-0.67s0.669,0.3,0.669,0.67
			S356.936,121.633,356.565,121.633L356.565,121.633z"/>
		<path fill="#8DC63F" d="M356.565,119.698c-0.371,0-0.67-0.302-0.67-0.671c0-0.368,0.3-0.671,0.67-0.671s0.669,0.303,0.669,0.671
			C357.234,119.397,356.936,119.698,356.565,119.698L356.565,119.698z"/>
		<path fill="#8DC63F" d="M356.565,117.763c-0.371,0-0.67-0.3-0.67-0.67c0-0.364,0.3-0.665,0.67-0.665s0.669,0.301,0.669,0.665
			C357.234,117.463,356.936,117.763,356.565,117.763L356.565,117.763z"/>
		<path fill="#8DC63F" d="M360.129,125.499c-0.37,0-0.669-0.302-0.669-0.67c0-0.37,0.299-0.67,0.669-0.67
			c0.369,0,0.67,0.3,0.67,0.67C360.799,125.198,360.498,125.499,360.129,125.499L360.129,125.499z"/>
		<path fill="#8DC63F" d="M360.129,123.562c-0.37,0-0.669-0.299-0.669-0.67c0-0.369,0.299-0.67,0.669-0.67
			c0.369,0,0.67,0.301,0.67,0.67C360.799,123.262,360.498,123.562,360.129,123.562L360.129,123.562z"/>
		<path fill="#8DC63F" d="M360.129,121.633c-0.37,0-0.669-0.3-0.669-0.67s0.299-0.67,0.669-0.67c0.369,0,0.67,0.3,0.67,0.67
			S360.498,121.633,360.129,121.633L360.129,121.633z"/>
		<path fill="#8DC63F" d="M361.909,125.499c-0.368,0-0.67-0.302-0.67-0.67c0-0.37,0.301-0.67,0.67-0.67c0.37,0,0.671,0.3,0.671,0.67
			C362.58,125.198,362.28,125.499,361.909,125.499L361.909,125.499z"/>
		<path fill="#8DC63F" d="M361.909,123.562c-0.368,0-0.67-0.299-0.67-0.67c0-0.369,0.301-0.67,0.67-0.67
			c0.37,0,0.671,0.301,0.671,0.67C362.58,123.262,362.28,123.562,361.909,123.562L361.909,123.562z"/>
		<path fill="#8DC63F" d="M363.691,125.499c-0.371,0-0.67-0.302-0.67-0.67c0-0.37,0.301-0.67,0.67-0.67c0.37,0,0.67,0.3,0.67,0.67
			C364.361,125.198,364.062,125.499,363.691,125.499L363.691,125.499z"/>
	</g>
	<rect x="321.719" y="169.477" fill="none" width="46" height="6.933"/>
	<text transform="matrix(1 0 0 1 321.7161 173.6653)" fill="#231F20" font-family="'MyriadPro-Regular'" font-size="5.8981">Interactive PDF</text>
</g>
<rect x="322.16" y="244.703" fill="none" width="20.5" height="5.14"/>
<text transform="matrix(1 0 0 1 322.1614 248.8899)" fill="#231F20" font-family="'MyriadPro-Regular'" font-size="5.8981">ePub</text>
<rect x="210.744" y="323.362" fill="none" width="20.5" height="5.141"/>
<text transform="matrix(1 0 0 1 210.7434 327.55)" fill="#231F20" font-family="'MyriadPro-Regular'" font-size="5.8981">e-book</text>
<g>
	<path fill="#8DC63F" d="M355.001,253.464h-37.464v-63.026h48.369v51.315H355L355.001,253.464L355.001,253.464z M319.339,251.664
		h33.862v-11.71h10.904v-47.717h-44.768L319.339,251.664L319.339,251.664z"/>
	<path fill="#8DC63F" d="M358.347,242.738c0.369,0,0.67,0.302,0.67,0.671s-0.301,0.67-0.67,0.67s-0.67-0.301-0.67-0.67
		S357.978,242.738,358.347,242.738L358.347,242.738z"/>
	<path fill="#8DC63F" d="M358.347,244.674c0.369,0,0.67,0.3,0.67,0.67c0,0.369-0.301,0.67-0.67,0.67s-0.67-0.301-0.67-0.67
		C357.677,244.973,357.978,244.674,358.347,244.674L358.347,244.674z"/>
	<path fill="#8DC63F" d="M358.347,246.603c0.369,0,0.67,0.3,0.67,0.67s-0.301,0.67-0.67,0.67s-0.67-0.3-0.67-0.67
		S357.978,246.603,358.347,246.603L358.347,246.603z"/>
	<path fill="#8DC63F" d="M358.347,248.538c0.369,0,0.67,0.302,0.67,0.671s-0.301,0.671-0.67,0.671s-0.67-0.302-0.67-0.671
		S357.978,248.538,358.347,248.538L358.347,248.538z"/>
	<path fill="#8DC63F" d="M356.565,242.738c0.369,0,0.668,0.302,0.668,0.671s-0.299,0.67-0.668,0.67c-0.371,0-0.67-0.301-0.67-0.67
		C355.896,243.039,356.194,242.738,356.565,242.738L356.565,242.738z"/>
	<path fill="#8DC63F" d="M356.565,244.674c0.369,0,0.668,0.3,0.668,0.67c0,0.369-0.299,0.67-0.668,0.67
		c-0.371,0-0.67-0.301-0.67-0.67C355.896,244.973,356.194,244.674,356.565,244.674L356.565,244.674z"/>
	<path fill="#8DC63F" d="M356.565,246.603c0.369,0,0.668,0.3,0.668,0.67s-0.299,0.67-0.668,0.67c-0.371,0-0.67-0.3-0.67-0.67
		S356.194,246.603,356.565,246.603L356.565,246.603z"/>
	<path fill="#8DC63F" d="M356.565,248.538c0.369,0,0.668,0.302,0.668,0.671s-0.299,0.671-0.668,0.671
		c-0.371,0-0.67-0.302-0.67-0.671S356.194,248.538,356.565,248.538L356.565,248.538z"/>
	<path fill="#8DC63F" d="M356.565,250.473c0.369,0,0.668,0.3,0.668,0.67c0,0.364-0.299,0.665-0.668,0.665
		c-0.371,0-0.67-0.301-0.67-0.665C355.896,250.773,356.194,250.473,356.565,250.473L356.565,250.473z"/>
	<path fill="#8DC63F" d="M360.128,242.738c0.37,0,0.67,0.302,0.67,0.671s-0.3,0.67-0.67,0.67c-0.369,0-0.668-0.301-0.668-0.67
		S359.759,242.738,360.128,242.738L360.128,242.738z"/>
	<path fill="#8DC63F" d="M360.128,244.674c0.37,0,0.67,0.3,0.67,0.67c0,0.369-0.3,0.67-0.67,0.67c-0.369,0-0.668-0.301-0.668-0.67
		C359.46,244.973,359.759,244.674,360.128,244.674L360.128,244.674z"/>
	<path fill="#8DC63F" d="M360.128,246.603c0.37,0,0.67,0.3,0.67,0.67s-0.3,0.67-0.67,0.67c-0.369,0-0.668-0.3-0.668-0.67
		S359.759,246.603,360.128,246.603L360.128,246.603z"/>
	<path fill="#8DC63F" d="M361.908,242.738c0.371,0,0.672,0.302,0.672,0.671s-0.301,0.67-0.672,0.67c-0.369,0-0.67-0.301-0.67-0.67
		S361.539,242.738,361.908,242.738L361.908,242.738z"/>
	<path fill="#8DC63F" d="M361.908,244.674c0.371,0,0.672,0.3,0.672,0.67c0,0.369-0.301,0.67-0.672,0.67
		c-0.369,0-0.67-0.301-0.67-0.67C361.239,244.973,361.539,244.674,361.908,244.674L361.908,244.674z"/>
	<path fill="#8DC63F" d="M363.69,242.738c0.371,0,0.67,0.302,0.67,0.671s-0.299,0.67-0.67,0.67c-0.369,0-0.67-0.301-0.67-0.67
		C363.021,243.039,363.319,242.738,363.69,242.738L363.69,242.738z"/>
</g>
<g>
	<path fill="#8DC63F" d="M244.479,332.123h-37.463v-63.027h48.369v51.316h-10.906V332.123z M208.816,330.322h33.863v-11.711h10.904
		v-47.715h-44.769L208.816,330.322L208.816,330.322z"/>
	<path fill="#8DC63F" d="M247.824,321.396c0.368,0,0.67,0.301,0.67,0.67s-0.302,0.67-0.67,0.67c-0.369,0-0.671-0.301-0.671-0.67
		S247.455,321.396,247.824,321.396L247.824,321.396z"/>
	<path fill="#8DC63F" d="M247.824,323.332c0.368,0,0.67,0.301,0.67,0.67s-0.302,0.67-0.67,0.67c-0.369,0-0.671-0.301-0.671-0.67
		C247.154,323.631,247.455,323.332,247.824,323.332L247.824,323.332z"/>
	<path fill="#8DC63F" d="M247.824,325.262c0.368,0,0.67,0.299,0.67,0.67c0,0.369-0.302,0.67-0.67,0.67
		c-0.369,0-0.671-0.301-0.671-0.67C247.154,325.561,247.455,325.262,247.824,325.262L247.824,325.262z"/>
	<path fill="#8DC63F" d="M247.824,327.195c0.368,0,0.67,0.304,0.67,0.673c0,0.368-0.302,0.67-0.67,0.67
		c-0.369,0-0.671-0.302-0.671-0.67C247.154,327.498,247.455,327.195,247.824,327.195L247.824,327.195z"/>
	<path fill="#8DC63F" d="M246.043,321.396c0.369,0,0.668,0.301,0.668,0.67s-0.299,0.67-0.668,0.67c-0.371,0-0.67-0.301-0.67-0.67
		S245.672,321.396,246.043,321.396L246.043,321.396z"/>
	<path fill="#8DC63F" d="M246.043,323.332c0.369,0,0.668,0.301,0.668,0.67s-0.299,0.67-0.668,0.67c-0.371,0-0.67-0.301-0.67-0.67
		C245.373,323.631,245.672,323.332,246.043,323.332L246.043,323.332z"/>
	<path fill="#8DC63F" d="M246.043,325.262c0.369,0,0.668,0.299,0.668,0.67c0,0.369-0.299,0.67-0.668,0.67
		c-0.371,0-0.67-0.301-0.67-0.67C245.373,325.561,245.672,325.262,246.043,325.262L246.043,325.262z"/>
	<path fill="#8DC63F" d="M246.043,327.195c0.369,0,0.668,0.304,0.668,0.673c0,0.368-0.299,0.67-0.668,0.67
		c-0.371,0-0.67-0.302-0.67-0.67C245.373,327.498,245.672,327.195,246.043,327.195L246.043,327.195z"/>
	<path fill="#8DC63F" d="M246.043,329.131c0.369,0,0.668,0.301,0.668,0.67c0,0.365-0.299,0.666-0.668,0.666
		c-0.371,0-0.67-0.301-0.67-0.666C245.373,329.432,245.672,329.131,246.043,329.131L246.043,329.131z"/>
	<path fill="#8DC63F" d="M249.605,321.396c0.371,0,0.67,0.301,0.67,0.67s-0.299,0.67-0.67,0.67c-0.369,0-0.668-0.301-0.668-0.67
		S249.236,321.396,249.605,321.396L249.605,321.396z"/>
	<path fill="#8DC63F" d="M249.605,323.332c0.371,0,0.67,0.301,0.67,0.67s-0.299,0.67-0.67,0.67c-0.369,0-0.668-0.301-0.668-0.67
		C248.938,323.631,249.236,323.332,249.605,323.332L249.605,323.332z"/>
	<path fill="#8DC63F" d="M249.605,325.262c0.371,0,0.67,0.299,0.67,0.67c0,0.369-0.299,0.67-0.67,0.67
		c-0.369,0-0.668-0.301-0.668-0.67C248.938,325.561,249.236,325.262,249.605,325.262L249.605,325.262z"/>
	<path fill="#8DC63F" d="M251.387,321.396c0.371,0,0.672,0.301,0.672,0.67s-0.301,0.67-0.672,0.67c-0.369,0-0.67-0.301-0.67-0.67
		S251.018,321.396,251.387,321.396L251.387,321.396z"/>
	<path fill="#8DC63F" d="M251.387,323.332c0.371,0,0.672,0.301,0.672,0.67s-0.301,0.67-0.672,0.67c-0.369,0-0.67-0.301-0.67-0.67
		C250.717,323.631,251.018,323.332,251.387,323.332L251.387,323.332z"/>
	<path fill="#8DC63F" d="M253.168,321.396c0.371,0,0.67,0.301,0.67,0.67s-0.299,0.67-0.67,0.67c-0.369,0-0.67-0.301-0.67-0.67
		S252.797,321.396,253.168,321.396L253.168,321.396z"/>
</g>
<rect x="221.994" y="234.473" fill="none" width="46" height="6.932"/>
<text transform="matrix(1 0 0 1 221.9934 238.6604)" fill="#231F20" font-family="'MyriadPro-Regular'" font-size="5.8981">HTML/CSS</text>
<g>
	<path fill="#020202" d="M268.913,242.606h-51.315v-48.371h63.023V231.7h-11.709L268.913,242.606L268.913,242.606z M219.397,240.807
		h47.716v-10.905h11.71v-33.865h-59.426V240.807z"/>
	<path fill="#020202" d="M269.897,235.046c0,0.369,0.301,0.67,0.67,0.67c0.37,0,0.67-0.301,0.67-0.67c0-0.37-0.3-0.67-0.67-0.67
		C270.198,234.376,269.897,234.676,269.897,235.046L269.897,235.046z"/>
	<path fill="#020202" d="M271.832,235.046c0,0.369,0.301,0.67,0.67,0.67s0.67-0.301,0.67-0.67c0-0.37-0.301-0.67-0.67-0.67
		S271.832,234.676,271.832,235.046L271.832,235.046z"/>
	<path fill="#020202" d="M273.763,235.046c0,0.369,0.3,0.67,0.67,0.67s0.67-0.301,0.67-0.67c0-0.37-0.3-0.67-0.67-0.67
		S273.763,234.676,273.763,235.046L273.763,235.046z"/>
	<path fill="#020202" d="M275.697,235.046c0,0.369,0.301,0.67,0.67,0.67c0.37,0,0.671-0.301,0.671-0.67
		c0-0.37-0.301-0.67-0.671-0.67S275.697,234.676,275.697,235.046L275.697,235.046z"/>
	<path fill="#020202" d="M269.897,233.266c0,0.369,0.301,0.669,0.67,0.669c0.37,0,0.67-0.3,0.67-0.669c0-0.37-0.3-0.67-0.67-0.67
		C270.198,232.596,269.897,232.895,269.897,233.266L269.897,233.266z"/>
	<path fill="#020202" d="M271.832,233.266c0,0.369,0.301,0.669,0.67,0.669s0.67-0.3,0.67-0.669c0-0.37-0.301-0.67-0.67-0.67
		S271.832,232.895,271.832,233.266L271.832,233.266z"/>
	<path fill="#020202" d="M273.763,233.266c0,0.369,0.3,0.669,0.67,0.669s0.67-0.3,0.67-0.669c0-0.37-0.3-0.67-0.67-0.67
		S273.763,232.895,273.763,233.266L273.763,233.266z"/>
	<path fill="#020202" d="M275.697,233.266c0,0.369,0.301,0.669,0.67,0.669c0.37,0,0.671-0.3,0.671-0.669
		c0-0.37-0.301-0.67-0.671-0.67S275.697,232.895,275.697,233.266L275.697,233.266z"/>
	<path fill="#020202" d="M277.633,233.266c0,0.369,0.3,0.669,0.67,0.669c0.363,0,0.665-0.3,0.665-0.669
		c0-0.37-0.302-0.67-0.665-0.67C277.933,232.596,277.633,232.895,277.633,233.266L277.633,233.266z"/>
	<path fill="#020202" d="M269.897,236.827c0,0.369,0.301,0.67,0.67,0.67c0.37,0,0.67-0.301,0.67-0.67c0-0.37-0.3-0.669-0.67-0.669
		C270.198,236.158,269.897,236.457,269.897,236.827L269.897,236.827z"/>
	<path fill="#020202" d="M271.832,236.827c0,0.369,0.301,0.67,0.67,0.67s0.67-0.301,0.67-0.67c0-0.37-0.301-0.669-0.67-0.669
		S271.832,236.457,271.832,236.827L271.832,236.827z"/>
	<path fill="#020202" d="M273.763,236.827c0,0.369,0.3,0.67,0.67,0.67s0.67-0.301,0.67-0.67c0-0.37-0.3-0.669-0.67-0.669
		S273.763,236.457,273.763,236.827L273.763,236.827z"/>
	<path fill="#020202" d="M269.897,238.608c0,0.37,0.301,0.671,0.67,0.671c0.37,0,0.67-0.301,0.67-0.671c0-0.369-0.3-0.67-0.67-0.67
		C270.198,237.939,269.897,238.239,269.897,238.608L269.897,238.608z"/>
	<path fill="#020202" d="M271.832,238.608c0,0.37,0.301,0.671,0.67,0.671s0.67-0.301,0.67-0.671c0-0.369-0.301-0.67-0.67-0.67
		C272.133,237.939,271.832,238.239,271.832,238.608L271.832,238.608z"/>
	<path fill="#020202" d="M269.897,240.392c0,0.369,0.301,0.67,0.67,0.67c0.37,0,0.67-0.301,0.67-0.67c0-0.37-0.3-0.67-0.67-0.67
		C270.198,239.722,269.897,240.021,269.897,240.392L269.897,240.392z"/>
</g>
<rect x="305.575" y="309.595" fill="none" width="46" height="6.932"/>
<text transform="matrix(1 0 0 1 305.5754 313.7825)" fill="#231F20" font-family="'MyriadPro-Regular'" font-size="5.8981">Website</text>
<rect x="224.938" y="205.962" fill="none" width="102.857" height="31.979"/>
<text transform="matrix(1 0 0 1 224.9387 212.9456)" fill="#1B181C" font-family="'Ubuntu-Light'" font-size="9">Programmeren</text>
<g>
	<path fill="#020202" d="M179.168,242.606h-51.315v-48.371h63.024V231.7h-11.709V242.606L179.168,242.606z M129.653,240.807h47.717
		v-10.905h11.709v-33.865h-59.426V240.807z"/>
	<path fill="#020202" d="M180.153,235.046c0,0.369,0.302,0.67,0.67,0.67c0.37,0,0.671-0.301,0.671-0.67
		c0-0.37-0.301-0.67-0.671-0.67C180.454,234.376,180.153,234.676,180.153,235.046L180.153,235.046z"/>
	<path fill="#020202" d="M182.087,235.046c0,0.369,0.301,0.67,0.67,0.67s0.67-0.301,0.67-0.67c0-0.37-0.301-0.67-0.67-0.67
		S182.087,234.676,182.087,235.046L182.087,235.046z"/>
	<path fill="#020202" d="M184.018,235.046c0,0.369,0.3,0.67,0.67,0.67s0.67-0.301,0.67-0.67c0-0.37-0.3-0.67-0.67-0.67
		S184.018,234.676,184.018,235.046L184.018,235.046z"/>
	<path fill="#020202" d="M185.953,235.046c0,0.369,0.301,0.67,0.67,0.67c0.37,0,0.67-0.301,0.67-0.67c0-0.37-0.3-0.67-0.67-0.67
		S185.953,234.676,185.953,235.046L185.953,235.046z"/>
	<path fill="#020202" d="M180.153,233.266c0,0.369,0.302,0.669,0.67,0.669c0.37,0,0.671-0.3,0.671-0.669
		c0-0.37-0.301-0.67-0.671-0.67C180.454,232.596,180.153,232.895,180.153,233.266L180.153,233.266z"/>
	<path fill="#020202" d="M182.087,233.266c0,0.369,0.301,0.669,0.67,0.669s0.67-0.3,0.67-0.669c0-0.37-0.301-0.67-0.67-0.67
		S182.087,232.895,182.087,233.266L182.087,233.266z"/>
	<path fill="#020202" d="M184.018,233.266c0,0.369,0.3,0.669,0.67,0.669s0.67-0.3,0.67-0.669c0-0.37-0.3-0.67-0.67-0.67
		S184.018,232.895,184.018,233.266L184.018,233.266z"/>
	<path fill="#020202" d="M185.953,233.266c0,0.369,0.301,0.669,0.67,0.669c0.37,0,0.67-0.3,0.67-0.669c0-0.37-0.3-0.67-0.67-0.67
		S185.953,232.895,185.953,233.266L185.953,233.266z"/>
	<path fill="#020202" d="M187.889,233.266c0,0.369,0.299,0.669,0.67,0.669c0.363,0,0.664-0.3,0.664-0.669
		c0-0.37-0.301-0.67-0.664-0.67C188.188,232.596,187.889,232.895,187.889,233.266L187.889,233.266z"/>
	<path fill="#020202" d="M180.153,236.827c0,0.369,0.302,0.67,0.67,0.67c0.37,0,0.671-0.301,0.671-0.67
		c0-0.37-0.301-0.669-0.671-0.669C180.454,236.158,180.153,236.457,180.153,236.827L180.153,236.827z"/>
	<path fill="#020202" d="M182.087,236.827c0,0.369,0.301,0.67,0.67,0.67s0.67-0.301,0.67-0.67c0-0.37-0.301-0.669-0.67-0.669
		S182.087,236.457,182.087,236.827L182.087,236.827z"/>
	<path fill="#020202" d="M184.018,236.827c0,0.369,0.3,0.67,0.67,0.67s0.67-0.301,0.67-0.67c0-0.37-0.3-0.669-0.67-0.669
		S184.018,236.457,184.018,236.827L184.018,236.827z"/>
	<path fill="#020202" d="M180.153,238.608c0,0.37,0.302,0.671,0.67,0.671c0.37,0,0.671-0.301,0.671-0.671
		c0-0.369-0.301-0.67-0.671-0.67C180.454,237.939,180.153,238.239,180.153,238.608L180.153,238.608z"/>
	<path fill="#020202" d="M182.087,238.608c0,0.37,0.301,0.671,0.67,0.671s0.67-0.301,0.67-0.671c0-0.369-0.301-0.67-0.67-0.67
		C182.388,237.939,182.087,238.239,182.087,238.608L182.087,238.608z"/>
	<path fill="#020202" d="M180.153,240.392c0,0.369,0.302,0.67,0.67,0.67c0.37,0,0.671-0.301,0.671-0.67
		c0-0.37-0.301-0.67-0.671-0.67C180.454,239.722,180.153,240.021,180.153,240.392L180.153,240.392z"/>
</g>
<g>
	<path fill="#8DC63F" d="M353.521,317.059h-51.315v-48.371h63.024v37.465h-11.71L353.521,317.059L353.521,317.059z M304.006,315.259
		h47.716v-10.905h11.71v-33.866h-59.426V315.259z"/>
	<path fill="#8DC63F" d="M354.506,309.498c0,0.369,0.301,0.67,0.67,0.67c0.37,0,0.67-0.301,0.67-0.67c0-0.37-0.3-0.67-0.67-0.67
		C354.807,308.828,354.506,309.128,354.506,309.498L354.506,309.498z"/>
	<path fill="#8DC63F" d="M356.44,309.498c0,0.369,0.301,0.67,0.67,0.67s0.67-0.301,0.67-0.67c0-0.37-0.301-0.67-0.67-0.67
		S356.44,309.128,356.44,309.498L356.44,309.498z"/>
	<path fill="#8DC63F" d="M358.37,309.498c0,0.369,0.301,0.67,0.671,0.67c0.369,0,0.67-0.301,0.67-0.67c0-0.37-0.301-0.67-0.67-0.67
		C358.671,308.828,358.37,309.128,358.37,309.498L358.37,309.498z"/>
	<path fill="#8DC63F" d="M360.306,309.498c0,0.369,0.301,0.67,0.67,0.67c0.37,0,0.671-0.301,0.671-0.67
		c0-0.37-0.301-0.67-0.671-0.67S360.306,309.128,360.306,309.498L360.306,309.498z"/>
	<path fill="#8DC63F" d="M354.506,307.718c0,0.369,0.301,0.669,0.67,0.669c0.37,0,0.67-0.3,0.67-0.669c0-0.37-0.3-0.67-0.67-0.67
		C354.807,307.048,354.506,307.347,354.506,307.718L354.506,307.718z"/>
	<path fill="#8DC63F" d="M356.44,307.718c0,0.369,0.301,0.669,0.67,0.669s0.67-0.3,0.67-0.669c0-0.37-0.301-0.67-0.67-0.67
		S356.44,307.347,356.44,307.718L356.44,307.718z"/>
	<path fill="#8DC63F" d="M358.37,307.718c0,0.369,0.301,0.669,0.671,0.669c0.369,0,0.67-0.3,0.67-0.669c0-0.37-0.301-0.67-0.67-0.67
		C358.671,307.048,358.37,307.347,358.37,307.718L358.37,307.718z"/>
	<path fill="#8DC63F" d="M360.306,307.718c0,0.369,0.301,0.669,0.67,0.669c0.37,0,0.671-0.3,0.671-0.669
		c0-0.37-0.301-0.67-0.671-0.67S360.306,307.347,360.306,307.718L360.306,307.718z"/>
	<path fill="#8DC63F" d="M362.24,307.718c0,0.369,0.3,0.669,0.67,0.669c0.363,0,0.665-0.3,0.665-0.669c0-0.37-0.302-0.67-0.665-0.67
		C362.54,307.048,362.24,307.347,362.24,307.718L362.24,307.718z"/>
	<path fill="#8DC63F" d="M354.506,311.279c0,0.37,0.301,0.671,0.67,0.671c0.37,0,0.67-0.301,0.67-0.671
		c0-0.369-0.3-0.669-0.67-0.669C354.807,310.61,354.506,310.909,354.506,311.279L354.506,311.279z"/>
	<path fill="#8DC63F" d="M356.44,311.279c0,0.37,0.301,0.671,0.67,0.671s0.67-0.301,0.67-0.671c0-0.369-0.301-0.669-0.67-0.669
		S356.44,310.909,356.44,311.279L356.44,311.279z"/>
	<path fill="#8DC63F" d="M358.37,311.279c0,0.37,0.301,0.671,0.671,0.671c0.369,0,0.67-0.301,0.67-0.671
		c0-0.369-0.301-0.669-0.67-0.669C358.671,310.61,358.37,310.909,358.37,311.279L358.37,311.279z"/>
	<path fill="#8DC63F" d="M354.506,313.061c0,0.37,0.301,0.671,0.67,0.671c0.37,0,0.67-0.301,0.67-0.671c0-0.369-0.3-0.67-0.67-0.67
		C354.807,312.392,354.506,312.691,354.506,313.061L354.506,313.061z"/>
	<path fill="#8DC63F" d="M356.44,313.061c0,0.37,0.301,0.671,0.67,0.671s0.67-0.301,0.67-0.671c0-0.369-0.301-0.67-0.67-0.67
		C356.74,312.392,356.44,312.691,356.44,313.061L356.44,313.061z"/>
	<path fill="#8DC63F" d="M354.506,314.844c0,0.369,0.301,0.67,0.67,0.67c0.37,0,0.67-0.301,0.67-0.67c0-0.37-0.3-0.67-0.67-0.67
		C354.807,314.174,354.506,314.473,354.506,314.844L354.506,314.844z"/>
</g>
<g>
	<line fill="none" stroke="#1B181C" stroke-width="3.3579" x1="133.91" y1="39.5" x2="142.141" y2="39.5"/>
	<polygon fill="#1B181C" points="146.047,39.5 139.594,33.5 139.594,45.5 	"/>
</g>
<g>
	<line fill="none" stroke="#1B181C" stroke-width="3.3579" x1="133.525" y1="59.987" x2="141.757" y2="59.987"/>
	<polygon fill="#1B181C" points="145.661,59.987 139.209,53.987 139.209,65.987 	"/>
</g>
</svg>
