<?xml version="1.0" encoding="utf-8"?>
<!-- Generator: Adobe Illustrator 16.0.0, SVG Export Plug-In . SVG Version: 6.00 Build 0)  -->
<!DOCTYPE svg PUBLIC "-//W3C//DTD SVG 1.1//EN" "http://www.w3.org/Graphics/SVG/1.1/DTD/svg11.dtd">
<svg version="1.1" id="Layer_1" xmlns="http://www.w3.org/2000/svg" xmlns:xlink="http://www.w3.org/1999/xlink" x="0px" y="0px"
	 width="419.53px" height="595.28px" viewBox="0 0 419.53 595.28" enable-background="new 0 0 419.53 595.28" xml:space="preserve">
<rect x="8" y="9" width="151.756" height="18.655"/>
<rect x="-315" y="12" fill="none" width="273" height="604"/>
<text transform="matrix(1 0 0 1 -315 20.5356)"><tspan x="0" y="0" font-family="'Ubuntu-Light'" font-size="11">### One flowchart of all the three &quot;flows&quot;: Traditio</tspan><tspan x="267.955" y="0" font-family="'Ubuntu-Light'" font-size="11">-</tspan><tspan x="0" y="22" font-family="'Ubuntu-Light'" font-size="11">al, XML, Markdown &lt;!-- Loes &amp; Kimmy --&gt;</tspan><tspan x="0" y="66" font-family="'Ubuntu-Light'" font-size="11">TR: The current workflow of desktop publishing, from </tspan><tspan x="0" y="88" font-family="'Ubuntu-Light'" font-size="11">Word to inDesign, has certain advantages.</tspan><tspan x="0" y="132" font-family="'Ubuntu-Light'" font-size="11">XML: The original XML document is your fundament, </tspan><tspan x="0" y="154" font-family="'Ubuntu-Light'" font-size="11">your manuscript, and from there you can create </tspan><tspan x="0" y="176" font-family="'Ubuntu-Light'" font-size="11">translations for every medium. Thus, if there is a </tspan><tspan x="0" y="198" font-family="'Ubuntu-Light'" font-size="11">misspelling or another error - you change this in your </tspan><tspan x="0" y="220" font-family="'Ubuntu-Light'" font-size="11">XML document and you make new translation to the </tspan><tspan x="0" y="242" font-family="'Ubuntu-Light'" font-size="11">different media that you have produced. For forma</tspan><tspan x="263.905" y="242" font-family="'Ubuntu-Light'" font-size="11">-</tspan><tspan x="0" y="264" font-family="'Ubuntu-Light'" font-size="11">ting you would need to add a second step, like for </tspan><tspan x="0" y="286" font-family="'Ubuntu-Light'" font-size="11">instance CSS stylesheets. However, because XML is so </tspan><tspan x="0" y="308" font-family="'Ubuntu-Light'" font-size="11">detailed it becomes too difficult to work with as the </tspan><tspan x="0" y="330" font-family="'Ubuntu-Light'" font-size="11">tagging systems become very complex.</tspan><tspan x="0" y="374" font-family="'Ubuntu-Light'" font-size="11">MD: &lt;!-- not perfect, but the most easy to work with </tspan><tspan x="0" y="396" font-family="'Ubuntu-Light'" font-size="11">and creates structured texts hat allow for hybrid </tspan><tspan x="0" y="418" font-family="'Ubuntu-Light'" font-size="11">publishing--&gt;</tspan></text>
<rect x="10" y="11" fill="none" width="169.742" height="60.653"/>
<text transform="matrix(1 0 0 1 10 24.9678)"><tspan x="0" y="0" fill="#FFFFFF" font-family="'Ubuntu-Medium'" font-size="18">WORKFLOW XML</tspan><tspan x="0" y="20" font-family="'Ubuntu-Medium'" font-size="18">XML</tspan><tspan x="37.35" y="20" font-family="'Ubuntu-Medium'" font-size="18" letter-spacing="30">	</tspan><tspan x="72" y="20" font-family="'Ubuntu-Medium'" font-size="18">Print</tspan><tspan x="0" y="40" font-family="'Ubuntu-Medium'" font-size="18" letter-spacing="31">		</tspan><tspan x="72" y="40" font-family="'Ubuntu-Medium'" font-size="18">eBook</tspan></text>
<path fill="#020202" d="M136.365,166.16H86.493v-64.521h49.872V166.16L136.365,166.16z M88.493,164.16h45.872v-60.521H88.493V164.16
	L88.493,164.16z"/>
<rect x="92.988" y="109.91" fill="none" width="81.075" height="37.891"/>
<text transform="matrix(1 0 0 1 92.9878 116.894)"><tspan x="0" y="0" fill="#1B181C" font-family="'Ubuntu-Light'" font-size="9">XML document</tspan><tspan x="0" y="11" fill="#1B181C" font-family="'Ubuntu-Light'" font-size="9">Structured text</tspan><tspan x="0" y="22" fill="#1B181C" font-family="'Ubuntu-Light'" font-size="9">Corrections</tspan></text>
<rect x="39.117" y="198.432" fill="none" width="102.857" height="31.978"/>
<text transform="matrix(1 0 0 1 39.1172 205.4155)" fill="#1B181C" font-family="'Ubuntu-Light'" font-size="9">Design</text>
<rect x="159.756" y="200.379" fill="none" width="64.916" height="34.084"/>
<text transform="matrix(1 0 0 1 159.7559 207.3628)"><tspan x="0" y="0" fill="#1B181C" font-family="'Ubuntu-Light'" font-size="9">Ebook Specific </tspan><tspan x="0" y="11" fill="#1B181C" font-family="'Ubuntu-Light'" font-size="9">Design</tspan></text>
<g>
	<line fill="none" stroke="#1B181C" stroke-width="3.3579" x1="83.354" y1="178.575" x2="77.533" y2="184.395"/>
	<polygon fill="#1B181C" points="74.771,187.156 83.578,186.836 75.092,178.351 	"/>
</g>
<g>
	<line fill="none" stroke="#1B181C" stroke-width="3.3579" x1="137.795" y1="178.573" x2="143.616" y2="184.393"/>
	<polygon fill="#1B181C" points="146.377,187.155 146.057,178.349 137.571,186.834 	"/>
</g>
<g>
	<line fill="none" stroke="#1B181C" stroke-width="3.3579" x1="307.315" y1="250.302" x2="313.136" y2="256.122"/>
	<polygon fill="#1B181C" points="315.896,258.884 315.576,250.078 307.092,258.563 	"/>
</g>
<g>
	<line fill="none" stroke="#1B181C" stroke-width="3.3579" x1="320.382" y1="217.004" x2="328.613" y2="217.003"/>
	<polygon fill="#1B181C" points="332.518,217.004 326.064,211.004 326.064,223.003 	"/>
</g>
<g>
	<line fill="none" stroke="#1B181C" stroke-width="3.3579" x1="321.559" y1="166.77" x2="327.38" y2="160.949"/>
	<polygon fill="#1B181C" points="330.141,158.188 321.335,158.509 329.819,166.994 	"/>
</g>
<g>
	<line fill="none" stroke="#1B181C" stroke-width="3.3579" x1="270.311" y1="251.452" x2="270.311" y2="259.684"/>
	<polygon fill="#1B181C" points="270.311,263.588 276.311,257.135 264.311,257.135 	"/>
</g>
<g>
	<line fill="none" stroke="#1B181C" stroke-width="3.3579" x1="222.105" y1="217.421" x2="230.336" y2="217.421"/>
	<polygon fill="#1B181C" points="234.242,217.421 227.789,211.421 227.789,223.421 	"/>
</g>
<g>
	<line fill="none" stroke="#1B181C" stroke-width="3.3579" x1="95.82" y1="357.936" x2="95.82" y2="366.167"/>
	<polygon fill="#1B181C" points="95.82,370.072 101.82,363.619 89.82,363.619 	"/>
</g>
<g>
	<g>
		<path fill="#010101" d="M39.327,252.399c0-0.223,0.149-0.379,0.359-0.379s0.354,0.156,0.354,0.379
			c0,0.216-0.139,0.378-0.359,0.378C39.471,252.777,39.327,252.615,39.327,252.399z"/>
		<path fill="#010101" d="M41.282,248.992c0.006,0.18-0.126,0.324-0.336,0.324c-0.187,0-0.317-0.146-0.317-0.324
			c0-0.187,0.138-0.33,0.33-0.33C41.156,248.662,41.282,248.806,41.282,248.992z M40.693,252.709v-2.902h0.528v2.902H40.693z"/>
		<path fill="#010101" d="M42.099,250.593c0-0.3-0.006-0.545-0.023-0.786h0.468l0.03,0.48h0.012
			c0.144-0.276,0.479-0.545,0.959-0.545c0.4,0,1.024,0.239,1.024,1.234v1.733h-0.527v-1.673c0-0.468-0.174-0.857-0.671-0.857
			c-0.349,0-0.618,0.246-0.708,0.54c-0.023,0.066-0.036,0.156-0.036,0.246v1.745h-0.528L42.099,250.593L42.099,250.593z"/>
		<path fill="#010101" d="M47.935,248.453v3.508c0,0.258,0.006,0.551,0.024,0.749h-0.475l-0.023-0.503h-0.012
			c-0.162,0.324-0.517,0.57-0.989,0.57c-0.702,0-1.241-0.595-1.241-1.477c-0.006-0.965,0.594-1.559,1.301-1.559
			c0.444,0,0.744,0.209,0.876,0.442h0.013v-1.731H47.935z M47.407,250.99c0-0.066-0.007-0.156-0.024-0.223
			c-0.078-0.336-0.366-0.611-0.761-0.611c-0.546,0-0.87,0.479-0.87,1.122c0,0.587,0.288,1.072,0.857,1.072
			c0.354,0,0.678-0.233,0.773-0.63c0.018-0.071,0.024-0.144,0.024-0.228V250.99z"/>
		<path fill="#010101" d="M51.318,248.453v3.508c0,0.258,0.007,0.551,0.023,0.749h-0.474l-0.023-0.503h-0.012
			c-0.162,0.324-0.517,0.57-0.99,0.57c-0.701,0-1.241-0.595-1.241-1.477c-0.006-0.965,0.595-1.559,1.301-1.559
			c0.444,0,0.744,0.209,0.875,0.442h0.013v-1.731H51.318z M50.791,250.99c0-0.066-0.006-0.156-0.024-0.223
			c-0.078-0.336-0.366-0.611-0.762-0.611c-0.546,0-0.87,0.479-0.87,1.122c0,0.587,0.288,1.072,0.858,1.072
			c0.354,0,0.677-0.233,0.772-0.63c0.019-0.071,0.024-0.144,0.024-0.228L50.791,250.99L50.791,250.99z"/>
	</g>
	<g>
		<path fill="#020202" d="M84.937,257.698H35.064v-64.521h49.872V257.698L84.937,257.698z M37.064,255.698h45.872v-60.521H37.064
			V255.698L37.064,255.698z"/>
		<g>
			<path fill="#020202" d="M79.175,254.481c-0.369,0-0.67-0.302-0.67-0.67c0-0.37,0.301-0.671,0.67-0.671
				c0.37,0,0.67,0.301,0.67,0.671C79.845,254.179,79.545,254.481,79.175,254.481L79.175,254.481z"/>
			<path fill="#020202" d="M79.175,252.544c-0.369,0-0.67-0.3-0.67-0.67c0-0.369,0.301-0.67,0.67-0.67c0.37,0,0.67,0.301,0.67,0.67
				C79.845,252.245,79.545,252.544,79.175,252.544L79.175,252.544z"/>
			<path fill="#020202" d="M79.175,250.615c-0.369,0-0.67-0.3-0.67-0.67s0.301-0.67,0.67-0.67c0.37,0,0.67,0.3,0.67,0.67
				S79.545,250.615,79.175,250.615L79.175,250.615z"/>
			<path fill="#020202" d="M79.175,248.68c-0.369,0-0.67-0.301-0.67-0.67c0-0.37,0.301-0.671,0.67-0.671
				c0.37,0,0.67,0.301,0.67,0.671C79.845,248.379,79.545,248.68,79.175,248.68L79.175,248.68z"/>
			<path fill="#020202" d="M80.957,254.481c-0.37,0-0.669-0.302-0.669-0.67c0-0.37,0.299-0.671,0.669-0.671s0.67,0.301,0.67,0.671
				C81.627,254.179,81.328,254.481,80.957,254.481L80.957,254.481z"/>
			<path fill="#020202" d="M80.957,252.544c-0.37,0-0.669-0.3-0.669-0.67c0-0.369,0.299-0.67,0.669-0.67s0.67,0.301,0.67,0.67
				C81.627,252.245,81.328,252.544,80.957,252.544L80.957,252.544z"/>
			<path fill="#020202" d="M80.957,250.615c-0.37,0-0.669-0.3-0.669-0.67s0.299-0.67,0.669-0.67s0.67,0.3,0.67,0.67
				S81.328,250.615,80.957,250.615L80.957,250.615z"/>
			<path fill="#020202" d="M80.957,248.68c-0.37,0-0.669-0.301-0.669-0.67c0-0.37,0.299-0.671,0.669-0.671s0.67,0.301,0.67,0.671
				C81.627,248.379,81.328,248.68,80.957,248.68L80.957,248.68z"/>
			<path fill="#020202" d="M80.957,246.745c-0.37,0-0.669-0.3-0.669-0.67c0-0.364,0.299-0.665,0.669-0.665s0.67,0.301,0.67,0.665
				C81.627,246.446,81.328,246.745,80.957,246.745L80.957,246.745z"/>
			<path fill="#020202" d="M77.394,254.481c-0.37,0-0.67-0.302-0.67-0.67c0-0.37,0.3-0.671,0.67-0.671s0.669,0.301,0.669,0.671
				C78.062,254.179,77.764,254.481,77.394,254.481L77.394,254.481z"/>
			<path fill="#020202" d="M77.394,252.544c-0.37,0-0.67-0.3-0.67-0.67c0-0.369,0.3-0.67,0.67-0.67s0.669,0.301,0.669,0.67
				C78.062,252.245,77.764,252.544,77.394,252.544L77.394,252.544z"/>
			<path fill="#020202" d="M77.394,250.615c-0.37,0-0.67-0.3-0.67-0.67s0.3-0.67,0.67-0.67s0.669,0.3,0.669,0.67
				S77.764,250.615,77.394,250.615L77.394,250.615z"/>
			<path fill="#020202" d="M75.612,254.481c-0.369,0-0.671-0.302-0.671-0.67c0-0.37,0.302-0.671,0.671-0.671s0.67,0.301,0.67,0.671
				C76.282,254.179,75.981,254.481,75.612,254.481L75.612,254.481z"/>
			<path fill="#020202" d="M75.612,252.544c-0.369,0-0.671-0.3-0.671-0.67c0-0.369,0.302-0.67,0.671-0.67s0.67,0.301,0.67,0.67
				C76.282,252.245,75.981,252.544,75.612,252.544L75.612,252.544z"/>
			<path fill="#020202" d="M73.831,254.481c-0.37,0-0.67-0.302-0.67-0.67c0-0.37,0.3-0.671,0.67-0.671s0.67,0.301,0.67,0.671
				C74.501,254.179,74.202,254.481,73.831,254.481L73.831,254.481z"/>
		</g>
	</g>
</g>
<g>
	<line fill="none" stroke="#1B181C" stroke-width="3.3579" x1="38.537" y1="266.65" x2="32.717" y2="272.47"/>
	<polygon fill="#1B181C" points="29.955,275.232 38.761,274.912 30.276,266.425 	"/>
</g>
<g>
	<line fill="none" stroke="#1B181C" stroke-width="3.3579" x1="72.194" y1="266.65" x2="78.013" y2="272.47"/>
	<polygon fill="#1B181C" points="80.776,275.232 80.454,266.425 71.968,274.91 	"/>
</g>
<g>
	<g>
		<path fill="#010101" d="M75.469,339.78c0.252-0.041,0.582-0.078,1.001-0.078c0.517,0,0.895,0.121,1.133,0.336
			c0.223,0.191,0.354,0.486,0.354,0.846c0,0.365-0.107,0.654-0.312,0.863c-0.275,0.293-0.726,0.443-1.234,0.443
			c-0.156,0-0.301-0.006-0.42-0.035v1.619h-0.521V339.78L75.469,339.78z M75.99,341.729c0.113,0.029,0.258,0.043,0.432,0.043
			c0.63,0,1.014-0.307,1.014-0.863c0-0.535-0.378-0.793-0.953-0.793c-0.229,0-0.401,0.018-0.491,0.043L75.99,341.729L75.99,341.729z
			"/>
		<path fill="#010101" d="M78.661,339.786c0.317-0.047,0.695-0.084,1.108-0.084c0.75,0,1.283,0.174,1.638,0.504
			c0.358,0.33,0.568,0.797,0.568,1.451c0,0.66-0.204,1.199-0.582,1.57c-0.377,0.377-1.001,0.582-1.787,0.582
			c-0.372,0-0.684-0.018-0.947-0.047v-3.977H78.661z M79.183,343.36c0.132,0.023,0.323,0.031,0.527,0.031
			c1.115,0,1.721-0.625,1.721-1.717c0.006-0.951-0.534-1.559-1.637-1.559c-0.271,0-0.474,0.025-0.611,0.055V343.36z"/>
		<path fill="#010101" d="M82.656,339.733h2.177v0.438h-1.655v1.344h1.529v0.432h-1.529v1.828h-0.521V339.733z"/>
	</g>
	<path fill="#020202" d="M119.847,348.919H69.975v-64.52h37.568l12.346,14.012L119.847,348.919z M71.976,346.919h45.873
		l0.041-47.753l-11.248-12.767H71.976V346.919z"/>
	<g>
		<polyline fill="#010101" points="107.093,286.274 107.093,298.788 118.889,298.788 		"/>
		<polygon fill="#010101" points="118.889,299.037 106.843,299.037 106.843,286.274 107.343,286.274 107.343,298.538 
			118.889,298.538 		"/>
	</g>
</g>
<g>
	<path fill="#8DC63F" d="M115.957,446.707H69.996v-64.423l46.126-4.683L115.957,446.707z M71.996,444.707h41.966l0.154-64.893
		l-42.12,4.276V444.707z"/>
	<polygon fill="#FFFFFF" points="116.45,446.427 70.996,446.427 70.996,383.406 116.45,381.322 	"/>
	<path fill="#8DC63F" d="M116.95,446.927H70.497v-63.998l46.453-2.129V446.927z M71.496,445.927h44.453v-64.08l-44.453,2.038
		V445.927z"/>
	<rect x="70.996" y="383.688" fill="#FFFFFF" width="47.122" height="63.02"/>
	<path fill="#8DC63F" d="M118.618,447.207H70.496v-64.02h48.122V447.207z M71.496,446.207h46.122v-62.02H71.496V446.207z"/>
	<polygon fill="#FFFFFF" points="70.996,383.688 70.996,446.207 118.868,450.348 118.868,386.156 	"/>
	<path fill="#8DC63F" d="M119.868,451.438l-49.872-4.313v-64.489l49.872,2.571V451.438z M71.996,445.29l45.872,3.968v-62.152
		l-45.872-2.365V445.29z"/>
	<path fill="#010101" d="M75.591,438.897c0.252-0.042,0.582-0.078,1.001-0.078c0.516,0,0.894,0.12,1.133,0.336
		c0.222,0.191,0.354,0.486,0.354,0.846c0,0.366-0.106,0.653-0.312,0.863c-0.276,0.294-0.727,0.444-1.235,0.444
		c-0.155,0-0.3-0.007-0.42-0.036v1.619h-0.521V438.897z M76.113,440.846c0.114,0.03,0.258,0.042,0.433,0.042
		c0.63,0,1.014-0.306,1.014-0.863c0-0.534-0.378-0.792-0.953-0.792c-0.229,0-0.402,0.018-0.492,0.042L76.113,440.846L76.113,440.846
		z"/>
	<path fill="#010101" d="M78.669,440.895c0-0.343-0.007-0.637-0.024-0.905h0.462l0.018,0.569h0.024
		c0.132-0.391,0.45-0.637,0.804-0.637c0.061,0,0.103,0.006,0.15,0.019v0.498c-0.054-0.013-0.108-0.019-0.18-0.019
		c-0.372,0-0.637,0.282-0.708,0.679c-0.013,0.071-0.024,0.154-0.024,0.245v1.548H78.67L78.669,440.895L78.669,440.895z"/>
	<path fill="#010101" d="M81.243,439.172c0.006,0.181-0.126,0.324-0.336,0.324c-0.186,0-0.316-0.144-0.316-0.324
		c0-0.186,0.138-0.33,0.33-0.33C81.117,438.843,81.243,438.986,81.243,439.172z M80.655,442.892v-2.902h0.528v2.902H80.655z"/>
	<path fill="#010101" d="M82.059,440.774c0-0.3-0.006-0.546-0.024-0.785h0.469l0.029,0.479h0.013
		c0.144-0.275,0.479-0.546,0.959-0.546c0.4,0,1.024,0.24,1.024,1.235v1.733h-0.527v-1.674c0-0.468-0.175-0.856-0.672-0.856
		c-0.348,0-0.617,0.246-0.708,0.54c-0.022,0.065-0.035,0.156-0.035,0.246v1.745h-0.528L82.059,440.774L82.059,440.774z"/>
	<path fill="#010101" d="M86.001,439.154v0.834h0.755v0.4h-0.755v1.565c0,0.359,0.102,0.563,0.396,0.563
		c0.138,0,0.239-0.019,0.306-0.036l0.024,0.396c-0.103,0.042-0.264,0.072-0.468,0.072c-0.246,0-0.444-0.078-0.57-0.222
		c-0.15-0.156-0.204-0.414-0.204-0.757v-1.58h-0.449v-0.401h0.449v-0.696L86.001,439.154z"/>
	<path fill="#010101" d="M88.641,438.902c0.228-0.048,0.588-0.084,0.953-0.084c0.521,0,0.857,0.09,1.108,0.294
		c0.21,0.156,0.336,0.396,0.336,0.714c0,0.39-0.258,0.731-0.684,0.888v0.013c0.384,0.096,0.834,0.414,0.834,1.014
		c0,0.348-0.138,0.611-0.342,0.81c-0.282,0.259-0.738,0.377-1.397,0.377c-0.359,0-0.636-0.023-0.81-0.048L88.641,438.902
		L88.641,438.902z M89.163,440.559h0.475c0.552,0,0.876-0.288,0.876-0.679c0-0.474-0.36-0.659-0.889-0.659
		c-0.239,0-0.378,0.019-0.462,0.036V440.559z M89.163,442.495c0.103,0.018,0.252,0.024,0.438,0.024c0.54,0,1.038-0.198,1.038-0.786
		c0-0.551-0.475-0.78-1.044-0.78h-0.433V442.495L89.163,442.495z"/>
	<path fill="#010101" d="M94.525,441.415c0,1.073-0.743,1.541-1.444,1.541c-0.785,0-1.392-0.575-1.392-1.493
		c0-0.971,0.636-1.541,1.439-1.541C93.962,439.922,94.525,440.527,94.525,441.415z M92.223,441.445c0,0.636,0.366,1.115,0.881,1.115
		c0.504,0,0.882-0.475,0.882-1.127c0-0.492-0.246-1.115-0.869-1.115C92.493,440.318,92.223,440.895,92.223,441.445z"/>
	<path fill="#010101" d="M97.82,441.415c0,1.073-0.744,1.541-1.445,1.541c-0.785,0-1.392-0.575-1.392-1.493
		c0-0.971,0.636-1.541,1.438-1.541C97.255,439.922,97.82,440.527,97.82,441.415z M95.517,441.445c0,0.636,0.365,1.115,0.881,1.115
		c0.504,0,0.882-0.475,0.882-1.127c0-0.492-0.245-1.115-0.87-1.115C95.787,440.318,95.517,440.895,95.517,441.445z"/>
	<path fill="#010101" d="M99.009,441.319h0.012c0.072-0.103,0.174-0.229,0.258-0.33l0.853-1.001h0.635l-1.121,1.193l1.277,1.709
		h-0.643l-1.001-1.393l-0.27,0.3v1.093h-0.522v-4.259h0.522V441.319z"/>
</g>
<g>
	<path fill="#8DC63F" d="M46.811,296.857h10.906v51.314H9.346v-63.025h37.465V296.857z M11.146,346.373h44.771v-47.716H45.012
		v-11.71H11.146V346.373z"/>
	<path fill="#8DC63F" d="M50.157,295.873c-0.37,0-0.67-0.301-0.67-0.67c0-0.37,0.3-0.67,0.67-0.67c0.369,0,0.67,0.3,0.67,0.67
		C50.827,295.572,50.526,295.873,50.157,295.873L50.157,295.873z"/>
	<path fill="#8DC63F" d="M50.157,293.937c-0.37,0-0.67-0.299-0.67-0.67c0-0.369,0.3-0.67,0.67-0.67c0.369,0,0.67,0.301,0.67,0.67
		C50.827,293.637,50.526,293.937,50.157,293.937L50.157,293.937z"/>
	<path fill="#8DC63F" d="M50.157,292.008c-0.37,0-0.67-0.3-0.67-0.67s0.3-0.67,0.67-0.67c0.369,0,0.67,0.3,0.67,0.67
		S50.526,292.008,50.157,292.008L50.157,292.008z"/>
	<path fill="#8DC63F" d="M50.157,290.073c-0.37,0-0.67-0.302-0.67-0.671s0.3-0.671,0.67-0.671c0.369,0,0.67,0.302,0.67,0.671
		S50.526,290.073,50.157,290.073L50.157,290.073z"/>
	<path fill="#8DC63F" d="M48.375,295.873c-0.371,0-0.67-0.301-0.67-0.67c0-0.37,0.3-0.67,0.67-0.67s0.669,0.3,0.669,0.67
		C49.043,295.572,48.745,295.873,48.375,295.873L48.375,295.873z"/>
	<path fill="#8DC63F" d="M48.375,293.937c-0.371,0-0.67-0.299-0.67-0.67c0-0.369,0.3-0.67,0.67-0.67s0.669,0.301,0.669,0.67
		C49.043,293.637,48.745,293.937,48.375,293.937L48.375,293.937z"/>
	<path fill="#8DC63F" d="M48.375,292.008c-0.371,0-0.67-0.3-0.67-0.67s0.3-0.67,0.67-0.67s0.669,0.3,0.669,0.67
		S48.745,292.008,48.375,292.008L48.375,292.008z"/>
	<path fill="#8DC63F" d="M48.375,290.073c-0.371,0-0.67-0.302-0.67-0.671s0.3-0.671,0.67-0.671s0.669,0.302,0.669,0.671
		S48.745,290.073,48.375,290.073L48.375,290.073z"/>
	<path fill="#8DC63F" d="M48.375,288.138c-0.371,0-0.67-0.3-0.67-0.67c0-0.364,0.3-0.665,0.67-0.665s0.669,0.301,0.669,0.665
		C49.043,287.838,48.745,288.138,48.375,288.138L48.375,288.138z"/>
	<path fill="#8DC63F" d="M51.938,295.873c-0.37,0-0.669-0.301-0.669-0.67c0-0.37,0.299-0.67,0.669-0.67s0.67,0.3,0.67,0.67
		C52.608,295.572,52.308,295.873,51.938,295.873L51.938,295.873z"/>
	<path fill="#8DC63F" d="M51.938,293.937c-0.37,0-0.669-0.299-0.669-0.67c0-0.369,0.299-0.67,0.669-0.67s0.67,0.301,0.67,0.67
		C52.608,293.637,52.308,293.937,51.938,293.937L51.938,293.937z"/>
	<path fill="#8DC63F" d="M51.938,292.008c-0.37,0-0.669-0.3-0.669-0.67s0.299-0.67,0.669-0.67s0.67,0.3,0.67,0.67
		S52.308,292.008,51.938,292.008L51.938,292.008z"/>
	<path fill="#8DC63F" d="M53.719,295.873c-0.369,0-0.67-0.301-0.67-0.67c0-0.37,0.301-0.67,0.67-0.67c0.37,0,0.671,0.3,0.671,0.67
		C54.39,295.572,54.089,295.873,53.719,295.873L53.719,295.873z"/>
	<path fill="#8DC63F" d="M53.719,293.937c-0.369,0-0.67-0.299-0.67-0.67c0-0.369,0.301-0.67,0.67-0.67
		c0.37,0,0.671,0.301,0.671,0.67C54.39,293.637,54.089,293.937,53.719,293.937L53.719,293.937z"/>
	<path fill="#8DC63F" d="M55.5,295.873c-0.371,0-0.67-0.301-0.67-0.67c0-0.37,0.301-0.67,0.67-0.67c0.37,0,0.67,0.3,0.67,0.67
		C56.17,295.572,55.871,295.873,55.5,295.873L55.5,295.873z"/>
</g>
<rect x="13.528" y="339.852" fill="none" width="46" height="6.932"/>
<text transform="matrix(1 0 0 1 13.5264 344.04)" fill="#231F20" font-family="'MyriadPro-Regular'" font-size="5.8981">Interactive PDF</text>
<g>
	<g>
		<path fill="#8DC63F" d="M379.002,125.483h10.906v51.314h-48.371v-63.025h37.465V125.483z M343.337,174.999h44.771v-47.716h-10.904
			v-11.71h-33.866V174.999z"/>
		<path fill="#8DC63F" d="M382.348,124.499c-0.37,0-0.67-0.301-0.67-0.67c0-0.37,0.3-0.67,0.67-0.67c0.369,0,0.67,0.3,0.67,0.67
			C383.018,124.198,382.717,124.499,382.348,124.499L382.348,124.499z"/>
		<path fill="#8DC63F" d="M382.348,122.562c-0.37,0-0.67-0.299-0.67-0.67c0-0.369,0.3-0.67,0.67-0.67c0.369,0,0.67,0.301,0.67,0.67
			C383.018,122.262,382.717,122.562,382.348,122.562L382.348,122.562z"/>
		<path fill="#8DC63F" d="M382.348,120.633c-0.37,0-0.67-0.3-0.67-0.67s0.3-0.67,0.67-0.67c0.369,0,0.67,0.3,0.67,0.67
			S382.717,120.633,382.348,120.633L382.348,120.633z"/>
		<path fill="#8DC63F" d="M382.348,118.699c-0.37,0-0.67-0.302-0.67-0.671s0.3-0.671,0.67-0.671c0.369,0,0.67,0.302,0.67,0.671
			S382.717,118.699,382.348,118.699L382.348,118.699z"/>
		<path fill="#8DC63F" d="M380.565,124.499c-0.371,0-0.67-0.301-0.67-0.67c0-0.37,0.3-0.67,0.67-0.67s0.669,0.3,0.669,0.67
			C381.234,124.198,380.936,124.499,380.565,124.499L380.565,124.499z"/>
		<path fill="#8DC63F" d="M380.565,122.562c-0.371,0-0.67-0.299-0.67-0.67c0-0.369,0.3-0.67,0.67-0.67s0.669,0.301,0.669,0.67
			C381.234,122.262,380.936,122.562,380.565,122.562L380.565,122.562z"/>
		<path fill="#8DC63F" d="M380.565,120.633c-0.371,0-0.67-0.3-0.67-0.67s0.3-0.67,0.67-0.67s0.669,0.3,0.669,0.67
			S380.936,120.633,380.565,120.633L380.565,120.633z"/>
		<path fill="#8DC63F" d="M380.565,118.699c-0.371,0-0.67-0.302-0.67-0.671s0.3-0.671,0.67-0.671s0.669,0.302,0.669,0.671
			S380.936,118.699,380.565,118.699L380.565,118.699z"/>
		<path fill="#8DC63F" d="M380.565,116.763c-0.371,0-0.67-0.3-0.67-0.67c0-0.364,0.3-0.665,0.67-0.665s0.669,0.301,0.669,0.665
			C381.234,116.463,380.936,116.763,380.565,116.763L380.565,116.763z"/>
		<path fill="#8DC63F" d="M384.129,124.499c-0.37,0-0.669-0.301-0.669-0.67c0-0.37,0.299-0.67,0.669-0.67s0.67,0.3,0.67,0.67
			C384.799,124.198,384.499,124.499,384.129,124.499L384.129,124.499z"/>
		<path fill="#8DC63F" d="M384.129,122.562c-0.37,0-0.669-0.299-0.669-0.67c0-0.369,0.299-0.67,0.669-0.67s0.67,0.301,0.67,0.67
			C384.799,122.262,384.499,122.562,384.129,122.562L384.129,122.562z"/>
		<path fill="#8DC63F" d="M384.129,120.633c-0.37,0-0.669-0.3-0.669-0.67s0.299-0.67,0.669-0.67s0.67,0.3,0.67,0.67
			S384.499,120.633,384.129,120.633L384.129,120.633z"/>
		<path fill="#8DC63F" d="M385.91,124.499c-0.369,0-0.67-0.301-0.67-0.67c0-0.37,0.301-0.67,0.67-0.67c0.37,0,0.671,0.3,0.671,0.67
			C386.581,124.198,386.28,124.499,385.91,124.499L385.91,124.499z"/>
		<path fill="#8DC63F" d="M385.91,122.562c-0.369,0-0.67-0.299-0.67-0.67c0-0.369,0.301-0.67,0.67-0.67
			c0.37,0,0.671,0.301,0.671,0.67C386.581,122.262,386.28,122.562,385.91,122.562L385.91,122.562z"/>
		<path fill="#8DC63F" d="M387.691,124.499c-0.371,0-0.67-0.301-0.67-0.67c0-0.37,0.301-0.67,0.67-0.67c0.37,0,0.67,0.3,0.67,0.67
			C388.361,124.198,388.062,124.499,387.691,124.499L387.691,124.499z"/>
	</g>
	<rect x="345.719" y="168.477" fill="none" width="46" height="6.932"/>
	<text transform="matrix(1 0 0 1 345.7168 172.6655)" fill="#231F20" font-family="'MyriadPro-Regular'" font-size="5.8981">Interactive PDF</text>
</g>
<rect x="346.161" y="243.703" fill="none" width="20.5" height="5.14"/>
<text transform="matrix(1 0 0 1 346.1621 247.8906)" fill="#231F20" font-family="'MyriadPro-Regular'" font-size="5.8981">ePub</text>
<rect x="234.744" y="322.362" fill="none" width="20.5" height="5.14"/>
<text transform="matrix(1 0 0 1 234.7441 326.5498)" fill="#231F20" font-family="'MyriadPro-Regular'" font-size="5.8981">e-book</text>
<g>
	<path fill="#8DC63F" d="M379.001,252.464h-37.463v-63.026h48.369v51.315h-10.906V252.464z M343.339,250.664h33.863v-11.71h10.904
		v-47.716h-44.768V250.664z"/>
	<path fill="#8DC63F" d="M382.347,241.738c0.369,0,0.67,0.301,0.67,0.67c0,0.37-0.301,0.67-0.67,0.67s-0.67-0.3-0.67-0.67
		C381.677,242.039,381.978,241.738,382.347,241.738L382.347,241.738z"/>
	<path fill="#8DC63F" d="M382.347,243.674c0.369,0,0.67,0.3,0.67,0.67c0,0.369-0.301,0.67-0.67,0.67s-0.67-0.301-0.67-0.67
		C381.677,243.973,381.978,243.674,382.347,243.674L382.347,243.674z"/>
	<path fill="#8DC63F" d="M382.347,245.603c0.369,0,0.67,0.3,0.67,0.67s-0.301,0.67-0.67,0.67s-0.67-0.3-0.67-0.67
		S381.978,245.603,382.347,245.603L382.347,245.603z"/>
	<path fill="#8DC63F" d="M382.347,247.538c0.369,0,0.67,0.302,0.67,0.671s-0.301,0.671-0.67,0.671s-0.67-0.302-0.67-0.671
		S381.978,247.538,382.347,247.538L382.347,247.538z"/>
	<path fill="#8DC63F" d="M380.565,241.738c0.369,0,0.668,0.301,0.668,0.67c0,0.37-0.299,0.67-0.668,0.67
		c-0.371,0-0.67-0.3-0.67-0.67C379.896,242.039,380.194,241.738,380.565,241.738L380.565,241.738z"/>
	<path fill="#8DC63F" d="M380.565,243.674c0.369,0,0.668,0.3,0.668,0.67c0,0.369-0.299,0.67-0.668,0.67
		c-0.371,0-0.67-0.301-0.67-0.67C379.896,243.973,380.194,243.674,380.565,243.674L380.565,243.674z"/>
	<path fill="#8DC63F" d="M380.565,245.603c0.369,0,0.668,0.3,0.668,0.67s-0.299,0.67-0.668,0.67c-0.371,0-0.67-0.3-0.67-0.67
		S380.194,245.603,380.565,245.603L380.565,245.603z"/>
	<path fill="#8DC63F" d="M380.565,247.538c0.369,0,0.668,0.302,0.668,0.671s-0.299,0.671-0.668,0.671
		c-0.371,0-0.67-0.302-0.67-0.671S380.194,247.538,380.565,247.538L380.565,247.538z"/>
	<path fill="#8DC63F" d="M380.565,249.473c0.369,0,0.668,0.3,0.668,0.67c0,0.364-0.299,0.665-0.668,0.665
		c-0.371,0-0.67-0.301-0.67-0.665C379.896,249.773,380.194,249.473,380.565,249.473L380.565,249.473z"/>
	<path fill="#8DC63F" d="M384.128,241.738c0.371,0,0.67,0.301,0.67,0.67c0,0.37-0.299,0.67-0.67,0.67c-0.369,0-0.668-0.3-0.668-0.67
		C383.46,242.039,383.759,241.738,384.128,241.738L384.128,241.738z"/>
	<path fill="#8DC63F" d="M384.128,243.674c0.371,0,0.67,0.3,0.67,0.67c0,0.369-0.299,0.67-0.67,0.67
		c-0.369,0-0.668-0.301-0.668-0.67C383.46,243.973,383.759,243.674,384.128,243.674L384.128,243.674z"/>
	<path fill="#8DC63F" d="M384.128,245.603c0.371,0,0.67,0.3,0.67,0.67s-0.299,0.67-0.67,0.67c-0.369,0-0.668-0.3-0.668-0.67
		S383.759,245.603,384.128,245.603L384.128,245.603z"/>
	<path fill="#8DC63F" d="M385.909,241.738c0.371,0,0.672,0.301,0.672,0.67c0,0.37-0.301,0.67-0.672,0.67
		c-0.369,0-0.67-0.3-0.67-0.67C385.239,242.039,385.54,241.738,385.909,241.738L385.909,241.738z"/>
	<path fill="#8DC63F" d="M385.909,243.674c0.371,0,0.672,0.3,0.672,0.67c0,0.369-0.301,0.67-0.672,0.67
		c-0.369,0-0.67-0.301-0.67-0.67C385.239,243.973,385.54,243.674,385.909,243.674L385.909,243.674z"/>
	<path fill="#8DC63F" d="M387.69,241.738c0.371,0,0.67,0.301,0.67,0.67c0,0.37-0.299,0.67-0.67,0.67c-0.369,0-0.67-0.3-0.67-0.67
		C387.021,242.039,387.319,241.738,387.69,241.738L387.69,241.738z"/>
</g>
<g>
	<path fill="#8DC63F" d="M268.479,331.123h-37.463v-63.027h48.369v51.316h-10.906V331.123z M232.816,329.322h33.863v-11.711h10.904
		v-47.715h-44.768V329.322z"/>
	<path fill="#8DC63F" d="M271.824,320.396c0.369,0,0.67,0.301,0.67,0.67s-0.301,0.67-0.67,0.67s-0.67-0.301-0.67-0.67
		S271.455,320.396,271.824,320.396L271.824,320.396z"/>
	<path fill="#8DC63F" d="M271.824,322.332c0.369,0,0.67,0.301,0.67,0.67s-0.301,0.67-0.67,0.67s-0.67-0.301-0.67-0.67
		C271.154,322.631,271.455,322.332,271.824,322.332L271.824,322.332z"/>
	<path fill="#8DC63F" d="M271.824,324.262c0.369,0,0.67,0.299,0.67,0.67c0,0.369-0.301,0.67-0.67,0.67s-0.67-0.301-0.67-0.67
		C271.154,324.561,271.455,324.262,271.824,324.262L271.824,324.262z"/>
	<path fill="#8DC63F" d="M271.824,326.195c0.369,0,0.67,0.303,0.67,0.672s-0.301,0.67-0.67,0.67s-0.67-0.301-0.67-0.67
		S271.455,326.195,271.824,326.195L271.824,326.195z"/>
	<path fill="#8DC63F" d="M270.043,320.396c0.369,0,0.668,0.301,0.668,0.67s-0.299,0.67-0.668,0.67c-0.371,0-0.67-0.301-0.67-0.67
		S269.672,320.396,270.043,320.396L270.043,320.396z"/>
	<path fill="#8DC63F" d="M270.043,322.332c0.369,0,0.668,0.301,0.668,0.67s-0.299,0.67-0.668,0.67c-0.371,0-0.67-0.301-0.67-0.67
		C269.373,322.631,269.672,322.332,270.043,322.332L270.043,322.332z"/>
	<path fill="#8DC63F" d="M270.043,324.262c0.369,0,0.668,0.299,0.668,0.67c0,0.369-0.299,0.67-0.668,0.67
		c-0.371,0-0.67-0.301-0.67-0.67C269.373,324.561,269.672,324.262,270.043,324.262L270.043,324.262z"/>
	<path fill="#8DC63F" d="M270.043,326.195c0.369,0,0.668,0.303,0.668,0.672s-0.299,0.67-0.668,0.67c-0.371,0-0.67-0.301-0.67-0.67
		S269.672,326.195,270.043,326.195L270.043,326.195z"/>
	<path fill="#8DC63F" d="M270.043,328.131c0.369,0,0.668,0.301,0.668,0.67c0,0.365-0.299,0.666-0.668,0.666
		c-0.371,0-0.67-0.301-0.67-0.666C269.373,328.432,269.672,328.131,270.043,328.131L270.043,328.131z"/>
	<path fill="#8DC63F" d="M273.605,320.396c0.371,0,0.67,0.301,0.67,0.67s-0.299,0.67-0.67,0.67c-0.369,0-0.668-0.301-0.668-0.67
		S273.236,320.396,273.605,320.396L273.605,320.396z"/>
	<path fill="#8DC63F" d="M273.605,322.332c0.371,0,0.67,0.301,0.67,0.67s-0.299,0.67-0.67,0.67c-0.369,0-0.668-0.301-0.668-0.67
		C272.938,322.631,273.236,322.332,273.605,322.332L273.605,322.332z"/>
	<path fill="#8DC63F" d="M273.605,324.262c0.371,0,0.67,0.299,0.67,0.67c0,0.369-0.299,0.67-0.67,0.67
		c-0.369,0-0.668-0.301-0.668-0.67C272.938,324.561,273.236,324.262,273.605,324.262L273.605,324.262z"/>
	<path fill="#8DC63F" d="M275.387,320.396c0.371,0,0.672,0.301,0.672,0.67s-0.301,0.67-0.672,0.67c-0.369,0-0.67-0.301-0.67-0.67
		S275.018,320.396,275.387,320.396L275.387,320.396z"/>
	<path fill="#8DC63F" d="M275.387,322.332c0.371,0,0.672,0.301,0.672,0.67s-0.301,0.67-0.672,0.67c-0.369,0-0.67-0.301-0.67-0.67
		C274.717,322.631,275.018,322.332,275.387,322.332L275.387,322.332z"/>
	<path fill="#8DC63F" d="M277.168,320.396c0.371,0,0.67,0.301,0.67,0.67s-0.299,0.67-0.67,0.67c-0.369,0-0.67-0.301-0.67-0.67
		S276.797,320.396,277.168,320.396L277.168,320.396z"/>
</g>
<rect x="245.994" y="233.473" fill="none" width="46" height="6.932"/>
<text transform="matrix(1 0 0 1 245.9932 237.6611)" fill="#231F20" font-family="'MyriadPro-Regular'" font-size="5.8981">HTML/CSS</text>
<g>
	<path fill="#020202" d="M292.913,241.606h-51.315v-48.371h63.024V230.7h-11.71L292.913,241.606L292.913,241.606z M243.397,239.807
		h47.716v-10.905h11.71v-33.866h-59.426V239.807z"/>
	<path fill="#020202" d="M293.897,234.046c0,0.369,0.301,0.67,0.67,0.67c0.37,0,0.67-0.301,0.67-0.67c0-0.37-0.3-0.67-0.67-0.67
		C294.198,233.376,293.897,233.676,293.897,234.046L293.897,234.046z"/>
	<path fill="#020202" d="M295.832,234.046c0,0.369,0.301,0.67,0.67,0.67s0.67-0.301,0.67-0.67c0-0.37-0.301-0.67-0.67-0.67
		S295.832,233.676,295.832,234.046L295.832,234.046z"/>
	<path fill="#020202" d="M297.763,234.046c0,0.369,0.3,0.67,0.67,0.67s0.67-0.301,0.67-0.67c0-0.37-0.3-0.67-0.67-0.67
		S297.763,233.676,297.763,234.046L297.763,234.046z"/>
	<path fill="#020202" d="M299.697,234.046c0,0.369,0.301,0.67,0.67,0.67c0.37,0,0.671-0.301,0.671-0.67
		c0-0.37-0.301-0.67-0.671-0.67S299.697,233.676,299.697,234.046L299.697,234.046z"/>
	<path fill="#020202" d="M293.897,232.266c0,0.369,0.301,0.669,0.67,0.669c0.37,0,0.67-0.3,0.67-0.669c0-0.37-0.3-0.67-0.67-0.67
		C294.198,231.596,293.897,231.895,293.897,232.266L293.897,232.266z"/>
	<path fill="#020202" d="M295.832,232.266c0,0.369,0.301,0.669,0.67,0.669s0.67-0.3,0.67-0.669c0-0.37-0.301-0.67-0.67-0.67
		S295.832,231.895,295.832,232.266L295.832,232.266z"/>
	<path fill="#020202" d="M297.763,232.266c0,0.369,0.3,0.669,0.67,0.669s0.67-0.3,0.67-0.669c0-0.37-0.3-0.67-0.67-0.67
		S297.763,231.895,297.763,232.266L297.763,232.266z"/>
	<path fill="#020202" d="M299.697,232.266c0,0.369,0.301,0.669,0.67,0.669c0.37,0,0.671-0.3,0.671-0.669
		c0-0.37-0.301-0.67-0.671-0.67S299.697,231.895,299.697,232.266L299.697,232.266z"/>
	<path fill="#020202" d="M301.633,232.266c0,0.369,0.3,0.669,0.67,0.669c0.363,0,0.665-0.3,0.665-0.669
		c0-0.37-0.302-0.67-0.665-0.67C301.933,231.596,301.633,231.895,301.633,232.266L301.633,232.266z"/>
	<path fill="#020202" d="M293.897,235.827c0,0.37,0.301,0.67,0.67,0.67c0.37,0,0.67-0.3,0.67-0.67s-0.3-0.669-0.67-0.669
		C294.198,235.158,293.897,235.457,293.897,235.827L293.897,235.827z"/>
	<path fill="#020202" d="M295.832,235.827c0,0.37,0.301,0.67,0.67,0.67s0.67-0.3,0.67-0.67s-0.301-0.669-0.67-0.669
		S295.832,235.457,295.832,235.827L295.832,235.827z"/>
	<path fill="#020202" d="M297.763,235.827c0,0.37,0.3,0.67,0.67,0.67s0.67-0.3,0.67-0.67s-0.3-0.669-0.67-0.669
		S297.763,235.457,297.763,235.827L297.763,235.827z"/>
	<path fill="#020202" d="M293.897,237.608c0,0.37,0.301,0.671,0.67,0.671c0.37,0,0.67-0.301,0.67-0.671c0-0.369-0.3-0.67-0.67-0.67
		C294.198,236.939,293.897,237.239,293.897,237.608L293.897,237.608z"/>
	<path fill="#020202" d="M295.832,237.608c0,0.37,0.301,0.671,0.67,0.671s0.67-0.301,0.67-0.671c0-0.369-0.301-0.67-0.67-0.67
		C296.133,236.939,295.832,237.239,295.832,237.608L295.832,237.608z"/>
	<path fill="#020202" d="M293.897,239.392c0,0.369,0.301,0.67,0.67,0.67c0.37,0,0.67-0.301,0.67-0.67c0-0.37-0.3-0.67-0.67-0.67
		C294.198,238.722,293.897,239.021,293.897,239.392L293.897,239.392z"/>
</g>
<rect x="329.576" y="308.595" fill="none" width="46" height="6.932"/>
<text transform="matrix(1 0 0 1 329.5752 312.7832)" fill="#231F20" font-family="'MyriadPro-Regular'" font-size="5.8981">Website</text>
<rect x="248.938" y="204.962" fill="none" width="102.857" height="31.979"/>
<text transform="matrix(1 0 0 1 248.9395 211.9458)" fill="#1B181C" font-family="'Ubuntu-Light'" font-size="9">Programmeren</text>
<g>
	<path fill="#020202" d="M203.168,241.606h-51.315v-48.371h63.024V230.7h-11.709L203.168,241.606L203.168,241.606z M153.653,239.807
		h47.716v-10.905h11.709v-33.866h-59.425V239.807z"/>
	<path fill="#020202" d="M204.153,234.046c0,0.369,0.301,0.67,0.67,0.67c0.37,0,0.67-0.301,0.67-0.67c0-0.37-0.3-0.67-0.67-0.67
		C204.454,233.376,204.153,233.676,204.153,234.046L204.153,234.046z"/>
	<path fill="#020202" d="M206.087,234.046c0,0.369,0.301,0.67,0.67,0.67s0.67-0.301,0.67-0.67c0-0.37-0.301-0.67-0.67-0.67
		S206.087,233.676,206.087,234.046L206.087,234.046z"/>
	<path fill="#020202" d="M208.018,234.046c0,0.369,0.3,0.67,0.67,0.67s0.67-0.301,0.67-0.67c0-0.37-0.3-0.67-0.67-0.67
		S208.018,233.676,208.018,234.046L208.018,234.046z"/>
	<path fill="#020202" d="M209.953,234.046c0,0.369,0.301,0.67,0.67,0.67c0.37,0,0.67-0.301,0.67-0.67c0-0.37-0.3-0.67-0.67-0.67
		S209.953,233.676,209.953,234.046L209.953,234.046z"/>
	<path fill="#020202" d="M204.153,232.266c0,0.369,0.301,0.669,0.67,0.669c0.37,0,0.67-0.3,0.67-0.669c0-0.37-0.3-0.67-0.67-0.67
		C204.454,231.596,204.153,231.895,204.153,232.266L204.153,232.266z"/>
	<path fill="#020202" d="M206.087,232.266c0,0.369,0.301,0.669,0.67,0.669s0.67-0.3,0.67-0.669c0-0.37-0.301-0.67-0.67-0.67
		S206.087,231.895,206.087,232.266L206.087,232.266z"/>
	<path fill="#020202" d="M208.018,232.266c0,0.369,0.3,0.669,0.67,0.669s0.67-0.3,0.67-0.669c0-0.37-0.3-0.67-0.67-0.67
		S208.018,231.895,208.018,232.266L208.018,232.266z"/>
	<path fill="#020202" d="M209.953,232.266c0,0.369,0.301,0.669,0.67,0.669c0.37,0,0.67-0.3,0.67-0.669c0-0.37-0.3-0.67-0.67-0.67
		S209.953,231.895,209.953,232.266L209.953,232.266z"/>
	<path fill="#020202" d="M211.889,232.266c0,0.369,0.299,0.669,0.67,0.669c0.363,0,0.664-0.3,0.664-0.669
		c0-0.37-0.301-0.67-0.664-0.67C212.188,231.596,211.889,231.895,211.889,232.266L211.889,232.266z"/>
	<path fill="#020202" d="M204.153,235.827c0,0.37,0.301,0.67,0.67,0.67c0.37,0,0.67-0.3,0.67-0.67s-0.3-0.669-0.67-0.669
		C204.454,235.158,204.153,235.457,204.153,235.827L204.153,235.827z"/>
	<path fill="#020202" d="M206.087,235.827c0,0.37,0.301,0.67,0.67,0.67s0.67-0.3,0.67-0.67s-0.301-0.669-0.67-0.669
		S206.087,235.457,206.087,235.827L206.087,235.827z"/>
	<path fill="#020202" d="M208.018,235.827c0,0.37,0.3,0.67,0.67,0.67s0.67-0.3,0.67-0.67s-0.3-0.669-0.67-0.669
		S208.018,235.457,208.018,235.827L208.018,235.827z"/>
	<path fill="#020202" d="M204.153,237.608c0,0.37,0.301,0.671,0.67,0.671c0.37,0,0.67-0.301,0.67-0.671c0-0.369-0.3-0.67-0.67-0.67
		C204.454,236.939,204.153,237.239,204.153,237.608L204.153,237.608z"/>
	<path fill="#020202" d="M206.087,237.608c0,0.37,0.301,0.671,0.67,0.671s0.67-0.301,0.67-0.671c0-0.369-0.301-0.67-0.67-0.67
		C206.388,236.939,206.087,237.239,206.087,237.608L206.087,237.608z"/>
	<path fill="#020202" d="M204.153,239.392c0,0.369,0.301,0.67,0.67,0.67c0.37,0,0.67-0.301,0.67-0.67c0-0.37-0.3-0.67-0.67-0.67
		C204.454,238.722,204.153,239.021,204.153,239.392L204.153,239.392z"/>
</g>
<g>
	<path fill="#8DC63F" d="M377.521,316.059h-51.315v-48.371h63.024v37.465h-11.71L377.521,316.059L377.521,316.059z M328.006,314.259
		h47.716v-10.905h11.71v-33.866h-59.426V314.259z"/>
	<path fill="#8DC63F" d="M378.506,308.498c0,0.369,0.301,0.67,0.67,0.67c0.37,0,0.67-0.301,0.67-0.67c0-0.37-0.3-0.67-0.67-0.67
		C378.807,307.828,378.506,308.128,378.506,308.498L378.506,308.498z"/>
	<path fill="#8DC63F" d="M380.44,308.498c0,0.369,0.301,0.67,0.67,0.67s0.67-0.301,0.67-0.67c0-0.37-0.301-0.67-0.67-0.67
		S380.44,308.128,380.44,308.498L380.44,308.498z"/>
	<path fill="#8DC63F" d="M382.371,308.498c0,0.369,0.3,0.67,0.67,0.67s0.67-0.301,0.67-0.67c0-0.37-0.3-0.67-0.67-0.67
		S382.371,308.128,382.371,308.498L382.371,308.498z"/>
	<path fill="#8DC63F" d="M384.306,308.498c0,0.369,0.301,0.67,0.67,0.67c0.37,0,0.671-0.301,0.671-0.67
		c0-0.37-0.301-0.67-0.671-0.67S384.306,308.128,384.306,308.498L384.306,308.498z"/>
	<path fill="#8DC63F" d="M378.506,306.718c0,0.369,0.301,0.669,0.67,0.669c0.37,0,0.67-0.3,0.67-0.669c0-0.37-0.3-0.67-0.67-0.67
		C378.807,306.048,378.506,306.347,378.506,306.718L378.506,306.718z"/>
	<path fill="#8DC63F" d="M380.44,306.718c0,0.369,0.301,0.669,0.67,0.669s0.67-0.3,0.67-0.669c0-0.37-0.301-0.67-0.67-0.67
		S380.44,306.347,380.44,306.718L380.44,306.718z"/>
	<path fill="#8DC63F" d="M382.371,306.718c0,0.369,0.3,0.669,0.67,0.669s0.67-0.3,0.67-0.669c0-0.37-0.3-0.67-0.67-0.67
		S382.371,306.347,382.371,306.718L382.371,306.718z"/>
	<path fill="#8DC63F" d="M384.306,306.718c0,0.369,0.301,0.669,0.67,0.669c0.37,0,0.671-0.3,0.671-0.669
		c0-0.37-0.301-0.67-0.671-0.67S384.306,306.347,384.306,306.718L384.306,306.718z"/>
	<path fill="#8DC63F" d="M386.241,306.718c0,0.369,0.3,0.669,0.67,0.669c0.363,0,0.665-0.3,0.665-0.669
		c0-0.37-0.302-0.67-0.665-0.67C386.541,306.048,386.241,306.347,386.241,306.718L386.241,306.718z"/>
	<path fill="#8DC63F" d="M378.506,310.279c0,0.37,0.301,0.67,0.67,0.67c0.37,0,0.67-0.3,0.67-0.67s-0.3-0.669-0.67-0.669
		C378.807,309.61,378.506,309.909,378.506,310.279L378.506,310.279z"/>
	<path fill="#8DC63F" d="M380.44,310.279c0,0.37,0.301,0.67,0.67,0.67s0.67-0.3,0.67-0.67s-0.301-0.669-0.67-0.669
		S380.44,309.909,380.44,310.279L380.44,310.279z"/>
	<path fill="#8DC63F" d="M382.371,310.279c0,0.37,0.3,0.67,0.67,0.67s0.67-0.3,0.67-0.67s-0.3-0.669-0.67-0.669
		S382.371,309.909,382.371,310.279L382.371,310.279z"/>
	<path fill="#8DC63F" d="M378.506,312.061c0,0.37,0.301,0.671,0.67,0.671c0.37,0,0.67-0.301,0.67-0.671c0-0.369-0.3-0.67-0.67-0.67
		C378.807,311.392,378.506,311.691,378.506,312.061L378.506,312.061z"/>
	<path fill="#8DC63F" d="M380.44,312.061c0,0.37,0.301,0.671,0.67,0.671s0.67-0.301,0.67-0.671c0-0.369-0.301-0.67-0.67-0.67
		C380.741,311.392,380.44,311.691,380.44,312.061L380.44,312.061z"/>
	<path fill="#8DC63F" d="M378.506,313.844c0,0.369,0.301,0.67,0.67,0.67c0.37,0,0.67-0.301,0.67-0.67c0-0.37-0.3-0.67-0.67-0.67
		C378.807,313.174,378.506,313.473,378.506,313.844L378.506,313.844z"/>
</g>
<g>
	<line fill="none" stroke="#1B181C" stroke-width="3.3579" x1="59.32" y1="39.5" x2="67.551" y2="39.5"/>
	<polygon fill="#1B181C" points="71.456,39.5 65.003,33.5 65.003,45.5 	"/>
</g>
<g>
	<line fill="none" stroke="#1B181C" stroke-width="3.3579" x1="58.935" y1="59.987" x2="67.166" y2="59.987"/>
	<polygon fill="#1B181C" points="71.071,59.987 64.618,53.987 64.618,65.987 	"/>
</g>
</svg>
