<?xml version="1.0" encoding="UTF-8" standalone="no"?>
<!-- Created with Inkscape (http://www.inkscape.org/) -->

<svg
   xmlns:dc="http://purl.org/dc/elements/1.1/"
   xmlns:cc="http://creativecommons.org/ns#"
   xmlns:rdf="http://www.w3.org/1999/02/22-rdf-syntax-ns#"
   xmlns:svg="http://www.w3.org/2000/svg"
   xmlns="http://www.w3.org/2000/svg"
   xmlns:sodipodi="http://sodipodi.sourceforge.net/DTD/sodipodi-0.dtd"
   xmlns:inkscape="http://www.inkscape.org/namespaces/inkscape"
   width="744.09448819"
   height="1052.3622047"
   id="svg6837"
   version="1.1"
   inkscape:version="0.48.3.1 r9886"
   sodipodi:docname="New document 7">
  <defs
     id="defs6839" />
  <sodipodi:namedview
     id="base"
     pagecolor="#ffffff"
     bordercolor="#666666"
     borderopacity="1.0"
     inkscape:pageopacity="0.0"
     inkscape:pageshadow="2"
     inkscape:zoom="0.35"
     inkscape:cx="375"
     inkscape:cy="520"
     inkscape:document-units="px"
     inkscape:current-layer="layer1"
     showgrid="false"
     inkscape:window-width="639"
     inkscape:window-height="741"
     inkscape:window-x="0"
     inkscape:window-y="27"
     inkscape:window-maximized="0" />
  <metadata
     id="metadata6842">
    <rdf:RDF>
      <cc:Work
         rdf:about="">
        <dc:format>image/svg+xml</dc:format>
        <dc:type
           rdf:resource="http://purl.org/dc/dcmitype/StillImage" />
        <dc:title></dc:title>
      </cc:Work>
    </rdf:RDF>
  </metadata>
  <g
     inkscape:label="Layer 1"
     inkscape:groupmode="layer"
     id="layer1">
    <path
       id="path4008"
       style="fill:#00ff00;fill-opacity:1;fill-rule:nonzero;stroke:none"
       d="m 39.884386,1016.5882 495.736794,0 0,-175.27869 173.06596,0 0,-798.567791 -668.802754,0 z m 521.024964,25.2882 -546.313142,0 0,-1024.422859 719.379112,0 0,849.144149 -173.06597,0 z"
       inkscape:connector-curvature="0"
       sodipodi:nodetypes="cccccccccccccc" />
    <path
       id="path4012"
       style="fill:#00ff00;fill-opacity:1;fill-rule:nonzero;stroke:none"
       d="m 583.16042,898.04986 c 0,4.31163 3.48345,7.78876 7.76347,7.78876 4.29899,0 7.78876,-3.47713 7.78876,-7.78876 0,-4.2737 -3.48977,-7.76979 -7.78876,-7.76979 -4.28002,0 -7.76347,3.49609 -7.76347,7.76979"
       inkscape:connector-curvature="0" />
    <path
       id="path4016"
       style="fill:#00ff00;fill-opacity:1;fill-rule:nonzero;stroke:none"
       d="m 583.16042,924.78325 c 0,4.28635 3.48345,7.76979 7.76347,7.76979 4.29899,0 7.78876,-3.48344 7.78876,-7.76979 0,-4.29899 -3.48977,-7.77611 -7.78876,-7.77611 -4.28002,0 -7.76347,3.47712 -7.76347,7.77611"
       inkscape:connector-curvature="0" />
    <path
       id="path4020"
       style="fill:#00ff00;fill-opacity:1;fill-rule:nonzero;stroke:none"
       d="m 583.16042,951.49136 c 0,4.31163 3.48345,7.78876 7.76347,7.78876 4.29899,0 7.78876,-3.47713 7.78876,-7.78876 0,-4.2737 -3.48977,-7.76979 -7.78876,-7.76979 -4.28002,0 -7.76347,3.49609 -7.76347,7.76979"
       inkscape:connector-curvature="0" />
    <path
       id="path4024"
       style="fill:#00ff00;fill-opacity:1;fill-rule:nonzero;stroke:none"
       d="m 583.16042,978.22413 c 0,4.28635 3.48345,7.76979 7.76347,7.76979 4.29899,0 7.78876,-3.48344 7.78876,-7.76979 0,-4.29899 -3.48977,-7.77611 -7.78876,-7.77611 -4.28002,0 -7.76347,3.47712 -7.76347,7.77611"
       inkscape:connector-curvature="0" />
    <path
       id="path4028"
       style="fill:#00ff00;fill-opacity:1;fill-rule:nonzero;stroke:none"
       d="m 583.16042,1004.9322 c 0,4.2864 3.48345,7.7698 7.76347,7.7698 4.29899,0 7.78876,-3.4834 7.78876,-7.7698 0,-4.299 -3.48977,-7.77607 -7.78876,-7.77607 -4.28002,0 -7.76347,3.47707 -7.76347,7.77607"
       inkscape:connector-curvature="0" />
    <path
       id="path4032"
       style="fill:#00ff00;fill-opacity:1;fill-rule:nonzero;stroke:none"
       d="m 671.07034,932.54989 c 4.30531,0 7.78876,-3.48345 7.78876,-7.76979 0,-4.29267 -3.48345,-7.77612 -7.78876,-7.77612 -4.28002,0 -7.76347,3.48345 -7.76347,7.77612 0,4.28634 3.48345,7.76979 7.76347,7.76979"
       inkscape:connector-curvature="0" />
    <path
       id="path4036"
       style="fill:#00ff00;fill-opacity:1;fill-rule:nonzero;stroke:none"
       d="m 697.80311,905.84178 c 4.28635,0 7.76979,-3.48345 7.76979,-7.76979 0,-4.29267 -3.48344,-7.78876 -7.76979,-7.78876 -4.30531,0 -7.78244,3.49609 -7.78244,7.78876 0,4.28634 3.47713,7.76979 7.78244,7.76979"
       inkscape:connector-curvature="0" />
    <path
       id="path4040"
       style="fill:#00ff00;fill-opacity:1;fill-rule:nonzero;stroke:none"
       d="m 671.07034,905.84178 c 4.30531,0 7.78876,-3.48345 7.78876,-7.76979 0,-4.29267 -3.48345,-7.78876 -7.78876,-7.78876 -4.28002,0 -7.76347,3.49609 -7.76347,7.78876 0,4.28634 3.48345,7.76979 7.76347,7.76979"
       inkscape:connector-curvature="0" />
    <path
       id="path4044"
       style="fill:#00ff00;fill-opacity:1;fill-rule:nonzero;stroke:none"
       d="m 644.3616,959.28265 c 4.30531,0 7.78876,-3.48345 7.78876,-7.78876 0,-4.2737 -3.48345,-7.76979 -7.78876,-7.76979 -4.28002,0 -7.76347,3.49609 -7.76347,7.76979 0,4.30531 3.48345,7.78876 7.76347,7.78876"
       inkscape:connector-curvature="0" />
    <path
       id="path4048"
       style="fill:#00ff00;fill-opacity:1;fill-rule:nonzero;stroke:none"
       d="m 644.3616,932.54989 c 4.30531,0 7.78876,-3.48345 7.78876,-7.76979 0,-4.29267 -3.48345,-7.77612 -7.78876,-7.77612 -4.28002,0 -7.76347,3.48345 -7.76347,7.77612 0,4.28634 3.48345,7.76979 7.76347,7.76979"
       inkscape:connector-curvature="0" />
    <path
       id="path4052"
       style="fill:#00ff00;fill-opacity:1;fill-rule:nonzero;stroke:none"
       d="m 644.3616,905.84178 c 4.30531,0 7.78876,-3.48345 7.78876,-7.76979 0,-4.29267 -3.48345,-7.78876 -7.78876,-7.78876 -4.28002,0 -7.76347,3.49609 -7.76347,7.78876 0,4.28634 3.48345,7.76979 7.76347,7.76979"
       inkscape:connector-curvature="0" />
    <path
       id="path4056"
       style="fill:#00ff00;fill-opacity:1;fill-rule:nonzero;stroke:none"
       d="m 617.62884,985.99076 c 4.31163,0 7.78876,-3.48345 7.78876,-7.76979 0,-4.29267 -3.47713,-7.77612 -7.78876,-7.77612 -4.28002,0 -7.76347,3.48345 -7.76347,7.77612 0,4.28634 3.48345,7.76979 7.76347,7.76979"
       inkscape:connector-curvature="0" />
    <path
       id="path4060"
       style="fill:#00ff00;fill-opacity:1;fill-rule:nonzero;stroke:none"
       d="m 617.6535,959.28265 c 4.30531,0 7.78876,-3.48345 7.78876,-7.78876 0,-4.2737 -3.48345,-7.76979 -7.78876,-7.76979 -4.30531,0 -7.78244,3.49609 -7.78244,7.76979 0,4.30531 3.47713,7.78876 7.78244,7.78876"
       inkscape:connector-curvature="0" />
    <path
       id="path4064"
       style="fill:#00ff00;fill-opacity:1;fill-rule:nonzero;stroke:none"
       d="m 617.6535,932.54989 c 4.28635,0 7.76979,-3.48345 7.76979,-7.76979 0,-4.26738 -3.48344,-7.76347 -7.76979,-7.76347 -4.30531,0 -7.78244,3.49609 -7.78244,7.76347 0,4.28634 3.47713,7.76979 7.78244,7.76979"
       inkscape:connector-curvature="0" />
    <path
       id="path4068"
       style="fill:#00ff00;fill-opacity:1;fill-rule:nonzero;stroke:none"
       d="m 617.6535,905.84178 c 4.28635,0 7.76979,-3.48345 7.76979,-7.76979 0,-4.29267 -3.48344,-7.78876 -7.76979,-7.78876 -4.30531,0 -7.78244,3.49609 -7.78244,7.78876 0,4.28634 3.47713,7.76979 7.78244,7.76979"
       inkscape:connector-curvature="0" />
    <path
       id="path4072"
       style="fill:#00ff00;fill-opacity:1;fill-rule:nonzero;stroke:none"
       d="m 590.92073,905.84178 c 4.30531,0 7.78876,-3.48345 7.78876,-7.76979 0,-4.29267 -3.48345,-7.78876 -7.78876,-7.78876 -4.28002,0 -7.76347,3.49609 -7.76347,7.78876 0,4.28634 3.48345,7.76979 7.76347,7.76979"
       inkscape:connector-curvature="0" />
    <path
       id="path4076"
       style="fill:#00ff00;fill-opacity:1;fill-rule:nonzero;stroke:none"
       d="m 109.06272,171.14371 c 0.44887,0.10115 0.94831,0.13276 1.492,0.13276 l 1.48568,0 c 3.78691,0 6.9669,-0.71439 9.53997,-2.15581 2.57307,-1.44775 4.6467,-3.43287 6.22089,-5.95537 1.58051,-2.52882 2.71216,-5.53179 3.38862,-9.00259 0.67013,-3.46448 1.01152,-7.283 1.01152,-11.43026 0,-3.60356 -0.27185,-7.12494 -0.80922,-10.55781 -0.54369,-3.42023 -1.492,-6.44849 -2.84492,-9.06581 -1.35292,-2.61733 -3.19895,-4.7036 -5.54443,-6.28412 -2.3518,-1.58051 -5.37374,-2.37076 -9.06581,-2.37076 -0.72704,0 -1.53626,0.0253 -2.44031,0.0632 -0.89773,0.0506 -1.71328,0.15805 -2.43399,0.34771 l 0,56.27884 z m 40.05015,-28.41127 c 0,7.76347 -0.96727,14.37001 -2.90814,19.83226 -1.94087,5.45592 -4.62141,9.88767 -8.04796,13.32054 -3.42655,3.43287 -7.51059,5.92376 -12.2458,7.50427 -4.73521,1.58683 -9.94458,2.37709 -15.6281,2.37709 -2.97768,0 -5.88582,-0.16437 -8.72442,-0.47415 -2.844917,-0.31611 -5.892142,-0.84084 -9.135351,-1.55523 l 0,-81.73139 c 3.786905,-0.80922 7.346216,-1.35292 10.690581,-1.62476 3.33171,-0.27185 6.44848,-0.410936 9.33133,-0.410936 5.50018,0 10.53253,0.815546 15.09072,2.446636 4.55188,1.61844 8.40832,4.17254 11.56302,7.64335 3.16103,3.4708 5.6203,7.88991 7.37783,13.26365 1.75753,5.35477 2.63629,11.84119 2.63629,19.40867"
       inkscape:connector-curvature="0" />
    <path
       id="path4080"
       style="fill:#00ff00;fill-opacity:1;fill-rule:nonzero;stroke:none"
       d="m 177.66639,184.67667 0,-13.7947 18.26439,0 0,-56.1524 -18.26439,0 0,-13.80734 53.17472,0 0,13.80734 -18.13163,0 0,56.1524 18.13163,0 0,13.7947 -53.17472,0 z"
       inkscape:connector-curvature="0" />
    <path
       id="path4084"
       style="fill:#00ff00;fill-opacity:1;fill-rule:nonzero;stroke:none"
       d="m 297.82253,113.50436 c -3.97024,0 -7.30828,0.72704 -10.01412,2.17478 -2.70583,1.42879 -4.93752,3.44552 -6.69504,6.01227 -1.75753,2.56675 -3.02826,5.64558 -3.79323,9.19857 -0.76497,3.56564 -1.14429,7.51691 -1.14429,11.84119 0,10.01412 1.57419,17.38562 4.73521,22.12716 3.1547,4.72889 7.8014,7.09965 13.93379,7.09965 0.99256,0 2.07363,-0.0379 3.24953,-0.13276 1.16958,-0.0885 2.25065,-0.22759 3.24953,-0.41093 l 0,-30.57341 16.63962,0 0,41.814 c -1.98512,0.71439 -5.0766,1.52994 -9.26812,2.42767 -4.19151,0.90405 -9.26811,1.35924 -15.22348,1.35924 -5.23465,0 -9.94458,-0.92302 -14.13609,-2.77538 -4.19784,-1.85236 -7.78244,-4.60877 -10.76012,-8.25027 -2.97768,-3.65414 -5.27891,-8.21233 -6.90367,-13.66826 -1.62477,-5.45592 -2.43399,-11.79061 -2.43399,-19.01671 0,-7.12494 0.94831,-13.40905 2.84492,-18.87762 1.89029,-5.44961 4.46336,-10.02677 7.70657,-13.73148 3.24953,-3.69208 7.08069,-6.47378 11.50612,-8.32614 4.41911,-1.839711 9.15432,-2.76273 14.20564,-2.76273 3.24953,0 6.15767,0.24656 8.73074,0.73968 2.56675,0.49312 4.79843,1.0621 6.69504,1.69431 1.8903,0.62588 3.45184,1.30866 4.66567,2.02305 1.22016,0.72704 2.14318,1.27073 2.77538,1.63109 l -4.3306,13.25733 c -1.98512,-1.27073 -4.41911,-2.38974 -7.30196,-3.3823 -2.88918,-0.99888 -5.86686,-1.492 -8.93305,-1.492"
       inkscape:connector-curvature="0" />
    <path
       id="path4088"
       style="fill:#00ff00;fill-opacity:1;fill-rule:nonzero;stroke:none"
       d="m 348.15802,184.67667 0,-13.7947 18.26439,0 0,-56.1524 -18.26439,0 0,-13.80734 53.17472,0 0,13.80734 -18.13163,0 0,56.1524 18.13163,0 0,13.7947 -53.17472,0 z"
       inkscape:connector-curvature="0" />
    <path
       id="path4092"
       style="fill:#00ff00;fill-opacity:1;fill-rule:nonzero;stroke:none"
       d="m 490.36988,100.92223 0,13.80734 -22.05761,0 0,69.9471 -16.77871,0 0,-69.9471 -22.05129,0 0,-13.80734 60.88761,0 z"
       inkscape:connector-curvature="0" />
    <path
       id="path4096"
       style="fill:#00ff00;fill-opacity:1;fill-rule:nonzero;stroke:none"
       d="m 545.03344,117.15977 c -0.90405,3.16102 -1.73856,6.16399 -2.50353,9.00259 -0.76497,2.8386 -1.48568,5.62662 -2.16214,8.38303 -0.67646,2.75641 -1.30866,5.53179 -1.89661,8.31981 -0.58795,2.80699 -1.15061,5.68352 -1.68799,8.6612 l 16.36778,0 c -0.53738,-2.97768 -1.08107,-5.85421 -1.62477,-8.6612 -0.53737,-2.78802 -1.14429,-5.5634 -1.82075,-8.31981 -0.67646,-2.75641 -1.40349,-5.54443 -2.16846,-8.38303 -0.76497,-2.8386 -1.59948,-5.84157 -2.50353,-9.00259 m 14.88209,67.51943 -3.91967,-19.35177 -22.32946,0 -3.7869,19.35177 -17.3224,0 c 3.97024,-16.51318 7.98474,-31.55332 12.04981,-45.12043 4.05876,-13.57975 7.97842,-26.46407 11.76533,-38.63401 l 18.13794,0 c 3.96393,12.27109 7.90888,25.28818 11.83487,39.03862 3.92599,13.75677 7.73818,28.66415 11.43658,44.71582 l -17.8661,0 z"
       inkscape:connector-curvature="0" />
    <path
       id="path4100"
       style="fill:#00ff00;fill-opacity:1;fill-rule:nonzero;stroke:none"
       d="m 658.82707,184.67667 -52.63734,0 0,-83.75444 16.7787,0 0,69.95974 35.85864,0 0,13.7947 z"
       inkscape:connector-curvature="0" />
    <path
       id="path4104"
       style="fill:#00ff00;fill-opacity:1;fill-rule:nonzero;stroke:none"
       d="m 117.31679,272.50631 c -0.99256,0 -2.37077,0.0253 -4.12829,0.0632 -1.75753,0.0506 -3.12942,0.15805 -4.1283,0.34139 l 0,27.05835 6.77091,0 c 5.31684,0 9.33766,-1.04946 12.03717,-3.17367 2.71216,-2.1242 4.06508,-5.75306 4.06508,-10.89288 0,-4.87429 -1.33395,-8.31981 -3.99554,-10.36183 -2.66158,-2.02305 -6.20192,-3.03458 -10.62103,-3.03458 m -1.89029,-14.4838 c 10.64,0 18.89027,2.20007 24.75712,6.5686 5.86054,4.36853 8.79397,11.51877 8.79397,21.4507 0,10.01412 -2.9524,17.24653 -8.86351,21.71622 -5.90479,4.45704 -14.26885,6.69504 -25.09851,6.69504 l -5.95537,0 0,28.27219 -16.639621,0 0,-82.66706 c 1.624766,-0.35403 3.451836,-0.67645 5.481213,-0.9483 2.029376,-0.27185 4.077718,-0.46783 6.157668,-0.60692 2.07363,-0.13276 4.10301,-0.24656 6.08813,-0.34771 1.98512,-0.0822 3.74265,-0.13276 5.27891,-0.13276"
       inkscape:connector-curvature="0" />
    <path
       id="path4108"
       style="fill:#00ff00;fill-opacity:1;fill-rule:nonzero;stroke:none"
       d="m 203.91805,344.49353 c -5.41167,0 -9.94458,-0.75232 -13.59872,-2.238 -3.65414,-1.49201 -6.56228,-3.62886 -8.73074,-6.42952 -2.16214,-2.78802 -3.6984,-6.17664 -4.59613,-10.14056 -0.90405,-3.97657 -1.35924,-8.39568 -1.35924,-13.25733 l 0,-53.45288 16.78503,0 0,52.36549 c 0,3.52138 0.17702,6.46745 0.53738,8.86351 0.36035,2.38341 0.96727,4.31163 1.82707,5.74041 0.85347,1.44775 2.04834,2.48457 3.5846,3.11677 1.53625,0.63853 3.4708,0.94831 5.81628,0.94831 2.3518,0 4.28634,-0.30978 5.8226,-0.94831 1.53626,-0.6322 2.75009,-1.69431 3.65414,-3.17367 0.89773,-1.49832 1.52994,-3.43287 1.89029,-5.81628 0.36036,-2.39605 0.5437,-5.34845 0.5437,-8.86983 l 0,-52.2264 16.64594,0 0,53.45288 c 0,4.86165 -0.45519,9.28076 -1.35292,13.25733 -0.90405,3.96392 -2.48456,7.35254 -4.73521,10.14056 -2.25697,2.80066 -5.23465,4.93751 -8.93305,6.42952 -3.69839,1.48568 -8.30084,2.238 -13.80102,2.238"
       inkscape:connector-curvature="0" />
    <path
       id="path4112"
       style="fill:#00ff00;fill-opacity:1;fill-rule:nonzero;stroke:none"
       d="m 279.55372,306.06751 0,22.73407 c 1.1759,0.1707 2.45928,0.30978 3.85645,0.39197 1.39717,0.10115 2.77537,0.13908 4.12829,0.13908 1.89029,0 3.74265,-0.15173 5.55076,-0.47415 1.80178,-0.30346 3.40126,-0.89773 4.79843,-1.75121 1.40349,-0.86612 2.54778,-2.07363 3.45184,-3.65414 0.89773,-1.58051 1.35291,-3.59092 1.35291,-6.02491 0,-4.06507 -1.28337,-6.96689 -3.85644,-8.73074 -2.56675,-1.75121 -6.01859,-2.62997 -10.34919,-2.62997 l -8.93305,0 z m 6.49274,-13.80734 c 4.24209,0 7.44737,-0.92302 9.60951,-2.77538 2.16846,-1.83972 3.24953,-4.39382 3.24953,-7.64335 0,-1.98513 -0.3161,-3.57828 -0.94831,-4.80476 -0.6322,-1.22015 -1.48568,-2.16214 -2.57307,-2.8386 -1.08107,-0.67645 -2.34548,-1.12532 -3.78691,-1.35924 -1.44142,-0.22127 -2.93342,-0.33506 -4.46336,-0.33506 -1.26441,0 -2.57307,0.0506 -3.92599,0.13908 -1.35292,0.0885 -2.57307,0.22127 -3.65414,0.40461 l 0,19.2127 6.49274,0 z m 33.02004,25.16805 c 0,5.05132 -0.8598,9.27444 -2.57307,12.65674 -1.71328,3.38229 -4.03347,6.08813 -6.9669,8.11118 -2.93343,2.0357 -6.40423,3.4708 -10.41873,4.33692 -4.01449,0.84716 -8.31981,1.28338 -12.92226,1.28338 -3.69839,0 -7.53587,-0.21495 -11.50612,-0.60692 -3.96392,-0.40461 -7.88991,-1.02417 -11.76532,-1.82707 l 0,-81.32046 c 3.1547,-0.54369 6.63182,-1.01152 10.41873,-1.42246 3.7869,-0.40461 7.52955,-0.61956 11.22795,-0.61956 6.31572,0 11.45554,0.6575 15.42579,1.96616 3.97024,1.30866 7.08069,3.02194 9.33766,5.14614 2.25064,2.11157 3.7869,4.48233 4.60245,7.09966 0.80922,2.62365 1.21383,5.24097 1.21383,7.8583 0,3.96392 -0.96727,7.47898 -2.90814,10.54517 -1.94087,3.07251 -4.53291,5.5065 -7.78244,7.30828 5.68352,2.07363 9.53997,4.8743 11.57566,8.38303 2.02306,3.52138 3.04091,7.2261 3.04091,11.10151"
       inkscape:connector-curvature="0" />
    <path
       id="path4116"
       style="fill:#00ff00;fill-opacity:1;fill-rule:nonzero;stroke:none"
       d="m 403.09342,342.72778 -52.63734,0 0,-83.75444 16.7787,0 0,69.95974 35.85864,0 0,13.7947 z"
       inkscape:connector-curvature="0" />
    <path
       id="path4120"
       style="fill:#00ff00;fill-opacity:1;fill-rule:nonzero;stroke:none"
       d="m 433.40383,342.72778 0,-13.7947 18.26439,0 0,-56.1524 -18.26439,0 0,-13.80734 53.17472,0 0,13.80734 -18.13163,0 0,56.1524 18.13163,0 0,13.7947 -53.17472,0 z"
       inkscape:connector-curvature="0" />
    <path
       id="path4124"
       style="fill:#00ff00;fill-opacity:1;fill-rule:nonzero;stroke:none"
       d="m 542.73348,330.55342 c 2.79434,0 5.12086,-0.29714 6.97321,-0.87876 1.84604,-0.58795 3.31276,-1.39085 4.39383,-2.42767 1.08107,-1.03681 1.82707,-2.21271 2.23168,-3.52138 0.40461,-1.30866 0.61324,-2.64261 0.61324,-4.00185 0,-1.70063 -0.49945,-3.24953 -1.49201,-4.58981 -0.99256,-1.35924 -2.25697,-2.56042 -3.7869,-3.59724 -1.53626,-1.03681 -3.24953,-1.97248 -5.13982,-2.8386 -1.89662,-0.85347 -3.79323,-1.64373 -5.68352,-2.37076 -2.52882,-0.89141 -5.14615,-1.94087 -7.85198,-3.11045 -2.70584,-1.16326 -5.16511,-2.65526 -7.37783,-4.45704 -2.20639,-1.80178 -4.03346,-4.03979 -5.47489,-6.70769 -1.44774,-2.65526 -2.16846,-5.97433 -2.16846,-9.93825 0,-7.85198 2.54779,-13.97804 7.64335,-18.39715 5.10189,-4.41911 12.11304,-6.63183 21.04609,-6.63183 5.13982,0 9.62847,0.58163 13.45963,1.75121 3.83748,1.1759 7.06173,2.48456 9.67905,3.92599 l -4.87429,12.85904 c -2.25697,-1.26441 -4.7605,-2.3518 -7.51059,-3.24953 -2.75009,-0.90406 -5.93008,-1.35924 -9.53997,-1.35924 -8.83822,0 -13.25733,3.21159 -13.25733,9.6095 0,1.62477 0.44887,3.04723 1.35292,4.26738 0.89773,1.21384 2.04834,2.30123 3.45184,3.24953 1.39717,0.93567 2.97768,1.7765 4.73521,2.49721 1.75753,0.72704 3.49609,1.4035 5.20936,2.0357 2.61101,0.98624 5.34845,2.09892 8.18705,3.30643 2.8386,1.22648 5.45593,2.8386 7.84566,4.88062 2.38973,2.02305 4.34957,4.55187 5.88582,7.56748 1.53626,3.02826 2.30123,6.84046 2.30123,11.43658 0,7.85198 -2.54779,13.91482 -7.64336,18.19485 -5.10188,4.28634 -12.83375,6.43584 -23.20822,6.43584 -6.94793,0 -12.49236,-0.75233 -16.63962,-2.23168 -4.15358,-1.49833 -7.26403,-2.87021 -9.33766,-4.1283 l 4.86797,-13.52917 c 2.43399,1.44142 5.34845,2.78802 8.73075,4.05875 3.38229,1.25809 7.50426,1.89029 12.37856,1.89029"
       inkscape:connector-curvature="0" />
    <path
       id="path4128"
       style="fill:#00ff00;fill-opacity:1;fill-rule:nonzero;stroke:none"
       d="m 658.15125,258.97334 0,83.75444 -16.63962,0 0,-36.93338 -22.1967,0 0,36.93338 -16.63962,0 0,-83.75444 16.63962,0 0,33.02004 22.1967,0 0,-33.02004 16.63962,0 z"
       inkscape:connector-curvature="0" />
    <path
       id="path4132"
       style="fill:#00ff00;fill-opacity:1;fill-rule:nonzero;stroke:none"
       d="m 92.420575,500.77889 0,-13.7947 18.264385,0 0,-56.1524 -18.264385,0 0,-13.80734 53.174715,0 0,13.80734 -18.13162,0 0,56.1524 18.13162,0 0,13.7947 -53.174715,0 z"
       inkscape:connector-curvature="0" />
    <path
       id="path4136"
       style="fill:#00ff00;fill-opacity:1;fill-rule:nonzero;stroke:none"
       d="m 218.39553,500.77889 c -3.79323,-9.28708 -7.9152,-18.56152 -12.37856,-27.80435 -4.46969,-9.23651 -9.27444,-18.51095 -14.41426,-27.81067 l 0,55.61502 -15.02118,0 0,-83.75444 13.39641,0 c 2.52882,3.97656 5.05131,8.27555 7.58013,12.92858 2.5225,4.64038 4.98177,9.26179 7.37151,13.86424 2.38973,4.59613 4.60244,9.06581 6.63182,13.39641 2.02938,4.32428 3.76794,8.11751 5.20936,11.36072 l 0,-51.54995 15.02118,0 0,83.75444 -13.39641,0 z"
       inkscape:connector-curvature="0" />
    <path
       id="path4140"
       style="fill:#00ff00;fill-opacity:1;fill-rule:nonzero;stroke:none"
       d="m 297.82253,429.60658 c -3.97024,0 -7.30828,0.72704 -10.01412,2.17478 -2.70583,1.42879 -4.93752,3.44552 -6.69504,6.01227 -1.75753,2.56675 -3.02826,5.64558 -3.79323,9.19857 -0.76497,3.56564 -1.14429,7.51691 -1.14429,11.84119 0,10.01412 1.57419,17.38562 4.73521,22.12716 3.1547,4.72889 7.8014,7.09965 13.93379,7.09965 0.99256,0 2.07363,-0.0379 3.24953,-0.13276 1.16958,-0.0885 2.25065,-0.22759 3.24953,-0.41093 l 0,-30.57341 16.63962,0 0,41.814 c -1.98512,0.71439 -5.0766,1.52994 -9.26812,2.42767 -4.19151,0.90405 -9.26811,1.35924 -15.22348,1.35924 -5.23465,0 -9.94458,-0.92302 -14.13609,-2.77538 -4.19784,-1.85236 -7.78244,-4.60877 -10.76012,-8.25027 -2.97768,-3.65414 -5.27891,-8.21233 -6.90367,-13.66826 -1.62477,-5.45592 -2.43399,-11.79061 -2.43399,-19.01671 0,-7.12494 0.94831,-13.40905 2.84492,-18.87762 1.89029,-5.44961 4.46336,-10.02677 7.70657,-13.73148 3.24953,-3.69208 7.08069,-6.47378 11.50612,-8.32614 4.41911,-1.83971 9.15432,-2.76273 14.20564,-2.76273 3.24953,0 6.15767,0.24656 8.73074,0.73968 2.56675,0.49312 4.79843,1.0621 6.69504,1.69431 1.8903,0.62588 3.45184,1.30866 4.66567,2.02305 1.22016,0.72704 2.14318,1.27073 2.77538,1.63109 l -4.3306,13.25733 c -1.98512,-1.27073 -4.41911,-2.38974 -7.30196,-3.3823 -2.88918,-0.99888 -5.86686,-1.492 -8.93305,-1.492"
       inkscape:connector-curvature="0" />
    <path
       id="path4144"
       style="fill:#00ff00;fill-opacity:1;fill-rule:nonzero;stroke:none"
       d="m 405.12406,417.02445 0,13.80734 -22.05761,0 0,69.9471 -16.77871,0 0,-69.9471 -22.05129,0 0,-13.80734 60.88761,0 z"
       inkscape:connector-curvature="0" />
    <path
       id="path4148"
       style="fill:#00ff00;fill-opacity:1;fill-rule:nonzero;stroke:none"
       d="m 446.66495,458.83403 c 0,4.06507 0.15173,7.87727 0.47415,11.43658 0.31611,3.56563 0.94831,6.65079 1.89662,9.26812 0.94198,2.61732 2.26961,4.69727 3.98921,6.22721 1.71327,1.52993 4.01449,2.2949 6.89735,2.2949 2.80066,0 5.0766,-0.76497 6.83413,-2.2949 1.76385,-1.52994 3.11044,-3.62885 4.05875,-6.29676 0.94831,-2.65526 1.58051,-5.74674 1.89661,-9.26179 0.31611,-3.52138 0.47416,-7.30829 0.47416,-11.37336 0,-4.06507 -0.15805,-7.86462 -0.47416,-11.43658 -0.3161,-3.55299 -0.9483,-6.63814 -1.89661,-9.25547 -0.94831,-2.62365 -2.27594,-4.69728 -3.98921,-6.23986 -1.7196,-1.52993 -4.0145,-2.2949 -6.90367,-2.2949 -2.88286,0 -5.18408,0.76497 -6.89735,2.2949 -1.7196,1.54258 -3.04723,3.6415 -3.98921,6.29676 -0.94831,2.6679 -1.58051,5.75306 -1.89662,9.27444 -0.32242,3.52137 -0.47415,7.29564 -0.47415,11.36071 m -16.91779,0 c 0,-14.43323 2.66158,-25.32611 7.98474,-32.67233 5.32316,-7.35886 12.71995,-11.02564 22.19038,-11.02564 9.83078,0 17.3224,3.66678 22.46222,11.02564 5.13982,7.34622 7.7129,18.2391 7.7129,32.67233 0,14.43323 -2.61733,25.32611 -7.84566,32.68497 -5.23465,7.34622 -12.63145,11.02564 -22.19038,11.02564 -9.8371,0 -17.34769,-3.67942 -22.53176,-11.02564 -5.1904,-7.35886 -7.78244,-18.25174 -7.78244,-32.68497"
       inkscape:connector-curvature="0" />
    <path
       id="path4152"
       style="fill:#00ff00;fill-opacity:1;fill-rule:nonzero;stroke:none"
       d="m 531.91077,458.83403 c 0,4.06507 0.15173,7.87727 0.47415,11.43658 0.31611,3.56563 0.94831,6.65079 1.89662,9.26812 0.94198,2.61732 2.26961,4.69727 3.98921,6.22721 1.71327,1.52993 4.01449,2.2949 6.89735,2.2949 2.80066,0 5.0766,-0.76497 6.83413,-2.2949 1.76385,-1.52994 3.11044,-3.62885 4.05875,-6.29676 0.94831,-2.65526 1.58051,-5.74674 1.89661,-9.26179 0.31611,-3.52138 0.47416,-7.30829 0.47416,-11.37336 0,-4.06507 -0.15805,-7.86462 -0.47416,-11.43658 -0.3161,-3.55299 -0.9483,-6.63814 -1.89661,-9.25547 -0.94831,-2.62365 -2.27594,-4.69728 -3.98921,-6.23986 -1.7196,-1.52993 -4.0145,-2.2949 -6.90367,-2.2949 -2.88286,0 -5.18408,0.76497 -6.89735,2.2949 -1.7196,1.54258 -3.04723,3.6415 -3.98921,6.29676 -0.94831,2.6679 -1.58051,5.75306 -1.89662,9.27444 -0.32242,3.52137 -0.47415,7.29564 -0.47415,11.36071 m -16.91779,0 c 0,-14.43323 2.66158,-25.32611 7.98474,-32.67233 5.32316,-7.35886 12.71995,-11.02564 22.19038,-11.02564 9.83078,0 17.3224,3.66678 22.46222,11.02564 5.13982,7.34622 7.7129,18.2391 7.7129,32.67233 0,14.43323 -2.61733,25.32611 -7.84566,32.68497 -5.23465,7.34622 -12.63145,11.02564 -22.19038,11.02564 -9.8371,0 -17.34769,-3.67942 -22.53176,-11.02564 -5.1904,-7.35886 -7.78244,-18.25174 -7.78244,-32.68497"
       inkscape:connector-curvature="0" />
    <path
       id="path4156"
       style="fill:#00ff00;fill-opacity:1;fill-rule:nonzero;stroke:none"
       d="m 658.82707,500.77889 -52.63734,0 0,-83.75444 16.7787,0 0,69.95974 35.85864,0 0,13.7947 z"
       inkscape:connector-curvature="0" />
    <path
       id="path4160"
       style="fill:#00ff00;fill-opacity:1;fill-rule:nonzero;stroke:none"
       d="m 132.47389,658.83 c -0.99256,-3.14838 -2.41502,-6.55596 -4.26106,-10.2101 -1.85236,-3.65414 -3.90702,-7.21345 -6.15767,-10.6969 -2.25697,-3.46448 -4.62141,-6.71401 -7.10598,-9.74227 -2.48456,-3.00929 -4.84901,-5.56972 -7.10597,-7.64335 l 0,38.29262 -16.639626,0 0,-83.75444 16.639626,0 0,34.77124 c 1.98512,-2.51617 4.06507,-5.32316 6.22721,-8.38303 2.16846,-3.06619 4.2168,-6.13871 6.15767,-9.19858 1.94087,-3.07883 3.71736,-6.08812 5.34213,-9.06581 1.62476,-2.99032 2.97768,-5.68984 4.05875,-8.12382 l 18.80808,0 c -1.26441,2.43398 -2.77538,5.20936 -4.52658,8.31981 -1.76385,3.11676 -3.77426,6.35997 -6.02491,9.74227 -2.25697,3.38861 -4.66567,6.8278 -7.23874,10.34918 -2.57307,3.52138 -5.25994,6.90368 -8.04796,10.15321 2.78802,2.69951 5.63294,5.80996 8.52211,9.33133 2.88285,3.52138 5.61398,7.283 8.18705,11.2975 2.56675,4.0145 4.88694,8.12382 6.96689,12.32166 2.07363,4.19152 3.74265,8.27556 5.00706,12.23948 l -18.80808,0 z"
       inkscape:connector-curvature="0" />
    <path
       id="path4164"
       style="fill:#00ff00;fill-opacity:1;fill-rule:nonzero;stroke:none"
       d="m 177.66639,658.83 0,-13.7947 18.26439,0 0,-56.1524 -18.26439,0 0,-13.80734 53.17472,0 0,13.80734 -18.13163,0 0,56.1524 18.13163,0 0,13.7947 -53.17472,0 z"
       inkscape:connector-curvature="0" />
    <path
       id="path4168"
       style="fill:#00ff00;fill-opacity:1;fill-rule:nonzero;stroke:none"
       d="m 319.87888,575.07556 0,13.80734 -22.05761,0 0,69.9471 -16.77871,0 0,-69.9471 -22.05129,0 0,-13.80734 60.88761,0 z"
       inkscape:connector-curvature="0" />
  </g>
</svg>
