<?xml version="1.0" encoding="utf-8"?>
<!-- Generator: Adobe Illustrator 16.0.0, SVG Export Plug-In . SVG Version: 6.00 Build 0)  -->
<!DOCTYPE svg PUBLIC "-//W3C//DTD SVG 1.1//EN" "http://www.w3.org/Graphics/SVG/1.1/DTD/svg11.dtd">
<svg version="1.1" id="Layer_1" xmlns="http://www.w3.org/2000/svg" xmlns:xlink="http://www.w3.org/1999/xlink" x="0px" y="0px"
	 width="40px" height="40px" viewBox="0 0 40 40" enable-background="new 0 0 40 40" xml:space="preserve">
<path id="path2980" fill="#5C5C5C" d="M4.823,18.629c0-3.908,6.825-7.076,15.242-7.076c8.418,0,15.241,3.168,15.241,7.076
	c0,0.362-0.06,0.719-0.172,1.064C35.691,18.959,36,18.171,36,17.35c0-3.992-7.163-7.228-16-7.228S4,13.357,4,17.35
	c0,0.934,0.396,1.824,1.109,2.644C4.924,19.552,4.823,19.096,4.823,18.629"/>
<path id="path2982" fill="#5C5C5C" d="M10.239,15.925H8.518v7.036c0.521,0.162,1.091,0.318,1.722,0.461V15.925L10.239,15.925z
	 M10.474,27.014c-0.158-0.173-0.234-0.377-0.234-0.621v-2.547c-0.627-0.139-1.198-0.289-1.722-0.447v3.27
	c0,0.231,0.044,0.474,0.129,0.719s0.217,0.473,0.388,0.676c0.173,0.203,0.391,0.372,0.647,0.502
	c0.261,0.129,0.572,0.195,0.927,0.195h3.306v-1.496h-2.82C10.83,27.264,10.627,27.182,10.474,27.014 M19.391,24.758v1.438
	l-0.018,0.19c0,0.143-0.019,0.715-0.042,0.878c-0.178,0.054-0.91,0.048-1.164,0.046l-0.172-0.002c-0.305,0-0.548-0.034-0.724-0.103
	c-0.171-0.067-0.3-0.148-0.384-0.241c-0.083-0.094-0.136-0.191-0.159-0.297l-0.04-0.299v-0.173l-0.004-1.532
	c-0.605-0.033-1.183-0.076-1.735-0.125v2.107l0.072,0.572c0.049,0.258,0.183,0.515,0.393,0.763c0.209,0.245,0.522,0.458,0.935,0.634
	c0.407,0.174,0.974,0.262,1.683,0.262h0.243c0.265,0.001,0.499,0,0.716-0.001c0.106-0.03,0.367-0.114,0.438-0.243
	c0.061-0.111,0.161,0.092,0.22,0.232c1.122-0.031,1.358-0.125,1.393-0.294c0.051-0.253,0.072-1.821,0.072-1.925v-1.882
	c-0.021,0-0.042,0.001-0.062,0.001C20.479,24.77,19.926,24.766,19.391,24.758 M30.682,26.195l-0.019,0.19
	c0,0.147-0.017,0.717-0.042,0.878c-0.176,0.054-0.91,0.049-1.163,0.047l-0.171-0.002c-0.306,0-0.55-0.034-0.725-0.104
	c-0.171-0.066-0.301-0.148-0.383-0.24c-0.084-0.094-0.137-0.191-0.16-0.297l-0.04-0.299v-0.174l-0.005-1.933
	c-0.54,0.087-1.117,0.165-1.735,0.232v2.151l0.071,0.571c0.052,0.261,0.185,0.517,0.395,0.763c0.209,0.246,0.523,0.459,0.935,0.635
	c0.408,0.174,0.974,0.262,1.682,0.262h0.244c0.232,0,0.442,0,0.64-0.002c0.105-0.028,0.368-0.113,0.438-0.242
	c0.062-0.111,0.162,0.094,0.221,0.233c1.185-0.029,1.432-0.123,1.467-0.296c0.05-0.25,0.072-1.82,0.072-1.924v-3.604
	c-0.493,0.219-1.063,0.429-1.722,0.622V26.195L30.682,26.195z M22.992,28.76h1.722v-4.129c-0.546,0.039-1.12,0.07-1.722,0.093V28.76
	z M30.682,19.428v3.823c0.668-0.2,1.236-0.417,1.721-0.644v-3.18H30.682z M27.961,19.428h-1.722v4.666
	c0.62-0.068,1.196-0.146,1.732-0.234L27.961,19.428L27.961,19.428z M19.392,24.355c0.533,0.009,1.085,0.012,1.656,0.008
	c0.021,0,0.042,0,0.064,0v-4.936h-1.721V24.355L19.392,24.355z M16.67,19.428h-1.721v4.705c0.552,0.05,1.128,0.094,1.733,0.128
	L16.67,19.428L16.67,19.428z M22.992,24.322c0.602-0.023,1.178-0.053,1.722-0.092v-8.306h-1.722V24.322z"/>
</svg>
