<?xml version="1.0" encoding="utf-8"?>
<!-- Generator: Adobe Illustrator 16.0.0, SVG Export Plug-In . SVG Version: 6.00 Build 0)  -->
<!DOCTYPE svg PUBLIC "-//W3C//DTD SVG 1.1//EN" "http://www.w3.org/Graphics/SVG/1.1/DTD/svg11.dtd">
<svg version="1.1" id="Layer_1" xmlns="http://www.w3.org/2000/svg" xmlns:xlink="http://www.w3.org/1999/xlink" x="0px" y="0px"
	 width="419.529px" height="595.279px" viewBox="0 0 419.529 595.279" enable-background="new 0 0 419.529 595.279"
	 xml:space="preserve">
<rect x="8" y="9" width="151.756" height="18.654"/>
<rect x="-315" y="12" fill="none" width="273" height="603.999"/>
<rect x="10" y="11" fill="none" width="169.742" height="60.652"/>
<text transform="matrix(1 0 0 1 10.9998 23.968)" fill="#FFFFFF" font-family="'Ubuntu-Medium'" font-size="18">WORKFLOW XML</text>
<text transform="matrix(1 0 0 1 62.5276 43.968)" font-family="'Ubuntu-Medium'" font-size="18">XML</text>
<text transform="matrix(1 0 0 1 48.3499 43.968)" font-family="'Ubuntu-Medium'" font-size="18" letter-spacing="29"> </text>
<text transform="matrix(1 0 0 1 137.1877 43.968)" font-family="'Ubuntu-Medium'" font-size="18">print</text>
<text transform="matrix(1 0 0 1 10.9998 63.968)" font-family="'Ubuntu-Medium'" font-size="18" letter-spacing="30">   </text>
<text transform="matrix(1 0 0 1 137.1877 63.968)" font-family="'Ubuntu-Medium'" font-size="18">eBook</text>
<path fill="#020202" d="M163.317,171.824h-49.872v-64.521h49.871L163.317,171.824L163.317,171.824z M115.445,169.824h45.871v-60.521
	h-45.871V169.824L115.445,169.824z"/>
<path fill="#020202" d="M79.194,171.155H29.322v-64.521h49.871L79.194,171.155L79.194,171.155z M31.322,169.155h45.871v-60.521
	H31.322V169.155L31.322,169.155z"/>
<text transform="matrix(1 0 0 1 118.9392 119.5579)" fill="#1B181C" font-family="'Ubuntu-Light'" font-size="9">XML </text>
<text transform="matrix(1 0 0 1 118.9392 130.5579)" fill="#1B181C" font-family="'Ubuntu-Light'" font-size="9">Complicated Structured text</text>
<text transform="matrix(1 0 0 1 118.9392 141.5579)" fill="#1B181C" font-family="'Ubuntu-Light'" font-size="9">Corrections</text>
<rect x="84.117" y="206.075" fill="none" width="102.856" height="31.979"/>
<text transform="matrix(1 0 0 1 85.2825 213.0647)" fill="#1B181C" font-family="'Ubuntu-Light'" font-size="9">Design</text>
<rect x="175.756" y="208.023" fill="none" width="64.916" height="34.084"/>
<text transform="matrix(1 0 0 1 172.0891 213.1477)" fill="#1B181C" font-family="'Ubuntu-Light'" font-size="9">Ebook Specific </text>
<text transform="matrix(1 0 0 1 172.0891 224.1477)" fill="#1B181C" font-family="'Ubuntu-Light'" font-size="9">Design</text>
<g>
	<line fill="none" stroke="#1B181C" stroke-width="3.3579" x1="128.354" y1="186.219" x2="122.533" y2="192.038"/>
	<polygon fill="#1B181C" points="119.771,194.799 128.578,194.48 120.092,185.994 	"/>
</g>
<g>
	<line fill="none" stroke="#1B181C" stroke-width="3.3579" x1="152.527" y1="184.947" x2="158.348" y2="190.767"/>
	<polygon fill="#1B181C" points="161.109,193.529 160.789,184.723 152.302,193.209 	"/>
</g>
<g>
	<line fill="none" stroke="#1B181C" stroke-width="3.3579" x1="323.315" y1="257.946" x2="329.136" y2="263.766"/>
	<polygon fill="#1B181C" points="331.896,266.528 331.575,257.722 323.092,266.206 	"/>
</g>
<g>
	<line fill="none" stroke="#1B181C" stroke-width="3.3579" x1="330.382" y1="224.648" x2="338.613" y2="224.647"/>
	<polygon fill="#1B181C" points="342.518,224.648 336.064,218.648 336.064,230.647 	"/>
</g>
<g>
	<line fill="none" stroke="#1B181C" stroke-width="3.3579" x1="331.559" y1="174.413" x2="337.38" y2="168.592"/>
	<polygon fill="#1B181C" points="340.141,165.831 331.335,166.153 339.819,174.638 	"/>
</g>
<g>
	<line fill="none" stroke="#1B181C" stroke-width="3.3579" x1="286.311" y1="259.096" x2="286.311" y2="267.327"/>
	<polygon fill="#1B181C" points="286.311,271.232 292.311,264.779 280.311,264.779 	"/>
</g>
<g>
	<line fill="none" stroke="#1B181C" stroke-width="3.3579" x1="238.105" y1="225.065" x2="246.336" y2="225.065"/>
	<polygon fill="#1B181C" points="250.242,225.065 243.789,219.065 243.789,231.065 	"/>
</g>
<g>
	<line fill="none" stroke="#1B181C" stroke-width="3.3579" x1="140.82" y1="365.579" x2="140.82" y2="373.811"/>
	<polygon fill="#1B181C" points="140.82,377.715 146.82,371.263 134.82,371.263 	"/>
</g>
<g>
	<g>
		<path fill="#010101" d="M84.327,260.042c0-0.223,0.148-0.379,0.358-0.379s0.354,0.156,0.354,0.379c0,0.216-0.14,0.378-0.359,0.378
			C84.471,260.42,84.327,260.258,84.327,260.042z"/>
		<path fill="#010101" d="M86.282,256.636c0.006,0.18-0.127,0.323-0.337,0.323c-0.187,0-0.316-0.146-0.316-0.323
			c0-0.188,0.138-0.33,0.33-0.33C86.156,256.306,86.282,256.449,86.282,256.636z M85.693,260.353v-2.902h0.528v2.902H85.693z"/>
		<path fill="#010101" d="M87.099,258.237c0-0.3-0.006-0.545-0.022-0.786h0.468l0.03,0.48h0.012
			c0.144-0.276,0.479-0.545,0.959-0.545c0.399,0,1.023,0.238,1.023,1.233v1.733h-0.526v-1.673c0-0.469-0.174-0.857-0.671-0.857
			c-0.35,0-0.618,0.246-0.708,0.54c-0.023,0.066-0.036,0.156-0.036,0.246v1.745h-0.528V258.237L87.099,258.237z"/>
		<path fill="#010101" d="M92.935,256.097v3.508c0,0.258,0.006,0.551,0.024,0.749h-0.476l-0.022-0.503h-0.012
			c-0.162,0.323-0.518,0.569-0.989,0.569c-0.702,0-1.241-0.595-1.241-1.477c-0.006-0.965,0.594-1.56,1.301-1.56
			c0.444,0,0.744,0.21,0.876,0.442h0.014v-1.73L92.935,256.097L92.935,256.097z M92.407,258.633c0-0.065-0.008-0.155-0.024-0.223
			c-0.078-0.336-0.366-0.611-0.761-0.611c-0.546,0-0.87,0.479-0.87,1.122c0,0.587,0.288,1.072,0.856,1.072
			c0.354,0,0.679-0.232,0.773-0.63c0.018-0.071,0.023-0.144,0.023-0.228v-0.503H92.407z"/>
		<path fill="#010101" d="M96.318,256.097v3.508c0,0.258,0.008,0.551,0.023,0.749h-0.474l-0.023-0.503h-0.012
			c-0.162,0.323-0.518,0.569-0.99,0.569c-0.701,0-1.241-0.595-1.241-1.477c-0.006-0.965,0.595-1.56,1.301-1.56
			c0.444,0,0.744,0.21,0.875,0.442h0.014v-1.73L96.318,256.097L96.318,256.097z M95.791,258.633c0-0.065-0.006-0.155-0.024-0.223
			c-0.078-0.336-0.366-0.611-0.762-0.611c-0.546,0-0.87,0.479-0.87,1.122c0,0.587,0.288,1.072,0.858,1.072
			c0.354,0,0.677-0.232,0.771-0.63c0.02-0.071,0.024-0.144,0.024-0.228L95.791,258.633L95.791,258.633z"/>
	</g>
	<g>
		<path fill="#020202" d="M129.937,265.341H80.064v-64.521h49.872L129.937,265.341L129.937,265.341z M82.064,263.341h45.872v-60.521
			H82.064V263.341L82.064,263.341z"/>
		<g>
			<path fill="#020202" d="M124.175,262.124c-0.369,0-0.67-0.302-0.67-0.67c0-0.37,0.301-0.671,0.67-0.671
				c0.37,0,0.67,0.301,0.67,0.671C124.845,261.823,124.545,262.124,124.175,262.124L124.175,262.124z"/>
			<path fill="#020202" d="M124.175,260.188c-0.369,0-0.67-0.3-0.67-0.67c0-0.369,0.301-0.67,0.67-0.67c0.37,0,0.67,0.301,0.67,0.67
				C124.845,259.889,124.545,260.188,124.175,260.188L124.175,260.188z"/>
			<path fill="#020202" d="M124.175,258.258c-0.369,0-0.67-0.3-0.67-0.67c0-0.369,0.301-0.67,0.67-0.67c0.37,0,0.67,0.301,0.67,0.67
				C124.845,257.958,124.545,258.258,124.175,258.258L124.175,258.258z"/>
			<path fill="#020202" d="M124.175,256.323c-0.369,0-0.67-0.301-0.67-0.67c0-0.37,0.301-0.671,0.67-0.671
				c0.37,0,0.67,0.301,0.67,0.671C124.845,256.023,124.545,256.323,124.175,256.323L124.175,256.323z"/>
			<path fill="#020202" d="M125.957,262.124c-0.37,0-0.669-0.302-0.669-0.67c0-0.37,0.299-0.671,0.669-0.671s0.67,0.301,0.67,0.671
				C126.627,261.823,126.328,262.124,125.957,262.124L125.957,262.124z"/>
			<path fill="#020202" d="M125.957,260.188c-0.37,0-0.669-0.3-0.669-0.67c0-0.369,0.299-0.67,0.669-0.67s0.67,0.301,0.67,0.67
				C126.627,259.889,126.328,260.188,125.957,260.188L125.957,260.188z"/>
			<path fill="#020202" d="M125.957,258.258c-0.37,0-0.669-0.3-0.669-0.67c0-0.369,0.299-0.67,0.669-0.67s0.67,0.301,0.67,0.67
				C126.627,257.958,126.328,258.258,125.957,258.258L125.957,258.258z"/>
			<path fill="#020202" d="M125.957,256.323c-0.37,0-0.669-0.301-0.669-0.67c0-0.37,0.299-0.671,0.669-0.671s0.67,0.301,0.67,0.671
				C126.627,256.023,126.328,256.323,125.957,256.323L125.957,256.323z"/>
			<path fill="#020202" d="M125.957,254.389c-0.37,0-0.669-0.301-0.669-0.67c0-0.364,0.299-0.665,0.669-0.665s0.67,0.301,0.67,0.665
				C126.627,254.089,126.328,254.389,125.957,254.389L125.957,254.389z"/>
			<path fill="#020202" d="M122.394,262.124c-0.37,0-0.67-0.302-0.67-0.67c0-0.37,0.3-0.671,0.67-0.671s0.669,0.301,0.669,0.671
				C123.062,261.823,122.764,262.124,122.394,262.124L122.394,262.124z"/>
			<path fill="#020202" d="M122.394,260.188c-0.37,0-0.67-0.3-0.67-0.67c0-0.369,0.3-0.67,0.67-0.67s0.669,0.301,0.669,0.67
				C123.062,259.889,122.764,260.188,122.394,260.188L122.394,260.188z"/>
			<path fill="#020202" d="M122.394,258.258c-0.37,0-0.67-0.3-0.67-0.67c0-0.369,0.3-0.67,0.67-0.67s0.669,0.301,0.669,0.67
				C123.063,257.958,122.764,258.258,122.394,258.258L122.394,258.258z"/>
			<path fill="#020202" d="M120.612,262.124c-0.368,0-0.671-0.302-0.671-0.67c0-0.37,0.303-0.671,0.671-0.671
				c0.369,0,0.671,0.301,0.671,0.671C121.282,261.823,120.981,262.124,120.612,262.124L120.612,262.124z"/>
			<path fill="#020202" d="M120.612,260.188c-0.368,0-0.671-0.3-0.671-0.67c0-0.369,0.303-0.67,0.671-0.67
				c0.369,0,0.671,0.301,0.671,0.67C121.282,259.889,120.981,260.188,120.612,260.188L120.612,260.188z"/>
			<path fill="#020202" d="M118.831,262.124c-0.37,0-0.67-0.302-0.67-0.67c0-0.37,0.3-0.671,0.67-0.671s0.67,0.301,0.67,0.671
				C119.501,261.823,119.202,262.124,118.831,262.124L118.831,262.124z"/>
		</g>
	</g>
</g>
<g>
	<line fill="none" stroke="#1B181C" stroke-width="3.3579" x1="83.537" y1="274.293" x2="77.717" y2="280.114"/>
	<polygon fill="#1B181C" points="74.955,282.875 83.761,282.556 75.276,274.069 	"/>
</g>
<g>
	<line fill="none" stroke="#1B181C" stroke-width="3.3579" x1="117.194" y1="274.293" x2="123.013" y2="280.114"/>
	<polygon fill="#1B181C" points="125.776,282.875 125.454,274.069 116.968,282.554 	"/>
</g>
<g>
	<g>
		<path fill="#010101" d="M120.469,347.423c0.252-0.041,0.582-0.077,1.001-0.077c0.517,0,0.896,0.12,1.133,0.336
			c0.224,0.19,0.354,0.485,0.354,0.846c0,0.365-0.107,0.654-0.312,0.863c-0.274,0.293-0.726,0.442-1.233,0.442
			c-0.156,0-0.302-0.006-0.42-0.035v1.619h-0.521L120.469,347.423L120.469,347.423z M120.99,349.372
			c0.112,0.029,0.258,0.043,0.432,0.043c0.63,0,1.014-0.307,1.014-0.862c0-0.535-0.378-0.793-0.953-0.793
			c-0.229,0-0.4,0.018-0.49,0.043L120.99,349.372L120.99,349.372z"/>
		<path fill="#010101" d="M123.661,347.43c0.316-0.048,0.694-0.084,1.107-0.084c0.75,0,1.283,0.174,1.639,0.504
			c0.357,0.33,0.567,0.797,0.567,1.45c0,0.66-0.204,1.199-0.582,1.57c-0.377,0.377-1.001,0.582-1.787,0.582
			c-0.372,0-0.684-0.018-0.946-0.047v-3.977L123.661,347.43L123.661,347.43z M124.183,351.003c0.132,0.023,0.323,0.031,0.527,0.031
			c1.115,0,1.721-0.625,1.721-1.717c0.006-0.951-0.534-1.56-1.637-1.56c-0.271,0-0.475,0.025-0.611,0.056V351.003z"/>
		<path fill="#010101" d="M127.656,347.376h2.178v0.438h-1.655v1.344h1.529v0.432h-1.529v1.828h-0.521v-4.042H127.656z"/>
	</g>
	<path fill="#020202" d="M164.847,356.563h-49.872v-64.521h37.568l12.346,14.013L164.847,356.563z M116.976,354.563h45.873
		l0.041-47.753l-11.248-12.768h-34.666V354.563z"/>
	<g>
		<polyline fill="#010101" points="152.093,293.917 152.093,306.432 163.889,306.432 		"/>
		<polygon fill="#010101" points="163.889,306.681 151.843,306.681 151.843,293.917 152.343,293.917 152.343,306.182 
			163.889,306.182 		"/>
	</g>
</g>
<g>
	<path fill="#8DC63F" d="M160.957,454.35h-45.961v-64.422l46.126-4.684L160.957,454.35z M116.996,452.35h41.966l0.154-64.893
		l-42.12,4.276V452.35z"/>
	<polygon fill="#FFFFFF" points="161.45,454.071 115.996,454.071 115.996,391.049 161.45,388.965 	"/>
	<path fill="#8DC63F" d="M161.95,454.571h-46.453v-63.998l46.453-2.129V454.571z M116.496,453.571h44.453v-64.08l-44.453,2.038
		V453.571z"/>
	<rect x="115.996" y="391.331" fill="#FFFFFF" width="47.122" height="63.02"/>
	<path fill="#8DC63F" d="M163.618,454.85h-48.122v-64.02h48.122V454.85z M116.496,453.85h46.122v-62.02h-46.122V453.85z"/>
	<polygon fill="#FFFFFF" points="115.996,391.331 115.996,453.85 163.868,457.991 163.868,393.799 	"/>
	<path fill="#8DC63F" d="M164.868,459.081l-49.872-4.313V390.28l49.872,2.571V459.081z M116.996,452.933l45.872,3.969v-62.152
		l-45.872-2.364V452.933z"/>
	<path fill="#010101" d="M120.591,446.54c0.252-0.042,0.582-0.078,1.001-0.078c0.516,0,0.894,0.12,1.133,0.336
		c0.222,0.191,0.354,0.486,0.354,0.847c0,0.365-0.106,0.652-0.312,0.862c-0.275,0.294-0.727,0.444-1.234,0.444
		c-0.155,0-0.301-0.007-0.421-0.036v1.619h-0.521V446.54z M121.113,448.49c0.114,0.03,0.259,0.042,0.434,0.042
		c0.63,0,1.014-0.307,1.014-0.863c0-0.534-0.378-0.792-0.953-0.792c-0.229,0-0.401,0.019-0.491,0.042L121.113,448.49L121.113,448.49
		z"/>
	<path fill="#010101" d="M123.669,448.538c0-0.343-0.007-0.637-0.024-0.905h0.462l0.019,0.569h0.023
		c0.132-0.391,0.45-0.637,0.805-0.637c0.061,0,0.103,0.006,0.149,0.019v0.498c-0.054-0.013-0.107-0.019-0.18-0.019
		c-0.372,0-0.637,0.281-0.708,0.679c-0.013,0.071-0.024,0.154-0.024,0.245v1.548h-0.521L123.669,448.538L123.669,448.538z"/>
	<path fill="#010101" d="M126.243,446.816c0.006,0.181-0.126,0.323-0.336,0.323c-0.187,0-0.316-0.144-0.316-0.323
		c0-0.187,0.138-0.33,0.33-0.33C126.117,446.487,126.243,446.629,126.243,446.816z M125.655,450.535v-2.902h0.528v2.902H125.655z"/>
	<path fill="#010101" d="M127.059,448.417c0-0.3-0.006-0.546-0.023-0.785h0.469l0.029,0.479h0.013
		c0.144-0.275,0.479-0.546,0.959-0.546c0.399,0,1.023,0.239,1.023,1.234v1.733h-0.526v-1.674c0-0.469-0.175-0.856-0.672-0.856
		c-0.349,0-0.617,0.246-0.708,0.54c-0.022,0.065-0.035,0.156-0.035,0.246v1.745h-0.528V448.417L127.059,448.417z"/>
	<path fill="#010101" d="M131.001,446.797v0.834h0.755v0.4h-0.755v1.564c0,0.359,0.102,0.563,0.396,0.563
		c0.139,0,0.239-0.02,0.307-0.036l0.023,0.396c-0.103,0.041-0.264,0.071-0.468,0.071c-0.246,0-0.444-0.078-0.57-0.222
		c-0.149-0.156-0.204-0.414-0.204-0.757v-1.58h-0.448v-0.401h0.448v-0.695L131.001,446.797z"/>
	<path fill="#010101" d="M133.641,446.545c0.229-0.048,0.588-0.084,0.953-0.084c0.521,0,0.857,0.09,1.108,0.294
		c0.21,0.156,0.336,0.396,0.336,0.714c0,0.391-0.259,0.731-0.685,0.889v0.013c0.384,0.096,0.834,0.414,0.834,1.014
		c0,0.349-0.138,0.611-0.342,0.811c-0.282,0.259-0.738,0.377-1.396,0.377c-0.359,0-0.637-0.023-0.811-0.048L133.641,446.545
		L133.641,446.545z M134.163,448.202h0.475c0.552,0,0.876-0.288,0.876-0.679c0-0.475-0.36-0.659-0.889-0.659
		c-0.239,0-0.378,0.019-0.462,0.036V448.202z M134.163,450.138c0.103,0.019,0.252,0.024,0.438,0.024c0.54,0,1.038-0.198,1.038-0.786
		c0-0.551-0.475-0.78-1.044-0.78h-0.433L134.163,450.138L134.163,450.138z"/>
	<path fill="#010101" d="M139.525,449.058c0,1.073-0.742,1.541-1.443,1.541c-0.785,0-1.393-0.574-1.393-1.492
		c0-0.972,0.637-1.541,1.439-1.541C138.962,447.566,139.525,448.17,139.525,449.058z M137.223,449.088
		c0,0.636,0.366,1.115,0.881,1.115c0.504,0,0.882-0.475,0.882-1.127c0-0.492-0.245-1.115-0.868-1.115
		C137.493,447.961,137.223,448.538,137.223,449.088z"/>
	<path fill="#010101" d="M142.82,449.058c0,1.073-0.743,1.541-1.444,1.541c-0.785,0-1.393-0.574-1.393-1.492
		c0-0.972,0.637-1.541,1.438-1.541C142.255,447.566,142.82,448.17,142.82,449.058z M140.517,449.088
		c0,0.636,0.365,1.115,0.881,1.115c0.504,0,0.882-0.475,0.882-1.127c0-0.492-0.244-1.115-0.869-1.115
		C140.787,447.961,140.517,448.538,140.517,449.088z"/>
	<path fill="#010101" d="M144.009,448.962h0.012c0.072-0.103,0.174-0.229,0.258-0.33l0.854-1.001h0.635l-1.121,1.193l1.277,1.709
		h-0.644l-1.001-1.394l-0.27,0.301v1.093h-0.522v-4.259h0.522V448.962z"/>
</g>
<g>
	<path fill="#8DC63F" d="M91.811,304.5h10.906v51.314H54.346v-63.025h37.465V304.5z M56.146,354.017h44.771V306.3H90.012v-11.71
		H56.146V354.017z"/>
	<path fill="#8DC63F" d="M95.157,303.517c-0.37,0-0.671-0.302-0.671-0.67c0-0.37,0.301-0.671,0.671-0.671
		c0.368,0,0.67,0.301,0.67,0.671C95.827,303.215,95.526,303.517,95.157,303.517L95.157,303.517z"/>
	<path fill="#8DC63F" d="M95.157,301.58c-0.37,0-0.671-0.299-0.671-0.67c0-0.369,0.301-0.67,0.671-0.67
		c0.368,0,0.67,0.301,0.67,0.67C95.827,301.281,95.526,301.58,95.157,301.58L95.157,301.58z"/>
	<path fill="#8DC63F" d="M95.157,299.652c-0.37,0-0.671-0.3-0.671-0.67s0.301-0.67,0.671-0.67c0.368,0,0.67,0.3,0.67,0.67
		S95.526,299.652,95.157,299.652L95.157,299.652z"/>
	<path fill="#8DC63F" d="M95.157,297.716c-0.37,0-0.671-0.302-0.671-0.671c0-0.368,0.301-0.671,0.671-0.671
		c0.368,0,0.67,0.303,0.67,0.671C95.827,297.414,95.526,297.716,95.157,297.716L95.157,297.716z"/>
	<path fill="#8DC63F" d="M93.375,303.517c-0.371,0-0.67-0.302-0.67-0.67c0-0.37,0.3-0.671,0.67-0.671s0.669,0.301,0.669,0.671
		C94.043,303.215,93.745,303.517,93.375,303.517L93.375,303.517z"/>
	<path fill="#8DC63F" d="M93.375,301.58c-0.371,0-0.67-0.299-0.67-0.67c0-0.369,0.3-0.67,0.67-0.67s0.669,0.301,0.669,0.67
		C94.043,301.281,93.745,301.58,93.375,301.58L93.375,301.58z"/>
	<path fill="#8DC63F" d="M93.375,299.652c-0.371,0-0.67-0.3-0.67-0.67s0.3-0.67,0.67-0.67s0.669,0.3,0.669,0.67
		S93.745,299.652,93.375,299.652L93.375,299.652z"/>
	<path fill="#8DC63F" d="M93.375,297.716c-0.371,0-0.67-0.302-0.67-0.671c0-0.368,0.3-0.671,0.67-0.671s0.669,0.303,0.669,0.671
		C94.044,297.414,93.745,297.716,93.375,297.716L93.375,297.716z"/>
	<path fill="#8DC63F" d="M93.375,295.781c-0.371,0-0.67-0.3-0.67-0.67c0-0.364,0.3-0.665,0.67-0.665s0.669,0.301,0.669,0.665
		C94.043,295.482,93.745,295.781,93.375,295.781L93.375,295.781z"/>
	<path fill="#8DC63F" d="M96.938,303.517c-0.37,0-0.669-0.302-0.669-0.67c0-0.37,0.299-0.671,0.669-0.671s0.67,0.301,0.67,0.671
		C97.608,303.215,97.308,303.517,96.938,303.517L96.938,303.517z"/>
	<path fill="#8DC63F" d="M96.938,301.58c-0.37,0-0.669-0.299-0.669-0.67c0-0.369,0.299-0.67,0.669-0.67s0.67,0.301,0.67,0.67
		C97.608,301.281,97.308,301.58,96.938,301.58L96.938,301.58z"/>
	<path fill="#8DC63F" d="M96.938,299.652c-0.37,0-0.669-0.3-0.669-0.67s0.299-0.67,0.669-0.67s0.67,0.3,0.67,0.67
		S97.308,299.652,96.938,299.652L96.938,299.652z"/>
	<path fill="#8DC63F" d="M98.719,303.517c-0.369,0-0.67-0.302-0.67-0.67c0-0.37,0.301-0.671,0.67-0.671
		c0.37,0,0.671,0.301,0.671,0.671C99.39,303.215,99.089,303.517,98.719,303.517L98.719,303.517z"/>
	<path fill="#8DC63F" d="M98.719,301.58c-0.369,0-0.67-0.299-0.67-0.67c0-0.369,0.301-0.67,0.67-0.67c0.37,0,0.671,0.301,0.671,0.67
		C99.39,301.281,99.089,301.58,98.719,301.58L98.719,301.58z"/>
	<path fill="#8DC63F" d="M100.5,303.517c-0.371,0-0.67-0.302-0.67-0.67c0-0.37,0.301-0.671,0.67-0.671c0.37,0,0.67,0.301,0.67,0.671
		C101.17,303.215,100.871,303.517,100.5,303.517L100.5,303.517z"/>
</g>
<rect x="58.528" y="347.495" fill="none" width="46" height="6.933"/>
<text transform="matrix(1 0 0 1 58.5261 351.6829)" fill="#231F20" font-family="'MyriadPro-Regular'" font-size="5.8981">Interactive PDF</text>
<g>
	<g>
		<path fill="#8DC63F" d="M389.002,133.126h10.905v51.314h-48.371v-63.025h37.466V133.126z M353.337,182.643h44.771v-47.717h-10.904
			v-11.71h-33.865L353.337,182.643L353.337,182.643z"/>
		<path fill="#8DC63F" d="M392.348,132.143c-0.37,0-0.67-0.302-0.67-0.67c0-0.37,0.3-0.67,0.67-0.67c0.369,0,0.67,0.3,0.67,0.67
			C393.018,131.841,392.717,132.143,392.348,132.143L392.348,132.143z"/>
		<path fill="#8DC63F" d="M392.348,130.205c-0.37,0-0.67-0.299-0.67-0.67c0-0.369,0.3-0.67,0.67-0.67c0.369,0,0.67,0.301,0.67,0.67
			C393.018,129.906,392.717,130.205,392.348,130.205L392.348,130.205z"/>
		<path fill="#8DC63F" d="M392.348,128.277c-0.37,0-0.67-0.3-0.67-0.67s0.3-0.67,0.67-0.67c0.369,0,0.67,0.3,0.67,0.67
			S392.717,128.277,392.348,128.277L392.348,128.277z"/>
		<path fill="#8DC63F" d="M392.348,126.342c-0.37,0-0.67-0.302-0.67-0.671c0-0.368,0.3-0.671,0.67-0.671
			c0.369,0,0.67,0.303,0.67,0.671C393.018,126.04,392.717,126.342,392.348,126.342L392.348,126.342z"/>
		<path fill="#8DC63F" d="M390.565,132.143c-0.371,0-0.67-0.302-0.67-0.67c0-0.37,0.3-0.67,0.67-0.67s0.669,0.3,0.669,0.67
			C391.234,131.841,390.936,132.143,390.565,132.143L390.565,132.143z"/>
		<path fill="#8DC63F" d="M390.565,130.205c-0.371,0-0.67-0.299-0.67-0.67c0-0.369,0.3-0.67,0.67-0.67s0.669,0.301,0.669,0.67
			C391.234,129.906,390.936,130.205,390.565,130.205L390.565,130.205z"/>
		<path fill="#8DC63F" d="M390.565,128.277c-0.371,0-0.67-0.3-0.67-0.67s0.3-0.67,0.67-0.67s0.669,0.3,0.669,0.67
			S390.936,128.277,390.565,128.277L390.565,128.277z"/>
		<path fill="#8DC63F" d="M390.565,126.342c-0.371,0-0.67-0.302-0.67-0.671c0-0.368,0.3-0.671,0.67-0.671s0.669,0.303,0.669,0.671
			C391.234,126.04,390.936,126.342,390.565,126.342L390.565,126.342z"/>
		<path fill="#8DC63F" d="M390.565,124.406c-0.371,0-0.67-0.3-0.67-0.67c0-0.364,0.3-0.665,0.67-0.665s0.669,0.301,0.669,0.665
			C391.234,124.107,390.936,124.406,390.565,124.406L390.565,124.406z"/>
		<path fill="#8DC63F" d="M394.129,132.143c-0.37,0-0.669-0.302-0.669-0.67c0-0.37,0.299-0.67,0.669-0.67
			c0.369,0,0.67,0.3,0.67,0.67C394.799,131.841,394.498,132.143,394.129,132.143L394.129,132.143z"/>
		<path fill="#8DC63F" d="M394.129,130.205c-0.37,0-0.669-0.299-0.669-0.67c0-0.369,0.299-0.67,0.669-0.67
			c0.369,0,0.67,0.301,0.67,0.67C394.799,129.906,394.498,130.205,394.129,130.205L394.129,130.205z"/>
		<path fill="#8DC63F" d="M394.129,128.277c-0.37,0-0.669-0.3-0.669-0.67s0.299-0.67,0.669-0.67c0.369,0,0.67,0.3,0.67,0.67
			S394.498,128.277,394.129,128.277L394.129,128.277z"/>
		<path fill="#8DC63F" d="M395.909,132.143c-0.368,0-0.67-0.302-0.67-0.67c0-0.37,0.301-0.67,0.67-0.67c0.37,0,0.671,0.3,0.671,0.67
			C396.58,131.841,396.28,132.143,395.909,132.143L395.909,132.143z"/>
		<path fill="#8DC63F" d="M395.909,130.205c-0.368,0-0.67-0.299-0.67-0.67c0-0.369,0.301-0.67,0.67-0.67
			c0.37,0,0.671,0.301,0.671,0.67C396.58,129.906,396.28,130.205,395.909,130.205L395.909,130.205z"/>
		<path fill="#8DC63F" d="M397.691,132.143c-0.371,0-0.67-0.302-0.67-0.67c0-0.37,0.301-0.67,0.67-0.67c0.37,0,0.67,0.3,0.67,0.67
			C398.361,131.841,398.062,132.143,397.691,132.143L397.691,132.143z"/>
	</g>
	<rect x="355.719" y="176.12" fill="none" width="46" height="6.933"/>
	<text transform="matrix(1 0 0 1 355.7161 180.3088)" fill="#231F20" font-family="'MyriadPro-Regular'" font-size="5.8981">Interactive PDF</text>
</g>
<rect x="356.16" y="251.347" fill="none" width="20.5" height="5.14"/>
<text transform="matrix(1 0 0 1 356.1614 255.5334)" fill="#231F20" font-family="'MyriadPro-Regular'" font-size="5.8981">ePub</text>
<rect x="250.744" y="330.005" fill="none" width="20.5" height="5.141"/>
<text transform="matrix(1 0 0 1 251.7434 334.1936)" fill="#231F20" font-family="'MyriadPro-Regular'" font-size="5.8981">e-book</text>
<g>
	<path fill="#8DC63F" d="M389.001,260.108h-37.464v-63.026h48.369v51.315H389L389.001,260.108L389.001,260.108z M353.339,258.308
		h33.862v-11.71h10.904v-47.717h-44.768L353.339,258.308L353.339,258.308z"/>
	<path fill="#8DC63F" d="M392.347,249.381c0.369,0,0.67,0.302,0.67,0.671s-0.301,0.67-0.67,0.67s-0.67-0.301-0.67-0.67
		S391.978,249.381,392.347,249.381L392.347,249.381z"/>
	<path fill="#8DC63F" d="M392.347,251.318c0.369,0,0.67,0.3,0.67,0.67c0,0.369-0.301,0.67-0.67,0.67s-0.67-0.301-0.67-0.67
		C391.677,251.616,391.978,251.318,392.347,251.318L392.347,251.318z"/>
	<path fill="#8DC63F" d="M392.347,253.246c0.369,0,0.67,0.3,0.67,0.67s-0.301,0.67-0.67,0.67s-0.67-0.3-0.67-0.67
		S391.978,253.246,392.347,253.246L392.347,253.246z"/>
	<path fill="#8DC63F" d="M392.347,255.182c0.369,0,0.67,0.302,0.67,0.671s-0.301,0.671-0.67,0.671s-0.67-0.302-0.67-0.671
		S391.978,255.182,392.347,255.182L392.347,255.182z"/>
	<path fill="#8DC63F" d="M390.565,249.381c0.369,0,0.668,0.302,0.668,0.671s-0.299,0.67-0.668,0.67c-0.371,0-0.67-0.301-0.67-0.67
		C389.896,249.683,390.194,249.381,390.565,249.381L390.565,249.381z"/>
	<path fill="#8DC63F" d="M390.565,251.318c0.369,0,0.668,0.3,0.668,0.67c0,0.369-0.299,0.67-0.668,0.67
		c-0.371,0-0.67-0.301-0.67-0.67C389.896,251.616,390.194,251.318,390.565,251.318L390.565,251.318z"/>
	<path fill="#8DC63F" d="M390.565,253.246c0.369,0,0.668,0.3,0.668,0.67s-0.299,0.67-0.668,0.67c-0.371,0-0.67-0.3-0.67-0.67
		S390.194,253.246,390.565,253.246L390.565,253.246z"/>
	<path fill="#8DC63F" d="M390.565,255.182c0.369,0,0.668,0.302,0.668,0.671s-0.299,0.671-0.668,0.671
		c-0.371,0-0.67-0.302-0.67-0.671S390.194,255.182,390.565,255.182L390.565,255.182z"/>
	<path fill="#8DC63F" d="M390.565,257.116c0.369,0,0.668,0.3,0.668,0.67c0,0.364-0.299,0.665-0.668,0.665
		c-0.371,0-0.67-0.301-0.67-0.665C389.896,257.416,390.194,257.116,390.565,257.116L390.565,257.116z"/>
	<path fill="#8DC63F" d="M394.128,249.381c0.37,0,0.67,0.302,0.67,0.671s-0.3,0.67-0.67,0.67c-0.369,0-0.668-0.301-0.668-0.67
		S393.759,249.381,394.128,249.381L394.128,249.381z"/>
	<path fill="#8DC63F" d="M394.128,251.318c0.37,0,0.67,0.3,0.67,0.67c0,0.369-0.3,0.67-0.67,0.67c-0.369,0-0.668-0.301-0.668-0.67
		C393.46,251.616,393.759,251.318,394.128,251.318L394.128,251.318z"/>
	<path fill="#8DC63F" d="M394.128,253.246c0.37,0,0.67,0.3,0.67,0.67s-0.3,0.67-0.67,0.67c-0.369,0-0.668-0.3-0.668-0.67
		S393.759,253.246,394.128,253.246L394.128,253.246z"/>
	<path fill="#8DC63F" d="M395.908,249.381c0.371,0,0.672,0.302,0.672,0.671s-0.301,0.67-0.672,0.67c-0.369,0-0.67-0.301-0.67-0.67
		S395.539,249.381,395.908,249.381L395.908,249.381z"/>
	<path fill="#8DC63F" d="M395.908,251.318c0.371,0,0.672,0.3,0.672,0.67c0,0.369-0.301,0.67-0.672,0.67
		c-0.369,0-0.67-0.301-0.67-0.67C395.239,251.616,395.539,251.318,395.908,251.318L395.908,251.318z"/>
	<path fill="#8DC63F" d="M397.69,249.381c0.371,0,0.67,0.302,0.67,0.671s-0.299,0.67-0.67,0.67c-0.369,0-0.67-0.301-0.67-0.67
		C397.021,249.683,397.319,249.381,397.69,249.381L397.69,249.381z"/>
</g>
<g>
	<path fill="#8DC63F" d="M284.479,338.767h-37.463V275.74h48.369v51.316h-10.906V338.767z M248.816,336.965h33.863v-11.711h10.904
		v-47.715h-44.769L248.816,336.965L248.816,336.965z"/>
	<path fill="#8DC63F" d="M287.824,328.039c0.368,0,0.67,0.301,0.67,0.67s-0.302,0.67-0.67,0.67c-0.369,0-0.671-0.301-0.671-0.67
		S287.455,328.039,287.824,328.039L287.824,328.039z"/>
	<path fill="#8DC63F" d="M287.824,329.976c0.368,0,0.67,0.301,0.67,0.67s-0.302,0.67-0.67,0.67c-0.369,0-0.671-0.301-0.671-0.67
		C287.154,330.275,287.455,329.976,287.824,329.976L287.824,329.976z"/>
	<path fill="#8DC63F" d="M287.824,331.906c0.368,0,0.67,0.299,0.67,0.67c0,0.369-0.302,0.67-0.67,0.67
		c-0.369,0-0.671-0.301-0.671-0.67C287.154,332.204,287.455,331.906,287.824,331.906L287.824,331.906z"/>
	<path fill="#8DC63F" d="M287.824,333.838c0.368,0,0.67,0.304,0.67,0.673c0,0.368-0.302,0.67-0.67,0.67
		c-0.369,0-0.671-0.302-0.671-0.67C287.154,334.142,287.455,333.838,287.824,333.838L287.824,333.838z"/>
	<path fill="#8DC63F" d="M286.043,328.039c0.369,0,0.668,0.301,0.668,0.67s-0.299,0.67-0.668,0.67c-0.371,0-0.67-0.301-0.67-0.67
		S285.672,328.039,286.043,328.039L286.043,328.039z"/>
	<path fill="#8DC63F" d="M286.043,329.976c0.369,0,0.668,0.301,0.668,0.67s-0.299,0.67-0.668,0.67c-0.371,0-0.67-0.301-0.67-0.67
		C285.373,330.275,285.672,329.976,286.043,329.976L286.043,329.976z"/>
	<path fill="#8DC63F" d="M286.043,331.906c0.369,0,0.668,0.299,0.668,0.67c0,0.369-0.299,0.67-0.668,0.67
		c-0.371,0-0.67-0.301-0.67-0.67C285.373,332.204,285.672,331.906,286.043,331.906L286.043,331.906z"/>
	<path fill="#8DC63F" d="M286.043,333.838c0.369,0,0.668,0.304,0.668,0.673c0,0.368-0.299,0.67-0.668,0.67
		c-0.371,0-0.67-0.302-0.67-0.67C285.373,334.142,285.672,333.838,286.043,333.838L286.043,333.838z"/>
	<path fill="#8DC63F" d="M286.043,335.775c0.369,0,0.668,0.301,0.668,0.67c0,0.365-0.299,0.666-0.668,0.666
		c-0.371,0-0.67-0.301-0.67-0.666C285.373,336.075,285.672,335.775,286.043,335.775L286.043,335.775z"/>
	<path fill="#8DC63F" d="M289.605,328.039c0.371,0,0.67,0.301,0.67,0.67s-0.299,0.67-0.67,0.67c-0.369,0-0.668-0.301-0.668-0.67
		S289.236,328.039,289.605,328.039L289.605,328.039z"/>
	<path fill="#8DC63F" d="M289.605,329.976c0.371,0,0.67,0.301,0.67,0.67s-0.299,0.67-0.67,0.67c-0.369,0-0.668-0.301-0.668-0.67
		C288.938,330.275,289.236,329.976,289.605,329.976L289.605,329.976z"/>
	<path fill="#8DC63F" d="M289.605,331.906c0.371,0,0.67,0.299,0.67,0.67c0,0.369-0.299,0.67-0.67,0.67
		c-0.369,0-0.668-0.301-0.668-0.67C288.938,332.204,289.236,331.906,289.605,331.906L289.605,331.906z"/>
	<path fill="#8DC63F" d="M291.387,328.039c0.371,0,0.672,0.301,0.672,0.67s-0.301,0.67-0.672,0.67c-0.369,0-0.67-0.301-0.67-0.67
		S291.018,328.039,291.387,328.039L291.387,328.039z"/>
	<path fill="#8DC63F" d="M291.387,329.976c0.371,0,0.672,0.301,0.672,0.67s-0.301,0.67-0.672,0.67c-0.369,0-0.67-0.301-0.67-0.67
		C290.717,330.275,291.018,329.976,291.387,329.976L291.387,329.976z"/>
	<path fill="#8DC63F" d="M293.168,328.039c0.371,0,0.67,0.301,0.67,0.67s-0.299,0.67-0.67,0.67c-0.369,0-0.67-0.301-0.67-0.67
		S292.797,328.039,293.168,328.039L293.168,328.039z"/>
</g>
<rect x="261.994" y="241.116" fill="none" width="46" height="6.932"/>
<text transform="matrix(1 0 0 1 261.9934 245.304)" fill="#231F20" font-family="'MyriadPro-Regular'" font-size="5.8981">HTML/CSS</text>
<g>
	<path fill="#020202" d="M308.913,249.249h-51.315v-48.371h63.023v37.466h-11.709L308.913,249.249L308.913,249.249z M259.397,247.45
		h47.716v-10.905h11.71V202.68h-59.426V247.45z"/>
	<path fill="#020202" d="M309.897,241.69c0,0.369,0.301,0.67,0.67,0.67c0.37,0,0.67-0.301,0.67-0.67c0-0.37-0.3-0.67-0.67-0.67
		C310.198,241.02,309.897,241.32,309.897,241.69L309.897,241.69z"/>
	<path fill="#020202" d="M311.832,241.69c0,0.369,0.301,0.67,0.67,0.67s0.67-0.301,0.67-0.67c0-0.37-0.301-0.67-0.67-0.67
		S311.832,241.32,311.832,241.69L311.832,241.69z"/>
	<path fill="#020202" d="M313.763,241.69c0,0.369,0.3,0.67,0.67,0.67s0.67-0.301,0.67-0.67c0-0.37-0.3-0.67-0.67-0.67
		S313.763,241.32,313.763,241.69L313.763,241.69z"/>
	<path fill="#020202" d="M315.697,241.69c0,0.369,0.301,0.67,0.67,0.67c0.37,0,0.671-0.301,0.671-0.67c0-0.37-0.301-0.67-0.671-0.67
		S315.697,241.32,315.697,241.69L315.697,241.69z"/>
	<path fill="#020202" d="M309.897,239.909c0,0.369,0.301,0.669,0.67,0.669c0.37,0,0.67-0.3,0.67-0.669c0-0.37-0.3-0.67-0.67-0.67
		C310.198,239.24,309.897,239.538,309.897,239.909L309.897,239.909z"/>
	<path fill="#020202" d="M311.832,239.909c0,0.369,0.301,0.669,0.67,0.669s0.67-0.3,0.67-0.669c0-0.37-0.301-0.67-0.67-0.67
		S311.832,239.538,311.832,239.909L311.832,239.909z"/>
	<path fill="#020202" d="M313.763,239.909c0,0.369,0.3,0.669,0.67,0.669s0.67-0.3,0.67-0.669c0-0.37-0.3-0.67-0.67-0.67
		S313.763,239.538,313.763,239.909L313.763,239.909z"/>
	<path fill="#020202" d="M315.697,239.909c0,0.369,0.301,0.669,0.67,0.669c0.37,0,0.671-0.3,0.671-0.669
		c0-0.37-0.301-0.67-0.671-0.67S315.697,239.538,315.697,239.909L315.697,239.909z"/>
	<path fill="#020202" d="M317.633,239.909c0,0.369,0.3,0.669,0.67,0.669c0.363,0,0.665-0.3,0.665-0.669
		c0-0.37-0.302-0.67-0.665-0.67C317.933,239.24,317.633,239.538,317.633,239.909L317.633,239.909z"/>
	<path fill="#020202" d="M309.897,243.471c0,0.369,0.301,0.67,0.67,0.67c0.37,0,0.67-0.301,0.67-0.67c0-0.37-0.3-0.669-0.67-0.669
		C310.198,242.802,309.897,243.101,309.897,243.471L309.897,243.471z"/>
	<path fill="#020202" d="M311.832,243.471c0,0.369,0.301,0.67,0.67,0.67s0.67-0.301,0.67-0.67c0-0.37-0.301-0.669-0.67-0.669
		S311.832,243.101,311.832,243.471L311.832,243.471z"/>
	<path fill="#020202" d="M313.763,243.471c0,0.369,0.3,0.67,0.67,0.67s0.67-0.301,0.67-0.67c0-0.37-0.3-0.669-0.67-0.669
		S313.763,243.101,313.763,243.471L313.763,243.471z"/>
	<path fill="#020202" d="M309.897,245.251c0,0.37,0.301,0.671,0.67,0.671c0.37,0,0.67-0.301,0.67-0.671c0-0.369-0.3-0.67-0.67-0.67
		C310.198,244.582,309.897,244.882,309.897,245.251L309.897,245.251z"/>
	<path fill="#020202" d="M311.832,245.251c0,0.37,0.301,0.671,0.67,0.671s0.67-0.301,0.67-0.671c0-0.369-0.301-0.67-0.67-0.67
		C312.133,244.582,311.832,244.882,311.832,245.251L311.832,245.251z"/>
	<path fill="#020202" d="M309.897,247.035c0,0.369,0.301,0.67,0.67,0.67c0.37,0,0.67-0.301,0.67-0.67c0-0.37-0.3-0.67-0.67-0.67
		C310.198,246.365,309.897,246.664,309.897,247.035L309.897,247.035z"/>
</g>
<rect x="340.575" y="316.239" fill="none" width="46" height="6.932"/>
<text transform="matrix(1 0 0 1 341.5754 319.426)" fill="#231F20" font-family="'MyriadPro-Regular'" font-size="5.8981">Website</text>
<rect x="261.938" y="212.606" fill="none" width="102.857" height="31.979"/>
<text transform="matrix(1 0 0 1 261.5989 212.0647)" fill="#1B181C" font-family="'Ubuntu-Light'" font-size="9">Programmeren</text>
<g>
	<path fill="#020202" d="M219.168,249.249h-51.315v-48.371h63.024v37.466h-11.709V249.249L219.168,249.249z M169.653,247.45h47.717
		v-10.905h11.709V202.68h-59.426V247.45z"/>
	<path fill="#020202" d="M220.153,241.69c0,0.369,0.302,0.67,0.67,0.67c0.37,0,0.671-0.301,0.671-0.67c0-0.37-0.301-0.67-0.671-0.67
		C220.454,241.02,220.153,241.32,220.153,241.69L220.153,241.69z"/>
	<path fill="#020202" d="M222.087,241.69c0,0.369,0.301,0.67,0.67,0.67s0.67-0.301,0.67-0.67c0-0.37-0.301-0.67-0.67-0.67
		S222.087,241.32,222.087,241.69L222.087,241.69z"/>
	<path fill="#020202" d="M224.018,241.69c0,0.369,0.3,0.67,0.67,0.67s0.67-0.301,0.67-0.67c0-0.37-0.3-0.67-0.67-0.67
		S224.018,241.32,224.018,241.69L224.018,241.69z"/>
	<path fill="#020202" d="M225.953,241.69c0,0.369,0.301,0.67,0.67,0.67c0.37,0,0.67-0.301,0.67-0.67c0-0.37-0.3-0.67-0.67-0.67
		S225.953,241.32,225.953,241.69L225.953,241.69z"/>
	<path fill="#020202" d="M220.153,239.909c0,0.369,0.302,0.669,0.67,0.669c0.37,0,0.671-0.3,0.671-0.669
		c0-0.37-0.301-0.67-0.671-0.67C220.454,239.24,220.153,239.538,220.153,239.909L220.153,239.909z"/>
	<path fill="#020202" d="M222.087,239.909c0,0.369,0.301,0.669,0.67,0.669s0.67-0.3,0.67-0.669c0-0.37-0.301-0.67-0.67-0.67
		S222.087,239.538,222.087,239.909L222.087,239.909z"/>
	<path fill="#020202" d="M224.018,239.909c0,0.369,0.3,0.669,0.67,0.669s0.67-0.3,0.67-0.669c0-0.37-0.3-0.67-0.67-0.67
		S224.018,239.538,224.018,239.909L224.018,239.909z"/>
	<path fill="#020202" d="M225.953,239.909c0,0.369,0.301,0.669,0.67,0.669c0.37,0,0.67-0.3,0.67-0.669c0-0.37-0.3-0.67-0.67-0.67
		S225.953,239.538,225.953,239.909L225.953,239.909z"/>
	<path fill="#020202" d="M227.889,239.909c0,0.369,0.299,0.669,0.67,0.669c0.363,0,0.664-0.3,0.664-0.669
		c0-0.37-0.301-0.67-0.664-0.67C228.188,239.24,227.889,239.538,227.889,239.909L227.889,239.909z"/>
	<path fill="#020202" d="M220.153,243.471c0,0.369,0.302,0.67,0.67,0.67c0.37,0,0.671-0.301,0.671-0.67
		c0-0.37-0.301-0.669-0.671-0.669C220.454,242.802,220.153,243.101,220.153,243.471L220.153,243.471z"/>
	<path fill="#020202" d="M222.087,243.471c0,0.369,0.301,0.67,0.67,0.67s0.67-0.301,0.67-0.67c0-0.37-0.301-0.669-0.67-0.669
		S222.087,243.101,222.087,243.471L222.087,243.471z"/>
	<path fill="#020202" d="M224.018,243.471c0,0.369,0.3,0.67,0.67,0.67s0.67-0.301,0.67-0.67c0-0.37-0.3-0.669-0.67-0.669
		S224.018,243.101,224.018,243.471L224.018,243.471z"/>
	<path fill="#020202" d="M220.153,245.251c0,0.37,0.302,0.671,0.67,0.671c0.37,0,0.671-0.301,0.671-0.671
		c0-0.369-0.301-0.67-0.671-0.67C220.454,244.582,220.153,244.882,220.153,245.251L220.153,245.251z"/>
	<path fill="#020202" d="M222.087,245.251c0,0.37,0.301,0.671,0.67,0.671s0.67-0.301,0.67-0.671c0-0.369-0.301-0.67-0.67-0.67
		C222.388,244.582,222.087,244.882,222.087,245.251L222.087,245.251z"/>
	<path fill="#020202" d="M220.153,247.035c0,0.369,0.302,0.67,0.67,0.67c0.37,0,0.671-0.301,0.671-0.67
		c0-0.37-0.301-0.67-0.671-0.67C220.454,246.365,220.153,246.664,220.153,247.035L220.153,247.035z"/>
</g>
<g>
	<path fill="#8DC63F" d="M388.521,323.702h-51.315v-48.371h63.024v37.465h-11.71L388.521,323.702L388.521,323.702z M339.006,321.903
		h47.716v-10.905h11.71v-33.866h-59.426V321.903z"/>
	<path fill="#8DC63F" d="M389.506,316.142c0,0.369,0.301,0.67,0.67,0.67c0.37,0,0.67-0.301,0.67-0.67c0-0.37-0.3-0.67-0.67-0.67
		C389.807,315.472,389.506,315.772,389.506,316.142L389.506,316.142z"/>
	<path fill="#8DC63F" d="M391.44,316.142c0,0.369,0.301,0.67,0.67,0.67s0.67-0.301,0.67-0.67c0-0.37-0.301-0.67-0.67-0.67
		S391.44,315.772,391.44,316.142L391.44,316.142z"/>
	<path fill="#8DC63F" d="M393.37,316.142c0,0.369,0.301,0.67,0.671,0.67c0.369,0,0.67-0.301,0.67-0.67c0-0.37-0.301-0.67-0.67-0.67
		C393.671,315.472,393.37,315.772,393.37,316.142L393.37,316.142z"/>
	<path fill="#8DC63F" d="M395.306,316.142c0,0.369,0.301,0.67,0.67,0.67c0.37,0,0.671-0.301,0.671-0.67
		c0-0.37-0.301-0.67-0.671-0.67S395.306,315.772,395.306,316.142L395.306,316.142z"/>
	<path fill="#8DC63F" d="M389.506,314.362c0,0.369,0.301,0.669,0.67,0.669c0.37,0,0.67-0.3,0.67-0.669c0-0.37-0.3-0.67-0.67-0.67
		C389.807,313.692,389.506,313.99,389.506,314.362L389.506,314.362z"/>
	<path fill="#8DC63F" d="M391.44,314.362c0,0.369,0.301,0.669,0.67,0.669s0.67-0.3,0.67-0.669c0-0.37-0.301-0.67-0.67-0.67
		S391.44,313.99,391.44,314.362L391.44,314.362z"/>
	<path fill="#8DC63F" d="M393.37,314.362c0,0.369,0.301,0.669,0.671,0.669c0.369,0,0.67-0.3,0.67-0.669c0-0.37-0.301-0.67-0.67-0.67
		C393.671,313.692,393.37,313.99,393.37,314.362L393.37,314.362z"/>
	<path fill="#8DC63F" d="M395.306,314.362c0,0.369,0.301,0.669,0.67,0.669c0.37,0,0.671-0.3,0.671-0.669
		c0-0.37-0.301-0.67-0.671-0.67S395.306,313.99,395.306,314.362L395.306,314.362z"/>
	<path fill="#8DC63F" d="M397.24,314.362c0,0.369,0.3,0.669,0.67,0.669c0.363,0,0.665-0.3,0.665-0.669c0-0.37-0.302-0.67-0.665-0.67
		C397.54,313.692,397.24,313.99,397.24,314.362L397.24,314.362z"/>
	<path fill="#8DC63F" d="M389.506,317.922c0,0.37,0.301,0.671,0.67,0.671c0.37,0,0.67-0.301,0.67-0.671
		c0-0.369-0.3-0.669-0.67-0.669C389.807,317.253,389.506,317.553,389.506,317.922L389.506,317.922z"/>
	<path fill="#8DC63F" d="M391.44,317.922c0,0.37,0.301,0.671,0.67,0.671s0.67-0.301,0.67-0.671c0-0.369-0.301-0.669-0.67-0.669
		S391.44,317.553,391.44,317.922L391.44,317.922z"/>
	<path fill="#8DC63F" d="M393.37,317.922c0,0.37,0.301,0.671,0.671,0.671c0.369,0,0.67-0.301,0.67-0.671
		c0-0.369-0.301-0.669-0.67-0.669C393.671,317.253,393.37,317.553,393.37,317.922L393.37,317.922z"/>
	<path fill="#8DC63F" d="M389.506,319.704c0,0.37,0.301,0.671,0.67,0.671c0.37,0,0.67-0.301,0.67-0.671c0-0.369-0.3-0.67-0.67-0.67
		C389.807,319.035,389.506,319.334,389.506,319.704L389.506,319.704z"/>
	<path fill="#8DC63F" d="M391.44,319.704c0,0.37,0.301,0.671,0.67,0.671s0.67-0.301,0.67-0.671c0-0.369-0.301-0.67-0.67-0.67
		C391.74,319.035,391.44,319.334,391.44,319.704L391.44,319.704z"/>
	<path fill="#8DC63F" d="M389.506,321.488c0,0.369,0.301,0.67,0.67,0.67c0.37,0,0.67-0.301,0.67-0.67c0-0.37-0.3-0.67-0.67-0.67
		C389.807,320.818,389.506,321.116,389.506,321.488L389.506,321.488z"/>
</g>
<g>
	<line fill="none" stroke="#1B181C" stroke-width="3.3579" x1="111.092" y1="38.5" x2="119.323" y2="38.5"/>
	<polygon fill="#1B181C" points="123.229,38.5 116.776,32.5 116.776,44.5 	"/>
</g>
<g>
	<line fill="none" stroke="#1B181C" stroke-width="3.3579" x1="38.092" y1="38.5" x2="46.323" y2="38.5"/>
	<polygon fill="#1B181C" points="50.229,38.5 43.776,32.5 43.776,44.5 	"/>
</g>
<g>
	<line fill="none" stroke="#1B181C" stroke-width="3.3579" x1="110.707" y1="58.987" x2="118.939" y2="58.987"/>
	<polygon fill="#1B181C" points="122.843,58.987 116.391,52.987 116.391,64.987 	"/>
</g>
<rect x="34.593" y="110.997" fill="none" width="55.267" height="35"/>
<text transform="matrix(1 0 0 1 34.593 117.9812)"><tspan x="0" y="0" font-family="'Ubuntu-Light'" font-size="9">Source </tspan><tspan x="0" y="11" font-family="'Ubuntu-Light'" font-size="9">Document </tspan></text>
<g>
	<line fill="none" stroke="#1B181C" stroke-width="3.3579" x1="90.912" y1="149.996" x2="99.142" y2="149.997"/>
	<polygon fill="#1B181C" points="103.048,149.999 96.594,143.997 96.595,155.997 	"/>
</g>
<rect x="20.258" y="31.326" fill="none" width="26" height="20"/>
<text transform="matrix(1 0 0 1 20.2571 45.2942)" font-family="'Ubuntu-Medium'" font-size="18">?</text>
</svg>
