<?xml version="1.0" encoding="UTF-8" standalone="no"?>
<!-- Created with Inkscape (http://www.inkscape.org/) -->

<svg
   xmlns:dc="http://purl.org/dc/elements/1.1/"
   xmlns:cc="http://creativecommons.org/ns#"
   xmlns:rdf="http://www.w3.org/1999/02/22-rdf-syntax-ns#"
   xmlns:svg="http://www.w3.org/2000/svg"
   xmlns="http://www.w3.org/2000/svg"
   xmlns:sodipodi="http://sodipodi.sourceforge.net/DTD/sodipodi-0.dtd"
   xmlns:inkscape="http://www.inkscape.org/namespaces/inkscape"
   id="svg2"
   version="1.1"
   inkscape:version="0.48.5 r10040"
   width="600"
   height="420.83655"
   xml:space="preserve"
   sodipodi:docname="logo_zw.pdf"><metadata
     id="metadata8"><rdf:RDF><cc:Work
         rdf:about=""><dc:format>image/svg+xml</dc:format><dc:type
           rdf:resource="http://purl.org/dc/dcmitype/StillImage" /><dc:title></dc:title></cc:Work></rdf:RDF></metadata><defs
     id="defs6"><clipPath
       clipPathUnits="userSpaceOnUse"
       id="clipPath20"><path
         d="M 0,300 300,300 300,0 0,0 0,300 z"
         id="path22"
         inkscape:connector-curvature="0" /></clipPath></defs><sodipodi:namedview
     pagecolor="#ffffff"
     bordercolor="#666666"
     borderopacity="1"
     objecttolerance="10"
     gridtolerance="10"
     guidetolerance="10"
     inkscape:pageopacity="0"
     inkscape:pageshadow="2"
     inkscape:window-width="1522"
     inkscape:window-height="1013"
     id="namedview4"
     showgrid="false"
     fit-margin-top="0"
     fit-margin-left="0"
     fit-margin-right="0"
     fit-margin-bottom="0"
     inkscape:zoom="0.62933333"
     inkscape:cx="-28.125129"
     inkscape:cy="210.4185"
     inkscape:window-x="-5"
     inkscape:window-y="-5"
     inkscape:window-maximized="0"
     inkscape:current-layer="g10" /><g
     id="g10"
     inkscape:groupmode="layer"
     inkscape:label="logo_zw"
     transform="matrix(1.25,0,0,-1.25,112.49987,397.91803)"><g
       id="g3159"
       transform="matrix(2.1265379,0,0,2.1265379,-168.98079,-168.98045)"
       inkscape:export-filename="/home/andre/Documents/INC/DTP/Hybrid-Publishing-Toolkit-for-the-Arts/logo3.png"
       inkscape:export-xdpi="100"
       inkscape:export-ydpi="100"><g
         transform="translate(42.9736,76.6738)"
         id="g12"><path
           id="path14"
           style="fill:#000000;fill-opacity:1;fill-rule:nonzero;stroke:none"
           d="m 0,0 174.134,0 0,40.429 39.919,0 0,106.223 L 0,146.652 0,0 z m 179.967,-5.833 -185.8,0 0,158.318 225.719,0 0,-117.889 -39.919,0 0,-40.429 z"
           inkscape:connector-curvature="0" /></g><g
         id="g16"><g
           clip-path="url(#clipPath20)"
           id="g18"><g
             transform="translate(228.0723,104.0146)"
             id="g24"><path
               id="path26"
               style="fill:#000000;fill-opacity:1;fill-rule:nonzero;stroke:none"
               d="m 0,0 c 0,-0.994 0.804,-1.798 1.79,-1.798 0.993,0 1.798,0.804 1.798,1.798 0,0.985 -0.805,1.791 -1.798,1.791 C 0.804,1.791 0,0.985 0,0"
               inkscape:connector-curvature="0" /></g><g
             transform="translate(228.0723,97.8486)"
             id="g28"><path
               id="path30"
               style="fill:#000000;fill-opacity:1;fill-rule:nonzero;stroke:none"
               d="m 0,0 c 0,-0.988 0.804,-1.792 1.79,-1.792 0.993,0 1.798,0.804 1.798,1.792 0,0.991 -0.805,1.794 -1.798,1.794 C 0.804,1.794 0,0.991 0,0"
               inkscape:connector-curvature="0" /></g><g
             transform="translate(228.0723,91.6875)"
             id="g32"><path
               id="path34"
               style="fill:#000000;fill-opacity:1;fill-rule:nonzero;stroke:none"
               d="m 0,0 c 0,-0.994 0.804,-1.797 1.79,-1.797 0.993,0 1.798,0.803 1.798,1.797 0,0.985 -0.805,1.792 -1.798,1.792 C 0.804,1.792 0,0.985 0,0"
               inkscape:connector-curvature="0" /></g><g
             transform="translate(228.0723,85.5215)"
             id="g36"><path
               id="path38"
               style="fill:#000000;fill-opacity:1;fill-rule:nonzero;stroke:none"
               d="m 0,0 c 0,-0.988 0.804,-1.791 1.79,-1.791 0.993,0 1.798,0.803 1.798,1.791 0,0.991 -0.805,1.795 -1.798,1.795 C 0.804,1.795 0,0.991 0,0"
               inkscape:connector-curvature="0" /></g><g
             transform="translate(228.0723,79.3613)"
             id="g40"><path
               id="path42"
               style="fill:#000000;fill-opacity:1;fill-rule:nonzero;stroke:none"
               d="m 0,0 c 0,-0.988 0.804,-1.792 1.79,-1.792 0.993,0 1.798,0.804 1.798,1.792 0,0.991 -0.805,1.794 -1.798,1.794 C 0.804,1.794 0,0.991 0,0"
               inkscape:connector-curvature="0" /></g><g
             transform="translate(248.3496,96.0566)"
             id="g44"><path
               id="path46"
               style="fill:#000000;fill-opacity:1;fill-rule:nonzero;stroke:none"
               d="M 0,0 C 0.992,0 1.797,0.804 1.797,1.792 1.797,2.783 0.992,3.586 0,3.586 -0.986,3.586 -1.79,2.783 -1.79,1.792 -1.79,0.804 -0.986,0 0,0"
               inkscape:connector-curvature="0" /></g><g
             transform="translate(254.5156,102.2168)"
             id="g48"><path
               id="path50"
               style="fill:#000000;fill-opacity:1;fill-rule:nonzero;stroke:none"
               d="M 0,0 C 0.988,0 1.792,0.804 1.792,1.792 1.792,2.783 0.988,3.589 0,3.589 -0.992,3.589 -1.796,2.783 -1.796,1.792 -1.796,0.804 -0.992,0 0,0"
               inkscape:connector-curvature="0" /></g><g
             transform="translate(248.3496,102.2168)"
             id="g52"><path
               id="path54"
               style="fill:#000000;fill-opacity:1;fill-rule:nonzero;stroke:none"
               d="M 0,0 C 0.992,0 1.797,0.804 1.797,1.792 1.797,2.783 0.992,3.589 0,3.589 -0.986,3.589 -1.79,2.783 -1.79,1.792 -1.79,0.804 -0.986,0 0,0"
               inkscape:connector-curvature="0" /></g><g
             transform="translate(242.1895,89.8906)"
             id="g56"><path
               id="path58"
               style="fill:#000000;fill-opacity:1;fill-rule:nonzero;stroke:none"
               d="M 0,0 C 0.992,0 1.797,0.803 1.797,1.797 1.797,2.782 0.992,3.589 0,3.589 -0.987,3.589 -1.79,2.782 -1.79,1.797 -1.79,0.803 -0.987,0 0,0"
               inkscape:connector-curvature="0" /></g><g
             transform="translate(242.1895,96.0566)"
             id="g60"><path
               id="path62"
               style="fill:#000000;fill-opacity:1;fill-rule:nonzero;stroke:none"
               d="M 0,0 C 0.992,0 1.797,0.804 1.797,1.792 1.797,2.783 0.992,3.586 0,3.586 -0.987,3.586 -1.79,2.783 -1.79,1.792 -1.79,0.804 -0.987,0 0,0"
               inkscape:connector-curvature="0" /></g><g
             transform="translate(242.1895,102.2168)"
             id="g64"><path
               id="path66"
               style="fill:#000000;fill-opacity:1;fill-rule:nonzero;stroke:none"
               d="M 0,0 C 0.992,0 1.797,0.804 1.797,1.792 1.797,2.783 0.992,3.589 0,3.589 -0.987,3.589 -1.79,2.783 -1.79,1.792 -1.79,0.804 -0.987,0 0,0"
               inkscape:connector-curvature="0" /></g><g
             transform="translate(236.0234,83.7305)"
             id="g68"><path
               id="path70"
               style="fill:#000000;fill-opacity:1;fill-rule:nonzero;stroke:none"
               d="M 0,0 C 0.993,0 1.797,0.803 1.797,1.791 1.797,2.782 0.993,3.586 0,3.586 -0.987,3.586 -1.79,2.782 -1.79,1.791 -1.79,0.803 -0.987,0 0,0"
               inkscape:connector-curvature="0" /></g><g
             transform="translate(236.0283,89.8906)"
             id="g72"><path
               id="path74"
               style="fill:#000000;fill-opacity:1;fill-rule:nonzero;stroke:none"
               d="M 0,0 C 0.993,0 1.798,0.803 1.798,1.797 1.798,2.782 0.993,3.589 0,3.589 -0.992,3.589 -1.795,2.782 -1.795,1.797 -1.795,0.803 -0.992,0 0,0"
               inkscape:connector-curvature="0" /></g><g
             transform="translate(236.0283,96.0566)"
             id="g76"><path
               id="path78"
               style="fill:#000000;fill-opacity:1;fill-rule:nonzero;stroke:none"
               d="M 0,0 C 0.988,0 1.792,0.804 1.792,1.792 1.792,2.777 0.988,3.583 0,3.583 -0.992,3.583 -1.795,2.777 -1.795,1.792 -1.795,0.804 -0.992,0 0,0"
               inkscape:connector-curvature="0" /></g><g
             transform="translate(236.0283,102.2168)"
             id="g80"><path
               id="path82"
               style="fill:#000000;fill-opacity:1;fill-rule:nonzero;stroke:none"
               d="M 0,0 C 0.988,0 1.792,0.804 1.792,1.792 1.792,2.783 0.988,3.589 0,3.589 -0.992,3.589 -1.795,2.783 -1.795,1.792 -1.795,0.804 -0.992,0 0,0"
               inkscape:connector-curvature="0" /></g><g
             transform="translate(229.8623,102.2168)"
             id="g84"><path
               id="path86"
               style="fill:#000000;fill-opacity:1;fill-rule:nonzero;stroke:none"
               d="M 0,0 C 0.993,0 1.798,0.804 1.798,1.792 1.798,2.783 0.993,3.589 0,3.589 -0.986,3.589 -1.79,2.783 -1.79,1.792 -1.79,0.804 -0.986,0 0,0"
               inkscape:connector-curvature="0" /></g><g
             transform="translate(58.9307,193.707)"
             id="g88"><path
               id="path90"
               style="fill:#000000;fill-opacity:1;fill-rule:nonzero;stroke:none"
               d="m 0,0 c 0.104,-0.021 0.219,-0.031 0.344,-0.031 l 0.343,0 c 0.874,0 1.607,0.166 2.2,0.498 C 3.48,0.8 3.959,1.259 4.322,1.841 4.687,2.424 4.947,3.116 5.103,3.916 5.259,4.717 5.337,5.597 5.337,6.554 5.337,7.385 5.274,8.197 5.15,8.989 5.025,9.779 4.807,10.476 4.494,11.079 4.183,11.683 3.756,12.166 3.215,12.53 2.674,12.895 1.977,13.077 1.123,13.077 0.957,13.077 0.77,13.071 0.562,13.062 0.354,13.05 0.167,13.024 0,12.983 L 0,0 z M 9.238,6.554 C 9.238,4.764 9.015,3.24 8.567,1.981 8.12,0.722 7.501,-0.302 6.711,-1.092 5.92,-1.884 4.979,-2.46 3.886,-2.825 2.794,-3.188 1.592,-3.371 0.281,-3.371 c -0.686,0 -1.358,0.036 -2.012,0.109 -0.657,0.074 -1.359,0.192 -2.108,0.359 l 0,18.851 c 0.874,0.188 1.695,0.312 2.466,0.375 0.769,0.062 1.487,0.094 2.153,0.094 1.269,0 2.43,-0.188 3.481,-0.563 C 5.311,15.479 6.2,14.892 6.929,14.091 7.657,13.29 8.225,12.27 8.63,11.032 9.035,9.795 9.238,8.301 9.238,6.554"
               inkscape:connector-curvature="0" /></g><g
             transform="translate(74.7549,190.5854)"
             id="g92"><path
               id="path94"
               style="fill:#000000;fill-opacity:1;fill-rule:nonzero;stroke:none"
               d="m 0,0 0,3.183 4.213,0 0,12.953 -4.213,0 0,3.183 12.266,0 0,-3.183 -4.183,0 0,-12.953 4.183,0 L 12.266,0 0,0 z"
               inkscape:connector-curvature="0" /></g><g
             transform="translate(102.4697,207.002)"
             id="g96"><path
               id="path98"
               style="fill:#000000;fill-opacity:1;fill-rule:nonzero;stroke:none"
               d="m 0,0 c -0.916,0 -1.686,-0.167 -2.31,-0.5 -0.624,-0.332 -1.139,-0.794 -1.544,-1.388 -0.406,-0.592 -0.698,-1.3 -0.875,-2.122 -0.176,-0.823 -0.264,-1.733 -0.264,-2.731 0,-2.31 0.363,-4.01 1.092,-5.103 0.727,-1.092 1.799,-1.639 3.214,-1.639 0.229,0 0.479,0.01 0.749,0.031 0.27,0.02 0.52,0.052 0.75,0.095 l 0,7.053 3.838,0 0,-9.644 c -0.458,-0.166 -1.171,-0.354 -2.137,-0.562 -0.968,-0.208 -2.139,-0.312 -3.512,-0.312 -1.207,0 -2.294,0.214 -3.261,0.639 -0.968,0.428 -1.795,1.062 -2.481,1.904 -0.687,0.843 -1.218,1.894 -1.593,3.153 -0.374,1.259 -0.562,2.72 -0.562,4.385 0,1.643 0.219,3.094 0.657,4.354 0.436,1.258 1.029,2.315 1.778,3.168 0.749,0.853 1.634,1.492 2.653,1.919 1.02,0.426 2.112,0.639 3.278,0.639 0.749,0 1.42,-0.056 2.012,-0.171 C 2.075,3.053 2.59,2.924 3.027,2.778 3.464,2.632 3.823,2.477 4.104,2.31 4.386,2.144 4.599,2.018 4.744,1.936 L 3.745,-1.124 C 3.287,-0.832 2.726,-0.572 2.06,-0.343 1.394,-0.114 0.707,0 0,0"
               inkscape:connector-curvature="0" /></g><g
             transform="translate(114.0801,190.5854)"
             id="g100"><path
               id="path102"
               style="fill:#000000;fill-opacity:1;fill-rule:nonzero;stroke:none"
               d="m 0,0 0,3.183 4.213,0 0,12.953 -4.213,0 0,3.183 12.266,0 0,-3.183 -4.182,0 0,-12.953 4.182,0 L 12.266,0 0,0 z"
               inkscape:connector-curvature="0" /></g><g
             transform="translate(146.8828,209.9043)"
             id="g104"><path
               id="path106"
               style="fill:#000000;fill-opacity:1;fill-rule:nonzero;stroke:none"
               d="m 0,0 0,-3.183 -5.088,0 0,-16.136 -3.87,0 0,16.136 -5.087,0 0,3.183 L 0,0 z"
               inkscape:connector-curvature="0" /></g><g
             transform="translate(159.4902,206.1592)"
             id="g108"><path
               id="path110"
               style="fill:#000000;fill-opacity:1;fill-rule:nonzero;stroke:none"
               d="M 0,0 C -0.208,-0.728 -0.4,-1.42 -0.575,-2.075 -0.754,-2.73 -0.92,-3.375 -1.077,-4.01 -1.232,-4.646 -1.379,-5.285 -1.513,-5.93 -1.649,-6.575 -1.777,-7.24 -1.902,-7.926 l 3.776,0 C 1.748,-7.24 1.623,-6.575 1.498,-5.93 1.374,-5.285 1.233,-4.646 1.078,-4.01 0.923,-3.375 0.755,-2.73 0.578,-2.075 0.401,-1.42 0.208,-0.728 0,0 m 3.435,-15.574 -0.906,4.464 -5.149,0 -0.875,-4.464 -3.995,0 c 0.916,3.808 1.842,7.277 2.779,10.409 0.936,3.131 1.84,6.102 2.714,8.91 l 4.183,0 c 0.916,-2.829 1.826,-5.831 2.73,-9.004 0.905,-3.173 1.785,-6.611 2.637,-10.315 l -4.118,0 z"
               inkscape:connector-curvature="0" /></g><g
             transform="translate(185.7383,190.5854)"
             id="g112"><path
               id="path114"
               style="fill:#000000;fill-opacity:1;fill-rule:nonzero;stroke:none"
               d="m 0,0 -12.142,0 0,19.319 3.871,0 0,-16.136 L 0,3.183 0,0 z"
               inkscape:connector-curvature="0" /></g><g
             transform="translate(60.835,170.3286)"
             id="g116"><path
               id="path118"
               style="fill:#000000;fill-opacity:1;fill-rule:nonzero;stroke:none"
               d="m 0,0 c -0.229,0 -0.547,-0.006 -0.952,-0.016 -0.405,-0.011 -0.723,-0.037 -0.952,-0.078 l 0,-6.242 1.56,0 c 1.228,0 2.155,0.244 2.778,0.733 0.625,0.489 0.936,1.326 0.936,2.513 0,1.123 -0.307,1.919 -0.921,2.388 C 1.836,-0.235 1.02,0 0,0 m -0.437,3.339 c 2.455,0 4.359,-0.506 5.711,-1.514 1.352,-1.009 2.029,-2.658 2.029,-4.947 0,-2.31 -0.682,-3.979 -2.044,-5.009 -1.363,-1.03 -3.293,-1.544 -5.79,-1.544 l -1.373,0 0,-6.524 -3.839,0 0,19.07 c 0.375,0.082 0.796,0.156 1.264,0.217 0.468,0.063 0.941,0.11 1.42,0.141 0.479,0.032 0.947,0.058 1.405,0.079 0.458,0.02 0.863,0.031 1.217,0.031"
               inkscape:connector-curvature="0" /></g><g
             transform="translate(80.8096,153.7241)"
             id="g120"><path
               id="path122"
               style="fill:#000000;fill-opacity:1;fill-rule:nonzero;stroke:none"
               d="M 0,0 C -1.249,0 -2.294,0.172 -3.137,0.515 -3.979,0.858 -4.65,1.353 -5.15,1.998 -5.649,2.642 -6.003,3.422 -6.211,4.337 -6.42,5.253 -6.523,6.273 -6.523,7.396 l 0,12.329 3.871,0 0,-12.078 c 0,-0.812 0.041,-1.494 0.124,-2.045 0.083,-0.551 0.223,-0.994 0.422,-1.326 0.197,-0.333 0.472,-0.572 0.826,-0.717 0.354,-0.147 0.801,-0.22 1.342,-0.22 0.542,0 0.989,0.073 1.342,0.22 0.354,0.145 0.635,0.39 0.843,0.733 0.207,0.343 0.354,0.79 0.437,1.341 0.084,0.552 0.126,1.234 0.126,2.045 l 0,12.047 3.837,0 0,-12.329 C 6.647,6.273 6.544,5.253 6.336,4.337 6.127,3.422 5.764,2.642 5.243,1.998 4.723,1.353 4.036,0.858 3.184,0.515 2.33,0.172 1.269,0 0,0"
               inkscape:connector-curvature="0" /></g><g
             transform="translate(98.2559,162.5874)"
             id="g124"><path
               id="path126"
               style="fill:#000000;fill-opacity:1;fill-rule:nonzero;stroke:none"
               d="m 0,0 0,-5.244 c 0.271,-0.041 0.566,-0.072 0.89,-0.092 0.322,-0.021 0.639,-0.032 0.952,-0.032 0.436,0 0.863,0.036 1.279,0.109 0.416,0.072 0.785,0.208 1.108,0.405 0.323,0.199 0.587,0.479 0.796,0.844 0.207,0.364 0.312,0.827 0.312,1.388 0,0.937 -0.296,1.608 -0.889,2.014 C 3.854,-0.202 3.059,0 2.06,0 L 0,0 z m 1.498,3.184 c 0.979,0 1.717,0.213 2.217,0.639 0.499,0.426 0.749,1.014 0.749,1.763 0,0.459 -0.073,0.828 -0.219,1.11 C 4.1,6.976 3.902,7.194 3.652,7.351 3.402,7.506 3.111,7.61 2.778,7.663 2.445,7.714 2.102,7.741 1.748,7.741 1.457,7.741 1.155,7.729 0.843,7.709 0.531,7.688 0.25,7.657 0,7.616 l 0,-4.432 1.498,0 z M 9.114,-2.622 C 9.114,-3.787 8.916,-4.759 8.521,-5.54 8.125,-6.32 7.59,-6.944 6.914,-7.413 6.237,-7.881 5.436,-8.213 4.51,-8.411 3.584,-8.608 2.591,-8.707 1.529,-8.707 c -0.852,0 -1.737,0.047 -2.653,0.14 -0.915,0.094 -1.82,0.234 -2.715,0.421 l 0,18.758 c 0.729,0.125 1.529,0.233 2.403,0.327 0.874,0.094 1.738,0.142 2.591,0.142 1.456,0 2.642,-0.151 3.558,-0.454 C 5.629,10.326 6.347,9.93 6.867,9.441 7.387,8.953 7.74,8.406 7.928,7.804 8.115,7.2 8.209,6.596 8.209,5.992 8.209,5.077 7.984,4.265 7.537,3.559 7.09,2.851 6.492,2.29 5.743,1.873 7.054,1.394 7.943,0.749 8.412,-0.062 8.88,-0.873 9.114,-1.728 9.114,-2.622"
               inkscape:connector-curvature="0" /></g><g
             transform="translate(126.751,154.1299)"
             id="g128"><path
               id="path130"
               style="fill:#000000;fill-opacity:1;fill-rule:nonzero;stroke:none"
               d="m 0,0 -12.141,0 0,19.319 3.87,0 0,-16.136 L 0,3.183 0,0 z"
               inkscape:connector-curvature="0" /></g><g
             transform="translate(133.7422,154.1299)"
             id="g132"><path
               id="path134"
               style="fill:#000000;fill-opacity:1;fill-rule:nonzero;stroke:none"
               d="m 0,0 0,3.183 4.214,0 0,12.953 -4.214,0 0,3.183 12.266,0 0,-3.183 -4.182,0 0,-12.953 4.182,0 L 12.266,0 0,0 z"
               inkscape:connector-curvature="0" /></g><g
             transform="translate(158.96,156.938)"
             id="g136"><path
               id="path138"
               style="fill:#000000;fill-opacity:1;fill-rule:nonzero;stroke:none"
               d="m 0,0 c 0.646,0 1.181,0.068 1.608,0.204 0.426,0.135 0.765,0.321 1.014,0.561 0.249,0.239 0.422,0.509 0.516,0.812 0.092,0.301 0.14,0.609 0.14,0.921 0,0.394 -0.115,0.749 -0.344,1.061 C 2.706,3.871 2.414,4.147 2.06,4.386 1.706,4.625 1.311,4.843 0.875,5.041 0.437,5.239 0,5.42 -0.436,5.588 -1.02,5.794 -1.623,6.035 -2.247,6.306 c -0.623,0.269 -1.191,0.612 -1.7,1.029 -0.51,0.416 -0.932,0.932 -1.265,1.545 -0.333,0.614 -0.499,1.379 -0.499,2.295 0,1.809 0.588,3.223 1.764,4.243 1.175,1.02 2.793,1.53 4.853,1.53 1.185,0 2.22,-0.136 3.105,-0.406 0.885,-0.271 1.629,-0.573 2.232,-0.904 L 5.118,12.673 c -0.519,0.29 -1.097,0.539 -1.731,0.749 -0.635,0.208 -1.368,0.311 -2.2,0.311 -2.04,0 -3.059,-0.738 -3.059,-2.215 0,-0.375 0.103,-0.702 0.311,-0.984 0.208,-0.281 0.473,-0.53 0.796,-0.749 C -0.441,9.567 -0.076,9.375 0.328,9.208 0.733,9.042 1.134,8.885 1.529,8.739 2.134,8.51 2.763,8.255 3.418,7.975 4.073,7.694 4.677,7.32 5.228,6.851 5.779,6.383 6.232,5.8 6.585,5.104 6.939,4.406 7.116,3.527 7.116,2.466 7.116,0.657 6.528,-0.743 5.354,-1.731 4.177,-2.72 2.393,-3.214 0,-3.214 c -1.602,0 -2.882,0.172 -3.839,0.515 -0.957,0.344 -1.675,0.66 -2.153,0.952 l 1.124,3.121 C -4.306,1.041 -3.636,0.729 -2.854,0.437 -2.076,0.146 -1.123,0 0,0"
               inkscape:connector-curvature="0" /></g><g
             transform="translate(185.582,173.4487)"
             id="g140"><path
               id="path142"
               style="fill:#000000;fill-opacity:1;fill-rule:nonzero;stroke:none"
               d="m 0,0 0,-19.319 -3.838,0 0,8.52 -5.12,0 0,-8.52 -3.839,0 0,19.319 3.839,0 0,-7.615 5.12,0 0,7.615 L 0,0 z"
               inkscape:connector-curvature="0" /></g><g
             transform="translate(192.7305,154.1299)"
             id="g144"><path
               id="path146"
               style="fill:#000000;fill-opacity:1;fill-rule:nonzero;stroke:none"
               d="m 0,0 0,3.183 4.212,0 0,12.953 -4.212,0 0,3.183 12.264,0 0,-3.183 -4.181,0 0,-12.953 4.181,0 L 12.264,0 0,0 z"
               inkscape:connector-curvature="0" /></g><g
             transform="translate(221.7871,154.1299)"
             id="g148"><path
               id="path150"
               style="fill:#000000;fill-opacity:1;fill-rule:nonzero;stroke:none"
               d="m 0,0 c -0.875,2.143 -1.826,4.281 -2.857,6.414 -1.028,2.131 -2.137,4.271 -3.324,6.414 l 0,-12.828 -3.464,0 0,19.319 3.091,0 c 0.581,-0.916 1.165,-1.909 1.746,-2.981 0.584,-1.071 1.151,-2.137 1.702,-3.198 0.551,-1.061 1.061,-2.092 1.529,-3.091 0.469,-0.998 0.869,-1.872 1.202,-2.621 l 0,11.891 3.465,0 L 3.09,0 0,0 z"
               inkscape:connector-curvature="0" /></g><g
             transform="translate(240.1074,170.5464)"
             id="g152"><path
               id="path154"
               style="fill:#000000;fill-opacity:1;fill-rule:nonzero;stroke:none"
               d="m 0,0 c -0.916,0 -1.685,-0.167 -2.31,-0.5 -0.624,-0.332 -1.139,-0.794 -1.545,-1.388 -0.405,-0.593 -0.698,-1.3 -0.874,-2.122 -0.177,-0.823 -0.265,-1.733 -0.265,-2.732 0,-2.309 0.364,-4.01 1.094,-5.102 0.725,-1.092 1.797,-1.639 3.213,-1.639 0.23,0 0.479,0.01 0.749,0.031 0.27,0.02 0.52,0.052 0.75,0.094 l 0,7.054 3.837,0 0,-9.644 c -0.457,-0.167 -1.17,-0.355 -2.135,-0.563 -0.969,-0.208 -2.14,-0.311 -3.512,-0.311 -1.208,0 -2.295,0.213 -3.262,0.639 -0.968,0.427 -1.796,1.062 -2.481,1.904 -0.687,0.843 -1.218,1.894 -1.593,3.153 -0.374,1.259 -0.562,2.72 -0.562,4.384 0,1.644 0.219,3.095 0.656,4.355 0.437,1.258 1.03,2.314 1.779,3.167 0.749,0.853 1.633,1.492 2.652,1.92 1.021,0.425 2.113,0.639 3.278,0.639 0.749,0 1.421,-0.057 2.013,-0.171 C 2.074,3.053 2.59,2.923 3.027,2.778 3.465,2.631 3.823,2.477 4.104,2.31 4.385,2.143 4.598,2.018 4.743,1.935 L 3.745,-1.124 C 3.288,-0.832 2.726,-0.573 2.061,-0.343 1.394,-0.114 0.708,0 0,0"
               inkscape:connector-curvature="0" /></g><g
             transform="translate(68.2314,136.9922)"
             id="g156"><path
               id="path158"
               style="fill:#000000;fill-opacity:1;fill-rule:nonzero;stroke:none"
               d="m 0,0 0,-3.183 -5.087,0 0,-16.135 -3.87,0 0,16.135 -5.087,0 0,3.183 L 0,0 z"
               inkscape:connector-curvature="0" /></g><g
             transform="translate(77.8135,127.3486)"
             id="g160"><path
               id="path162"
               style="fill:#000000;fill-opacity:1;fill-rule:nonzero;stroke:none"
               d="m 0,0 c 0,-0.936 0.036,-1.815 0.109,-2.637 0.073,-0.822 0.218,-1.534 0.437,-2.137 0.219,-0.604 0.525,-1.082 0.921,-1.436 0.395,-0.354 0.926,-0.531 1.592,-0.531 0.644,0 1.17,0.177 1.576,0.531 0.405,0.354 0.718,0.837 0.936,1.451 0.219,0.613 0.364,1.326 0.437,2.138 C 6.081,-1.81 6.117,-0.936 6.117,0 6.117,0.937 6.081,1.816 6.008,2.638 5.935,3.459 5.79,4.172 5.571,4.775 5.353,5.379 5.046,5.857 4.65,6.212 4.255,6.565 3.724,6.742 3.059,6.742 2.393,6.742 1.862,6.565 1.467,6.212 1.071,5.857 0.765,5.373 0.546,4.76 0.327,4.146 0.182,3.434 0.109,2.622 0.036,1.811 0,0.937 0,0 m -3.901,0 c 0,3.33 0.613,5.842 1.841,7.538 1.228,1.696 2.934,2.543 5.119,2.543 2.267,0 3.995,-0.847 5.18,-2.543 C 9.425,5.842 10.019,3.33 10.019,0 10.019,-3.329 9.414,-5.841 8.208,-7.537 7.001,-9.233 5.295,-10.08 3.09,-10.08 c -2.269,0 -4,0.847 -5.196,2.543 -1.198,1.696 -1.795,4.208 -1.795,7.537"
               inkscape:connector-curvature="0" /></g><g
             transform="translate(97.4766,127.3486)"
             id="g164"><path
               id="path166"
               style="fill:#000000;fill-opacity:1;fill-rule:nonzero;stroke:none"
               d="m 0,0 c 0,-0.936 0.035,-1.815 0.108,-2.637 0.074,-0.822 0.219,-1.534 0.438,-2.137 0.219,-0.604 0.524,-1.082 0.921,-1.436 0.394,-0.354 0.925,-0.531 1.591,-0.531 0.645,0 1.171,0.177 1.576,0.531 0.406,0.354 0.718,0.837 0.936,1.451 0.219,0.613 0.365,1.326 0.438,2.138 C 6.08,-1.81 6.116,-0.936 6.116,0 6.116,0.937 6.08,1.816 6.008,2.638 5.935,3.459 5.789,4.172 5.57,4.775 5.352,5.379 5.045,5.857 4.649,6.212 4.254,6.565 3.724,6.742 3.058,6.742 2.392,6.742 1.861,6.565 1.467,6.212 1.07,5.857 0.765,5.373 0.546,4.76 0.327,4.146 0.182,3.434 0.108,2.622 0.035,1.811 0,0.937 0,0 m -3.902,0 c 0,3.33 0.614,5.842 1.841,7.538 1.228,1.696 2.934,2.543 5.119,2.543 2.267,0 3.995,-0.847 5.181,-2.543 C 9.425,5.842 10.018,3.33 10.018,0 c 0,-3.329 -0.604,-5.841 -1.81,-7.537 -1.207,-1.696 -2.914,-2.543 -5.119,-2.543 -2.268,0 -4,0.847 -5.196,2.543 -1.197,1.696 -1.795,4.208 -1.795,7.537"
               inkscape:connector-curvature="0" /></g><g
             transform="translate(126.751,117.6738)"
             id="g168"><path
               id="path170"
               style="fill:#000000;fill-opacity:1;fill-rule:nonzero;stroke:none"
               d="m 0,0 -12.141,0 0,19.318 3.87,0 0,-16.135 L 0,3.183 0,0 z"
               inkscape:connector-curvature="0" /></g><g
             transform="translate(142.9814,117.6738)"
             id="g172"><path
               id="path174"
               style="fill:#000000;fill-opacity:1;fill-rule:nonzero;stroke:none"
               d="m 0,0 c -0.229,0.728 -0.558,1.514 -0.983,2.357 -0.427,0.841 -0.901,1.664 -1.421,2.465 -0.52,0.8 -1.066,1.549 -1.638,2.247 -0.573,0.697 -1.119,1.285 -1.639,1.763 l 0,-8.832 -3.84,0 0,19.318 3.84,0 0,-8.019 c 0.457,0.582 0.937,1.227 1.436,1.934 0.5,0.707 0.973,1.415 1.42,2.122 0.447,0.708 0.858,1.405 1.232,2.091 0.375,0.688 0.687,1.312 0.937,1.872 l 4.339,0 C 3.391,18.758 3.042,18.118 2.637,17.4 2.231,16.682 1.768,15.933 1.248,15.153 0.728,14.373 0.171,13.577 -0.422,12.766 -1.015,11.954 -1.635,11.173 -2.278,10.424 -1.635,9.801 -0.979,9.083 -0.312,8.271 0.353,7.459 0.982,6.591 1.575,5.665 2.169,4.739 2.704,3.792 3.184,2.824 3.661,1.857 4.046,0.916 4.338,0 L 0,0 z"
               inkscape:connector-curvature="0" /></g><g
             transform="translate(153.4053,117.6738)"
             id="g176"><path
               id="path178"
               style="fill:#000000;fill-opacity:1;fill-rule:nonzero;stroke:none"
               d="m 0,0 0,3.183 4.214,0 0,12.953 -4.214,0 0,3.182 12.266,0 0,-3.182 -4.182,0 0,-12.953 4.182,0 L 12.266,0 0,0 z"
               inkscape:connector-curvature="0" /></g><g
             transform="translate(186.207,136.9922)"
             id="g180"><path
               id="path182"
               style="fill:#000000;fill-opacity:1;fill-rule:nonzero;stroke:none"
               d="m 0,0 0,-3.183 -5.089,0 0,-16.135 -3.869,0 0,16.135 -5.088,0 0,3.183 L 0,0 z"
               inkscape:connector-curvature="0" /></g></g></g></g></g></svg>